<svg id="svg" version="1.1" xmlns="http://www.w3.org/2000/svg" style="display: block;" viewBox="0 0 1078 168"><path d="M0 0 C355.74 0 711.48 0 1078 0 C1078 55.44 1078 110.88 1078 168 C722.26 168 366.52 168 0 168 C0 112.56 0 57.12 0 0 Z " transform="translate(0,0)" style="fill: #FDFDFD;"/><path d="M0 0 C5.60038442 3.68305536 9.52362661 7.29874764 13 13 C13.66 13 14.32 13 15 13 C16.53017361 11.40963415 16.53017361 11.40963415 18.125 9.375 C24.07263059 2.41762674 30.92985193 -2.98664067 40.21606445 -4.31762695 C42.54920831 -4.47333758 44.84929167 -4.51888351 47.1875 -4.5 C48.43152588 -4.49141968 48.43152588 -4.49141968 49.70068359 -4.48266602 C61.03353603 -4.15683279 70.94842796 -0.06729776 79 8 C89.99923682 20.56748738 89.42073409 34.38423565 89.29296875 50.19921875 C89.28736468 52.24615669 89.28309842 54.29309869 89.28010559 56.34004211 C89.26872064 61.69448198 89.23930885 67.0486728 89.20599365 72.40301514 C89.17515505 77.87997063 89.16157093 83.35696685 89.14648438 88.83398438 C89.11443241 99.5561159 89.0617171 110.27799815 89 121 C78.11 121 67.22 121 56 121 C55.98018066 118.55263428 55.96036133 116.10526855 55.93994141 113.58374023 C55.87294557 105.48515809 55.79530736 97.38670294 55.71247292 89.28826809 C55.66259042 84.37962593 55.61625974 79.47100446 55.578125 74.56225586 C55.54117047 69.82241634 55.49478307 65.0827533 55.44193649 60.34306526 C55.4234465 58.53746712 55.40831876 56.73183122 55.39665604 54.92617607 C55.37970096 52.39127521 55.35064422 49.85677378 55.31884766 47.32202148 C55.31668747 46.58042786 55.31452728 45.83883423 55.31230164 45.07476807 C55.21548266 39.00740189 54.60804568 33.90426463 50.625 29.1875 C44.74089361 24.28407801 39.47270576 24.36807992 32 25 C27.09821319 26.60422114 23.35953495 29.34855157 21 34 C18.5234459 43.95766673 18.66052323 54.26725205 18.5859375 64.45703125 C18.5671799 66.09755883 18.54760327 67.73807723 18.5272522 69.37858582 C18.47640912 73.65107758 18.43653087 77.92360046 18.39910889 82.19622803 C18.35164524 87.34693506 18.29025682 92.49749353 18.23126221 97.64807892 C18.14363469 105.43199104 18.0734533 113.2158832 18 121 C7.11 121 -3.78 121 -15 121 C-15.01458252 118.45651855 -15.02916504 115.91303711 -15.04418945 113.29248047 C-15.0945589 104.88253216 -15.16115823 96.47276855 -15.23571491 88.06300163 C-15.2804149 82.96486877 -15.31967195 77.86681576 -15.34643555 72.76855469 C-15.37247208 67.84711524 -15.41287721 62.92598312 -15.46318626 58.00473404 C-15.47985256 56.12853955 -15.49136832 54.2522919 -15.49761391 52.37603378 C-15.50725753 49.74499149 -15.53531977 47.114735 -15.56762695 44.48388672 C-15.56619186 43.7106456 -15.56475677 42.93740448 -15.5632782 42.14073181 C-15.64617838 37.3573913 -16.46756379 34.06359562 -19 30 C-24.61838084 24.80299772 -29.351522 24.64413539 -36.76171875 24.7265625 C-41.41631147 25.11959204 -43.39865818 26.01165253 -47 29 C-51.74049319 35.15534808 -52.1461757 41.40861165 -52.20532227 48.91137695 C-52.21522186 49.69239273 -52.22512146 50.47340851 -52.23532104 51.27809143 C-52.26679567 53.84812434 -52.2916377 56.4181757 -52.31640625 58.98828125 C-52.33698791 60.77475961 -52.3579847 62.56123322 -52.37937927 64.34770203 C-52.43447475 69.04119013 -52.48393909 73.73472127 -52.53222656 78.42828369 C-52.58253322 83.22110813 -52.63817138 88.01387035 -52.69335938 92.80664062 C-52.80078772 102.20437583 -52.90177359 111.60216411 -53 121 C-63.89 121 -74.78 121 -86 121 C-86 80.74 -86 40.48 -86 -1 C-75.44 -1 -64.88 -1 -54 -1 C-53.505 5.93 -53.505 5.93 -53 13 C-51.741875 11.47375 -50.48375 9.9475 -49.1875 8.375 C-37.5340034 -4.62454922 -15.49846624 -9.64411859 0 0 Z " transform="translate(758,36)" style="fill: #030303;"/><path d="M0 0 C1.0415625 0.42410156 2.083125 0.84820312 3.15625 1.28515625 C16.76556313 7.4540242 27.17421693 18.3255725 32.63769531 32.23217773 C39.98112065 51.9065502 39.18417982 73.46192163 30.8359375 92.6796875 C29.69325156 94.9261925 28.44459249 96.93573259 27 99 C26.42507813 99.82886719 25.85015625 100.65773438 25.2578125 101.51171875 C16.21791522 113.65567714 2.67168475 120.79315664 -12 124 C-16.4038447 124.45463527 -20.76248808 124.52429272 -25.1875 124.5 C-26.37988281 124.49500488 -27.57226562 124.49000977 -28.80078125 124.48486328 C-38.08988898 124.30145906 -45.54452036 123.0401975 -54 119 C-54.98613281 118.56558594 -55.97226562 118.13117188 -56.98828125 117.68359375 C-69.24768569 111.73193267 -79.28599552 100.53802098 -83.82568359 87.65722656 C-89.86119341 68.11835009 -91.0118923 45.83189962 -81.26416016 27.22192383 C-72.65812313 12.07952502 -61.44675579 3.40133308 -45 -2 C-43.95328125 -2.36738281 -42.9065625 -2.73476563 -41.828125 -3.11328125 C-28.47454851 -6.2064056 -12.65374394 -5.23434511 0 0 Z " transform="translate(614,36)" style="fill: #020202;"/><path d="M0 0 C6.97160651 4.95553487 12.04908285 10.26637929 14.4375 18.625 C15.02751114 24.64619573 14.99519708 30.64225237 14.9765625 36.6875 C14.98648441 38.44670831 14.9984313 40.20590625 15.01229858 41.96508789 C15.04453729 46.57788538 15.05504102 51.19044569 15.05914307 55.80334473 C15.06792467 63.18467794 15.10364683 70.56581746 15.1513176 77.94699097 C15.16381175 80.51104147 15.16315278 83.07484153 15.16104126 85.63891602 C14.49298562 98.64369648 14.49298562 98.64369648 19.5625 109.8125 C20.18125 110.410625 20.8 111.00875 21.4375 111.625 C21.4375 113.605 21.4375 115.585 21.4375 117.625 C9.8875 117.625 -1.6625 117.625 -13.5625 117.625 C-15.26180719 112.52707844 -15.7687504 109.78125988 -15.5625 104.625 C-16.20574219 105.20507812 -16.84898437 105.78515625 -17.51171875 106.3828125 C-28.69645244 116.05178343 -39.46878522 120.79089926 -54.1875 120.9375 C-55.13496094 120.96650391 -56.08242187 120.99550781 -57.05859375 121.02539062 C-67.25049845 121.11601632 -76.17281049 117.76042063 -83.5625 110.625 C-91.24684 101.54667543 -93.18159323 92.01969504 -92.91015625 80.3125 C-91.9781564 70.42701843 -87.74291462 62.32329574 -80.421875 55.68359375 C-72.02615702 48.84422485 -64.07430903 46.90994229 -53.5625 45.0625 C-52.36020752 44.84343994 -51.15791504 44.62437988 -49.91918945 44.39868164 C-42.45684393 43.06088716 -35.03576817 41.93628862 -27.48046875 41.27734375 C-23.76624181 40.44698779 -21.47382901 39.06039746 -18.5625 36.625 C-17.53996261 33.55189031 -17.92003106 30.7753521 -18.5625 27.625 C-20.74778522 23.43653665 -23.59804324 21.59369715 -28.08984375 20.1328125 C-35.48661305 18.61372876 -43.34680599 18.38711582 -49.9765625 22.359375 C-54.75107274 26.16957529 -55.57371619 29.69229712 -56.5625 35.625 C-67.1225 35.625 -77.6825 35.625 -88.5625 35.625 C-87.43294187 22.07030245 -87.43294187 22.07030245 -84.3125 16.25 C-83.72984375 15.12851562 -83.1471875 14.00703125 -82.546875 12.8515625 C-75.7796053 1.84808854 -66.84315921 -3.03040706 -54.5625 -6.375 C-36.93080252 -10.47228143 -15.85546476 -8.97085506 0 0 Z " transform="translate(275.5625,39.375)" style="fill: #020202;"/><path d="M0 0 C1.00740234 -0.01160156 2.01480469 -0.02320312 3.05273438 -0.03515625 C16.77967108 0.01780942 31.40832191 4.59636429 41.5625 14.1875 C45.45658208 18.4892958 48.31725382 23.2860511 51.0625 28.375 C51.44277344 29.02082031 51.82304688 29.66664062 52.21484375 30.33203125 C59.45410087 43.30805816 59.0625 59.06571493 59.0625 73.375 C31.6725 73.375 4.2825 73.375 -23.9375 73.375 C-21.81415966 87.00703401 -21.81415966 87.00703401 -13.7890625 96.9296875 C-6.80611055 101.03594164 0.01730982 102.2132832 8.0625 101.375 C14.05281679 99.7981498 18.8019757 97.90371511 22.0625 92.375 C22.5575 90.89 22.5575 90.89 23.0625 89.375 C34.2825 89.375 45.5025 89.375 57.0625 89.375 C53.3232644 103.08553054 47.40434421 112.9470437 35.25 120.5625 C22.50425402 127.82912957 11.41722037 128.64042337 -2.9375 128.375 C-4.72607422 128.34986328 -4.72607422 128.34986328 -6.55078125 128.32421875 C-20.58920384 127.72428616 -32.71886982 121.89334548 -42.5625 112 C-53.98595186 98.73920973 -57.47308229 80.87888033 -57.3125 63.875 C-57.32410156 62.64652344 -57.33570313 61.41804688 -57.34765625 60.15234375 C-57.29295365 42.95749351 -51.85968991 27.19920717 -40.1328125 14.40625 C-29.12000369 3.98749311 -14.81139866 -0.16992044 0 0 Z " transform="translate(922.9375,31.625)" style="fill: #020202;"/><path d="M0 0 C10.89 0 21.78 0 33 0 C33.04898438 5.43082031 33.09796875 10.86164062 33.1484375 16.45703125 C33.18386042 19.91603324 33.21984126 23.3750117 33.2578125 26.83398438 C33.31791039 32.31335927 33.3760424 37.79270158 33.421875 43.2722168 C33.45899348 47.69437041 33.50542207 52.1163407 33.55806351 56.5383358 C33.5764674 58.21781863 33.59162587 59.89734054 33.60334396 61.57688332 C32.9515857 77.35916871 32.9515857 77.35916871 38.3125 91.5625 C43.78504747 96.52597329 49.27674176 96.50535802 56.41796875 96.36328125 C61.79019036 95.81844307 65.81670597 94.45409599 70 91 C75.72510696 83.85825104 77.13067738 77.43944998 77.20532227 68.45581055 C77.21522186 67.71380905 77.22512146 66.97180756 77.23532104 66.20732117 C77.26678034 63.76715225 77.29163154 61.32696391 77.31640625 58.88671875 C77.33698924 57.18992115 77.35798606 55.49312852 77.37937927 53.79634094 C77.43446104 49.33958982 77.48393136 44.8827935 77.53222656 40.42596436 C77.5825433 35.87443031 77.63817617 31.32296156 77.69335938 26.77148438 C77.80077091 17.84771007 77.90176182 8.92388001 78 0 C88.56 0 99.12 0 110 0 C110 40.26 110 80.52 110 122 C99.77 122 89.54 122 79 122 C78.505 114.575 78.505 114.575 78 107 C76.68 108.98 75.36 110.96 74 113 C68.31317727 119.55121978 59.94150983 124.28153234 51.33496094 125.32226562 C36.9725237 126.2781522 24.37226371 125.57034506 13 115.96484375 C3.99757372 107.12066324 0.25436614 94.43220035 -0.12025452 82.01358032 C-0.12312786 80.48382674 -0.12055311 78.95405655 -0.11352539 77.42431641 C-0.11367142 76.58463318 -0.11381744 75.74494995 -0.1139679 74.87982178 C-0.11327445 72.12037521 -0.10550874 69.36099719 -0.09765625 66.6015625 C-0.09579005 64.68199704 -0.0943671 62.7624311 -0.09336853 60.84286499 C-0.08955925 55.8024564 -0.07974257 50.76207684 -0.06866455 45.72167969 C-0.05841623 40.5735717 -0.05386359 35.42545901 -0.04882812 30.27734375 C-0.03811883 20.18488106 -0.02053494 10.09244749 0 0 Z " transform="translate(318,35)" style="fill: #010101;"/><path d="M0 0 C10.89 0 21.78 0 33 0 C33 10.89 33 21.78 33 33 C39.6 33 46.2 33 53 33 C53 40.92 53 48.84 53 57 C46.4 57 39.8 57 33 57 C33.10810394 65.79708887 33.22020495 74.59410189 33.33933926 83.39104843 C33.39449859 87.47584116 33.44790733 91.56064114 33.49731445 95.64550781 C33.54506122 99.58777263 33.59740759 103.52995201 33.65294075 107.47211456 C33.67331762 108.97597373 33.69203832 110.47985629 33.70907402 111.98375702 C33.73322163 114.09049423 33.76326159 116.19707131 33.79467773 118.30371094 C33.81799416 120.10240631 33.81799416 120.10240631 33.84178162 121.93743896 C33.9736884 124.49069834 34.11035993 126.61086216 35 129 C38.16965142 130.58482571 41.63744541 130.37852823 45.125 130.5625 C47.72375 130.706875 50.3225 130.85125 53 131 C53 139.25 53 147.5 53 156 C47.63509784 157.07298043 42.75578978 157.18385413 37.3125 157.1875 C35.89807617 157.20586914 35.89807617 157.20586914 34.45507812 157.22460938 C23.64024678 157.246908 13.49515177 155.88457935 5.1875 148.5 C-1.59992038 139.28014956 -0.40009135 126.05284965 -0.29296875 115.203125 C-0.28736044 113.51634095 -0.28309619 111.82955195 -0.28010559 110.14276123 C-0.26875389 105.74346985 -0.23937235 101.34448452 -0.20599365 96.9453125 C-0.17508185 92.44014626 -0.16155554 87.93492965 -0.14648438 83.4296875 C-0.11449138 74.61963686 -0.0618049 65.80989198 0 57 C-5.28 57 -10.56 57 -16 57 C-16 49.08 -16 41.16 -16 33 C-10.72 33 -5.44 33 0 33 C0 22.11 0 11.22 0 0 Z " transform="translate(461,2)" style="fill: #030303;"/><path d="M0 0 C10.89 0 21.78 0 33 0 C33 10.89 33 21.78 33 33 C39.6 33 46.2 33 53 33 C53 40.92 53 48.84 53 57 C46.4 57 39.8 57 33 57 C33.10810394 65.79708887 33.22020495 74.59410189 33.33933926 83.39104843 C33.39449859 87.47584116 33.44790733 91.56064114 33.49731445 95.64550781 C33.54506122 99.58777263 33.59740759 103.52995201 33.65294075 107.47211456 C33.67331762 108.97597373 33.69203832 110.47985629 33.70907402 111.98375702 C33.73322163 114.09049423 33.76326159 116.19707131 33.79467773 118.30371094 C33.81799416 120.10240631 33.81799416 120.10240631 33.84178162 121.93743896 C33.9736884 124.49069834 34.11035993 126.61086216 35 129 C38.16965142 130.58482571 41.63744541 130.37852823 45.125 130.5625 C47.72375 130.706875 50.3225 130.85125 53 131 C53 139.25 53 147.5 53 156 C47.63509784 157.07298043 42.75578978 157.18385413 37.3125 157.1875 C35.89807617 157.20586914 35.89807617 157.20586914 34.45507812 157.22460938 C23.64024678 157.246908 13.49515177 155.88457935 5.1875 148.5 C-1.59992038 139.28014956 -0.40009135 126.05284965 -0.29296875 115.203125 C-0.28736044 113.51634095 -0.28309619 111.82955195 -0.28010559 110.14276123 C-0.26875389 105.74346985 -0.23937235 101.34448452 -0.20599365 96.9453125 C-0.17508185 92.44014626 -0.16155554 87.93492965 -0.14648438 83.4296875 C-0.11449138 74.61963686 -0.0618049 65.80989198 0 57 C-5.28 57 -10.56 57 -16 57 C-16 49.08 -16 41.16 -16 33 C-10.72 33 -5.44 33 0 33 C0 22.11 0 11.22 0 0 Z " transform="translate(119,2)" style="fill: #030303;"/><path d="M0 0 C0 10.89 0 21.78 0 33 C-4.1765625 33.12375 -4.1765625 33.12375 -8.4375 33.25 C-15.31891559 33.56986557 -21.10115696 34.15064363 -27 38 C-28.6396875 39.0209375 -28.6396875 39.0209375 -30.3125 40.0625 C-38.06369772 48.53473936 -37.60344225 59.79646101 -37.609375 70.60546875 C-37.62438627 72.1816017 -37.6411195 73.75771909 -37.65948486 75.33381653 C-37.7028407 79.44529007 -37.72308613 83.55655157 -37.73822021 87.66821289 C-37.76137952 92.62118346 -37.81377168 97.57392388 -37.86116028 102.52671051 C-37.92961515 110.01786643 -37.96135344 117.50836434 -38 125 C-48.89 125 -59.78 125 -71 125 C-71 84.74 -71 44.48 -71 3 C-60.77 3 -50.54 3 -40 3 C-39.67 8.94 -39.34 14.88 -39 21 C-38.154375 19.659375 -37.30875 18.31875 -36.4375 16.9375 C-26.59321171 2.24039353 -18.12046169 0 0 0 Z " transform="translate(1073,32)" style="fill: #010101;"/><path d="M0 0 C6.9999376 4.29541625 10.60600815 11.77148766 12.4921875 19.5546875 C14.54233861 33.46417428 14.27009072 48.38821311 6.375 60.5 C2.23035475 65.33030261 -2.59480917 68.45015658 -9.00292969 69.25 C-11.23608869 69.41029854 -13.44876118 69.48064421 -15.6875 69.5 C-16.40010986 69.50644531 -17.11271973 69.51289063 -17.84692383 69.51953125 C-24.1154036 69.36811518 -28.89476832 67.8604373 -33.6875 63.625 C-34.450625 62.75875 -35.21375 61.8925 -36 61 C-36.70125 60.278125 -37.4025 59.55625 -38.125 58.8125 C-44.88120687 48.6781897 -45.18280386 34.22374649 -43.50390625 22.55078125 C-41.43595219 12.49141151 -37.7248676 4.80425514 -29 -1 C-20.64768542 -5.21935892 -8.24218178 -4.15708295 0 0 Z " transform="translate(604,63)" style="fill: #FDFDFD;"/><path d="M0 0 C6.79874809 4.96217352 11.68911672 12.39385951 13.328125 20.69921875 C14.12886273 31.64884162 11.82662299 39.79552955 5.328125 48.69921875 C-0.9860674 55.61969191 -8.70864285 59.22873009 -17.984375 59.85546875 C-27.73817352 60.21231504 -35.16454537 56.88581447 -42.671875 50.69921875 C-50.16248429 42.5409682 -53.04699855 34.19498395 -52.8828125 23.2109375 C-52.20879051 15.18508308 -47.58796618 7.29483141 -41.71484375 1.90234375 C-28.38860308 -8.39173126 -14.17067772 -8.9762115 0 0 Z " transform="translate(57.671875,100.30078125)" style="fill: #A98702;"/><path d="M0 0 C6.79874809 4.96217352 11.68911672 12.39385951 13.328125 20.69921875 C14.12886273 31.64884162 11.82662299 39.79552955 5.328125 48.69921875 C-0.9860674 55.61969191 -8.70864285 59.22873009 -17.984375 59.85546875 C-27.73817352 60.21231504 -35.16454537 56.88581447 -42.671875 50.69921875 C-50.16248429 42.5409682 -53.04699855 34.19498395 -52.8828125 23.2109375 C-52.20879051 15.18508308 -47.58796618 7.29483141 -41.71484375 1.90234375 C-28.38860308 -8.39173126 -14.17067772 -8.9762115 0 0 Z " transform="translate(57.671875,10.30078125)" style="fill: #A98702;"/><path d="M0 0 C0.14700056 3.16616599 0.23462106 6.33143982 0.3125 9.5 C0.35439453 10.386875 0.39628906 11.27375 0.43945312 12.1875 C0.58080081 19.8768143 -1.7243906 24.32756568 -6.7734375 29.98828125 C-14.52069734 36.39394244 -20.42655735 37.62126369 -30.515625 37.421875 C-35.38337249 36.83250647 -36.98034182 35.79614172 -40 32 C-42.5258458 27.70782847 -42.54208947 23.87033505 -42 19 C-40.30469685 14.27099648 -38.21118507 11.71387482 -34 9 C-28.01707275 6.49060447 -22.18221565 5.09174377 -15.8125 3.9375 C-11.00919307 3.0574239 -4.59154928 0 0 0 Z " transform="translate(258,99)" style="fill: #FBFBFB;"/><path d="M0 0 C4.83899306 4.1931876 8.08297845 8.91063743 10 15 C10 16.98 10 18.96 10 21 C-5.84 21 -21.68 21 -38 21 C-37.0206851 12.18616592 -36.08011522 6.52314732 -29.625 0.625 C-20.80219818 -6.23925174 -9.37059083 -5.61292101 0 0 Z " transform="translate(938,63)" style="fill: #F6F6F6;"/></svg>