<svg viewBox="0 0 431 387" xmlns="http://www.w3.org/2000/svg" xmlns:xlink="http://www.w3.org/1999/xlink"><clipPath id="a"><path d="m72 697h226v22h-226z" transform="matrix(1 0 0 -1 0 792)"/></clipPath><clipPath id="b"><path d="m297 697h78v22h-78z" transform="matrix(1 0 0 -1 0 792)"/></clipPath><clipPath id="c"><path d="m374 697h71v22h-71z" transform="matrix(1 0 0 -1 0 792)"/></clipPath><clipPath id="d"><path d="m374 697h71v22h-71z" transform="matrix(1 0 0 -1 0 792)"/></clipPath><clipPath id="e"><path d="m444 697h56v22h-56z" transform="matrix(1 0 0 -1 0 792)"/></clipPath><clipPath id="f"><path d="m444 697h56v22h-56z" transform="matrix(1 0 0 -1 0 792)"/></clipPath><clipPath id="g"><path d="m72 676h226v21h-226z" transform="matrix(1 0 0 -1 0 792)"/></clipPath><clipPath id="h"><path d="m297 676h78v21h-78z" transform="matrix(1 0 0 -1 0 792)"/></clipPath><clipPath id="i"><path d="m374 676h71v21h-71z" transform="matrix(1 0 0 -1 0 792)"/></clipPath><clipPath id="j"><path d="m374 676h71v21h-71z" transform="matrix(1 0 0 -1 0 792)"/></clipPath><clipPath id="k"><path d="m444 676h56v21h-56z" transform="matrix(1 0 0 -1 0 792)"/></clipPath><clipPath id="l"><path d="m444 676h56v21h-56z" transform="matrix(1 0 0 -1 0 792)"/></clipPath><clipPath id="m"><path d="m72 659h226v18h-226z" transform="matrix(1 0 0 -1 0 792)"/></clipPath><clipPath id="n"><path d="m297 659h78v18h-78z" transform="matrix(1 0 0 -1 0 792)"/></clipPath><clipPath id="o"><path d="m374 659h71v18h-71z" transform="matrix(1 0 0 -1 0 792)"/></clipPath><clipPath id="p"><path d="m374 659h71v18h-71z" transform="matrix(1 0 0 -1 0 792)"/></clipPath><clipPath id="q"><path d="m444 659h56v18h-56z" transform="matrix(1 0 0 -1 0 792)"/></clipPath><clipPath id="r"><path d="m444 659h56v18h-56z" transform="matrix(1 0 0 -1 0 792)"/></clipPath><clipPath id="s"><path d="m72 642h226v18h-226z" transform="matrix(1 0 0 -1 0 792)"/></clipPath><clipPath id="t"><path d="m297 642h78v18h-78z" transform="matrix(1 0 0 -1 0 792)"/></clipPath><clipPath id="u"><path d="m374 642h71v18h-71z" transform="matrix(1 0 0 -1 0 792)"/></clipPath><clipPath id="v"><path d="m374 642h71v18h-71z" transform="matrix(1 0 0 -1 0 792)"/></clipPath><clipPath id="w"><path d="m444 642h56v18h-56z" transform="matrix(1 0 0 -1 0 792)"/></clipPath><clipPath id="x"><path d="m444 642h56v18h-56z" transform="matrix(1 0 0 -1 0 792)"/></clipPath><clipPath id="y"><path d="m72 625h226v18h-226z" transform="matrix(1 0 0 -1 0 792)"/></clipPath><clipPath id="z"><path d="m297 625h78v18h-78z" transform="matrix(1 0 0 -1 0 792)"/></clipPath><clipPath id="A"><path d="m374 625h71v18h-71z" transform="matrix(1 0 0 -1 0 792)"/></clipPath><clipPath id="B"><path d="m374 625h71v18h-71z" transform="matrix(1 0 0 -1 0 792)"/></clipPath><clipPath id="C"><path d="m444 625h56v18h-56z" transform="matrix(1 0 0 -1 0 792)"/></clipPath><clipPath id="D"><path d="m444 625h56v18h-56z" transform="matrix(1 0 0 -1 0 792)"/></clipPath><clipPath id="E"><path d="m72 608h226v18h-226z" transform="matrix(1 0 0 -1 0 792)"/></clipPath><clipPath id="F"><path d="m297 608h78v18h-78z" transform="matrix(1 0 0 -1 0 792)"/></clipPath><clipPath id="G"><path d="m374 608h71v18h-71z" transform="matrix(1 0 0 -1 0 792)"/></clipPath><clipPath id="H"><path d="m374 608h71v18h-71z" transform="matrix(1 0 0 -1 0 792)"/></clipPath><clipPath id="I"><path d="m444 608h56v18h-56z" transform="matrix(1 0 0 -1 0 792)"/></clipPath><clipPath id="J"><path d="m444 608h56v18h-56z" transform="matrix(1 0 0 -1 0 792)"/></clipPath><clipPath id="K"><path d="m72 591h226v18h-226z" transform="matrix(1 0 0 -1 0 792)"/></clipPath><clipPath id="L"><path d="m297 591h78v18h-78z" transform="matrix(1 0 0 -1 0 792)"/></clipPath><clipPath id="M"><path d="m374 591h71v18h-71z" transform="matrix(1 0 0 -1 0 792)"/></clipPath><clipPath id="N"><path d="m374 591h71v18h-71z" transform="matrix(1 0 0 -1 0 792)"/></clipPath><clipPath id="O"><path d="m444 591h56v18h-56z" transform="matrix(1 0 0 -1 0 792)"/></clipPath><clipPath id="P"><path d="m444 591h56v18h-56z" transform="matrix(1 0 0 -1 0 792)"/></clipPath><clipPath id="Q"><path d="m72 574h226v18h-226z" transform="matrix(1 0 0 -1 0 792)"/></clipPath><clipPath id="R"><path d="m297 574h78v18h-78z" transform="matrix(1 0 0 -1 0 792)"/></clipPath><clipPath id="S"><path d="m374 574h71v18h-71z" transform="matrix(1 0 0 -1 0 792)"/></clipPath><clipPath id="T"><path d="m374 574h71v18h-71z" transform="matrix(1 0 0 -1 0 792)"/></clipPath><clipPath id="U"><path d="m444 574h56v18h-56z" transform="matrix(1 0 0 -1 0 792)"/></clipPath><clipPath id="V"><path d="m444 574h56v18h-56z" transform="matrix(1 0 0 -1 0 792)"/></clipPath><clipPath id="W"><path d="m72 557h226v18h-226z" transform="matrix(1 0 0 -1 0 792)"/></clipPath><clipPath id="X"><path d="m297 557h78v18h-78z" transform="matrix(1 0 0 -1 0 792)"/></clipPath><clipPath id="Y"><path d="m374 557h71v18h-71z" transform="matrix(1 0 0 -1 0 792)"/></clipPath><clipPath id="Z"><path d="m374 557h71v18h-71z" transform="matrix(1 0 0 -1 0 792)"/></clipPath><clipPath id="aa"><path d="m444 557h56v18h-56z" transform="matrix(1 0 0 -1 0 792)"/></clipPath><clipPath id="ab"><path d="m444 557h56v18h-56z" transform="matrix(1 0 0 -1 0 792)"/></clipPath><clipPath id="ac"><path d="m72 540h226v18h-226z" transform="matrix(1 0 0 -1 0 792)"/></clipPath><clipPath id="ad"><path d="m297 540h78v18h-78z" transform="matrix(1 0 0 -1 0 792)"/></clipPath><clipPath id="ae"><path d="m374 540h71v18h-71z" transform="matrix(1 0 0 -1 0 792)"/></clipPath><clipPath id="af"><path d="m374 540h71v18h-71z" transform="matrix(1 0 0 -1 0 792)"/></clipPath><clipPath id="ag"><path d="m444 540h56v18h-56z" transform="matrix(1 0 0 -1 0 792)"/></clipPath><clipPath id="ah"><path d="m444 540h56v18h-56z" transform="matrix(1 0 0 -1 0 792)"/></clipPath><clipPath id="ai"><path d="m72 523h226v18h-226z" transform="matrix(1 0 0 -1 0 792)"/></clipPath><clipPath id="aj"><path d="m297 523h78v18h-78z" transform="matrix(1 0 0 -1 0 792)"/></clipPath><clipPath id="ak"><path d="m374 523h71v18h-71z" transform="matrix(1 0 0 -1 0 792)"/></clipPath><clipPath id="al"><path d="m374 523h71v18h-71z" transform="matrix(1 0 0 -1 0 792)"/></clipPath><clipPath id="am"><path d="m444 523h56v18h-56z" transform="matrix(1 0 0 -1 0 792)"/></clipPath><clipPath id="an"><path d="m444 523h56v18h-56z" transform="matrix(1 0 0 -1 0 792)"/></clipPath><clipPath id="ao"><path d="m72 506h226v18h-226z" transform="matrix(1 0 0 -1 0 792)"/></clipPath><clipPath id="ap"><path d="m297 506h78v18h-78z" transform="matrix(1 0 0 -1 0 792)"/></clipPath><clipPath id="aq"><path d="m374 506h71v18h-71z" transform="matrix(1 0 0 -1 0 792)"/></clipPath><clipPath id="ar"><path d="m374 506h71v18h-71z" transform="matrix(1 0 0 -1 0 792)"/></clipPath><clipPath id="as"><path d="m444 506h56v18h-56z" transform="matrix(1 0 0 -1 0 792)"/></clipPath><clipPath id="at"><path d="m444 506h56v18h-56z" transform="matrix(1 0 0 -1 0 792)"/></clipPath><clipPath id="au"><path d="m72 489h226v18h-226z" transform="matrix(1 0 0 -1 0 792)"/></clipPath><clipPath id="av"><path d="m297 489h78v18h-78z" transform="matrix(1 0 0 -1 0 792)"/></clipPath><clipPath id="aw"><path d="m374 489h71v18h-71z" transform="matrix(1 0 0 -1 0 792)"/></clipPath><clipPath id="ax"><path d="m374 489h71v18h-71z" transform="matrix(1 0 0 -1 0 792)"/></clipPath><clipPath id="ay"><path d="m444 489h56v18h-56z" transform="matrix(1 0 0 -1 0 792)"/></clipPath><clipPath id="az"><path d="m444 489h56v18h-56z" transform="matrix(1 0 0 -1 0 792)"/></clipPath><clipPath id="aA"><path d="m72 472h226v18h-226z" transform="matrix(1 0 0 -1 0 792)"/></clipPath><clipPath id="aB"><path d="m297 472h78v18h-78z" transform="matrix(1 0 0 -1 0 792)"/></clipPath><clipPath id="aC"><path d="m374 472h71v18h-71z" transform="matrix(1 0 0 -1 0 792)"/></clipPath><clipPath id="aD"><path d="m374 472h71v18h-71z" transform="matrix(1 0 0 -1 0 792)"/></clipPath><clipPath id="aE"><path d="m444 472h56v18h-56z" transform="matrix(1 0 0 -1 0 792)"/></clipPath><clipPath id="aF"><path d="m444 472h56v18h-56z" transform="matrix(1 0 0 -1 0 792)"/></clipPath><clipPath id="aG"><path d="m72 438h226v35h-226z" transform="matrix(1 0 0 -1 0 792)"/></clipPath><clipPath id="aH"><path d="m297 438h78v35h-78z" transform="matrix(1 0 0 -1 0 792)"/></clipPath><clipPath id="aI"><path d="m374 438h71v35h-71z" transform="matrix(1 0 0 -1 0 792)"/></clipPath><clipPath id="aJ"><path d="m374 438h71v35h-71z" transform="matrix(1 0 0 -1 0 792)"/></clipPath><clipPath id="aK"><path d="m444 438h56v35h-56z" transform="matrix(1 0 0 -1 0 792)"/></clipPath><clipPath id="aL"><path d="m444 438h56v35h-56z" transform="matrix(1 0 0 -1 0 792)"/></clipPath><clipPath id="aM"><path d="m72 421h226v18h-226z" transform="matrix(1 0 0 -1 0 792)"/></clipPath><clipPath id="aN"><path d="m297 421h78v18h-78z" transform="matrix(1 0 0 -1 0 792)"/></clipPath><clipPath id="aO"><path d="m374 421h71v18h-71z" transform="matrix(1 0 0 -1 0 792)"/></clipPath><clipPath id="aP"><path d="m374 421h71v18h-71z" transform="matrix(1 0 0 -1 0 792)"/></clipPath><clipPath id="aQ"><path d="m444 421h56v18h-56z" transform="matrix(1 0 0 -1 0 792)"/></clipPath><clipPath id="aR"><path d="m444 421h56v18h-56z" transform="matrix(1 0 0 -1 0 792)"/></clipPath><clipPath id="aS"><path d="m72 404h226v18h-226z" transform="matrix(1 0 0 -1 0 792)"/></clipPath><clipPath id="aT"><path d="m297 404h78v18h-78z" transform="matrix(1 0 0 -1 0 792)"/></clipPath><clipPath id="aU"><path d="m374 404h71v18h-71z" transform="matrix(1 0 0 -1 0 792)"/></clipPath><clipPath id="aV"><path d="m374 404h71v18h-71z" transform="matrix(1 0 0 -1 0 792)"/></clipPath><clipPath id="aW"><path d="m444 404h56v18h-56z" transform="matrix(1 0 0 -1 0 792)"/></clipPath><clipPath id="aX"><path d="m444 404h56v18h-56z" transform="matrix(1 0 0 -1 0 792)"/></clipPath><clipPath id="aY"><path d="m72 387h226v18h-226z" transform="matrix(1 0 0 -1 0 792)"/></clipPath><clipPath id="aZ"><path d="m297 387h78v18h-78z" transform="matrix(1 0 0 -1 0 792)"/></clipPath><clipPath id="a0"><path d="m374 387h71v18h-71z" transform="matrix(1 0 0 -1 0 792)"/></clipPath><clipPath id="a1"><path d="m374 387h71v18h-71z" transform="matrix(1 0 0 -1 0 792)"/></clipPath><clipPath id="a2"><path d="m444 387h56v18h-56z" transform="matrix(1 0 0 -1 0 792)"/></clipPath><clipPath id="a3"><path d="m444 387h56v18h-56z" transform="matrix(1 0 0 -1 0 792)"/></clipPath><clipPath id="a4"><path d="m72 353h226v35h-226z" transform="matrix(1 0 0 -1 0 792)"/></clipPath><clipPath id="a5"><path d="m297 353h78v35h-78z" transform="matrix(1 0 0 -1 0 792)"/></clipPath><clipPath id="a6"><path d="m374 353h71v35h-71z" transform="matrix(1 0 0 -1 0 792)"/></clipPath><clipPath id="a7"><path d="m374 353h71v35h-71z" transform="matrix(1 0 0 -1 0 792)"/></clipPath><clipPath id="a8"><path d="m444 353h56v35h-56z" transform="matrix(1 0 0 -1 0 792)"/></clipPath><clipPath id="a9"><path d="m444 353h56v35h-56z" transform="matrix(1 0 0 -1 0 792)"/></clipPath><clipPath id="ba"><path d="m72 336h226v18h-226z" transform="matrix(1 0 0 -1 0 792)"/></clipPath><clipPath id="bb"><path d="m297 336h78v18h-78z" transform="matrix(1 0 0 -1 0 792)"/></clipPath><clipPath id="bc"><path d="m374 336h71v18h-71z" transform="matrix(1 0 0 -1 0 792)"/></clipPath><clipPath id="bd"><path d="m374 336h71v18h-71z" transform="matrix(1 0 0 -1 0 792)"/></clipPath><clipPath id="be"><path d="m444 336h56v18h-56z" transform="matrix(1 0 0 -1 0 792)"/></clipPath><clipPath id="bf"><path d="m444 336h56v18h-56z" transform="matrix(1 0 0 -1 0 792)"/></clipPath><g enable-background="new" transform="translate(-71.279999 -72)"><g clip-path="url(#a)"><text font-family="Calibri" font-size="50" transform="matrix(.24 0 0 .24 18 208.08002)"><tspan x="225 257.275 281.225 321.165" y="-500">Name</tspan></text><text transform="matrix(.24 0 0 .24 18 208.08002)"><tspan x="346.0449" y="-500"/></text></g><g clip-path="url(#b)"><text font-family="Calibri" font-size="50" transform="matrix(.24 0 0 .24 18 208.08002)"><tspan x="1164 1188.365 1200.965 1227.625" y="-500">TIC%</tspan></text><text transform="matrix(.24 0 0 .24 18 208.08002)"><tspan x="1263.366" y="-500"/></text></g><g clip-path="url(#c)"><text font-family="Calibri" font-size="50" transform="matrix(.24 0 0 .24 18 208.08002)"><tspan x="1487 1511.365 1523.965" y="-500">TIC</tspan></text></g><g clip-path="url(#d)"><text transform="matrix(.24 0 0 .24 18 208.08002)"><tspan x="1550.623" y="-500"/></text></g><g clip-path="url(#e)"><text font-family="Calibri" font-size="50" transform="matrix(.24 0 0 .24 18 208.08002)"><tspan x="1836.008 1863.1581 1887.5231 1898.8281 1913.9882 1953.9281 1965.4031 1991.6731" y="-500">RT (min)</tspan></text></g><g clip-path="url(#f)"><text transform="matrix(.24 0 0 .24 18 208.08002)"><tspan x="2006.833" y="-500"/></text></g><g transform="matrix(1 0 0 -1 0 792)"><path d="m72 720h225.36v-1.44h-225.36z"/><path d="m297.36 720h1.44v-1.44h-1.44z"/><path d="m298.8 720h76.08v-1.44h-76.08z"/><path d="m374.88 720h1.44v-1.44h-1.44z"/><path d="m376.32 720h67.92v-1.44h-67.92z"/><path d="m444.24 720h1.44v-1.44h-1.44z"/><path d="m445.68 720h54v-1.44h-54z"/></g><g clip-path="url(#g)"><text font-family="Calibri" font-size="50" transform="matrix(.24 0 0 .24 18 208.08002)"><tspan x="225 249.41501 275.68003 299.19505 324.06007 350.32508 376.69007" y="-412">Eugenol</tspan></text><text transform="matrix(.24 0 0 .24 18 208.08002)"><tspan x="388.208" y="-412"/></text></g><g clip-path="url(#h)"><text font-family="Calibri" font-size="50" transform="matrix(.24 0 0 .24 18 208.08002)"><tspan x="1164 1189.34 1214.6799 1227.32 1252.6599" y="-412">46.14</tspan></text><text transform="matrix(.24 0 0 .24 18 208.08002)"><tspan x="1277.99" y="-412"/></text></g><g clip-path="url(#i)"><text font-family="Calibri" font-size="50" transform="matrix(.24 0 0 .24 18 208.08002)"><tspan x="1487 1512.34 1537.6799 1563.0199 1588.3599 1613.6998 1639.0398 1664.3798 1689.7197" y="-412">157457520</tspan></text></g><g clip-path="url(#j)"><text transform="matrix(.24 0 0 .24 18 208.08002)"><tspan x="1715.076" y="-412"/></text></g><g clip-path="url(#k)"><text font-family="Calibri" font-size="50" transform="matrix(.24 0 0 .24 18 208.08002)"><tspan x="1892.844 1918.184 1943.5239 1956.164 1981.5039" y="-412">15.68</tspan></text></g><g clip-path="url(#l)"><text transform="matrix(.24 0 0 .24 18 208.08002)"><tspan x="2006.833" y="-412"/></text></g><path d="m72 697.92h225.36v-1.44h-225.36z" transform="matrix(1 0 0 -1 0 792)"/><path d="m297.36 697.92h1.44v-1.44h-1.44z" transform="matrix(1 0 0 -1 0 792)"/><path d="m298.8 697.92h76.08v-1.44h-76.08z" transform="matrix(1 0 0 -1 0 792)"/><path d="m374.88 697.92h1.44v-1.44h-1.44z" transform="matrix(1 0 0 -1 0 792)"/><path d="m376.32 697.92h67.92v-1.44h-67.92z" transform="matrix(1 0 0 -1 0 792)"/><path d="m444.24 697.92h1.44v-1.44h-1.44z" transform="matrix(1 0 0 -1 0 792)"/><path d="m445.68 697.92h54v-1.44h-54z" transform="matrix(1 0 0 -1 0 792)"/><g clip-path="url(#m)"><text font-family="Calibri" font-size="50" transform="matrix(.24 0 0 .24 18 208.08002)"><tspan x="225 251.66 275.61003 293.04005 315.67005 342.03507 368.30506 394.57505 417.20506 428.68006 440.15507 465.03507 491.30506" y="-339">Caryophyllene</tspan></text><text transform="matrix(.24 0 0 .24 18 208.08002)"><tspan x="516.1865" y="-339"/></text></g><g clip-path="url(#n)"><text font-family="Calibri" font-size="50" transform="matrix(.24 0 0 .24 18 208.08002)"><tspan x="1164 1189.34 1214.6799 1227.32 1252.6599" y="-339">32.41</tspan></text><text transform="matrix(.24 0 0 .24 18 208.08002)"><tspan x="1277.99" y="-339"/></text></g><g clip-path="url(#o)"><text font-family="Calibri" font-size="50" transform="matrix(.24 0 0 .24 18 208.08002)"><tspan x="1487 1512.34 1537.6799 1563.0199 1588.3599 1613.6998 1639.0398 1664.3798 1689.7197" y="-339">110600200</tspan></text></g><g clip-path="url(#p)"><text transform="matrix(.24 0 0 .24 18 208.08002)"><tspan x="1715.076" y="-339"/></text></g><g clip-path="url(#q)"><text font-family="Calibri" font-size="50" transform="matrix(.24 0 0 .24 18 208.08002)"><tspan x="1892.844 1918.184 1943.5239 1956.164 1981.5039" y="-339">17.01</tspan></text></g><g clip-path="url(#r)"><text transform="matrix(.24 0 0 .24 18 208.08002)"><tspan x="2006.833" y="-339"/></text></g><g clip-path="url(#s)"><text font-family="Calibri" font-size="50" transform="matrix(.24 0 0 .24 18 208.08002)"><tspan x="225 249.415 275.685 299.21998 324.09999 350.36997 376.735 388.21 399.51499 423.465 444.61 469.49 486.24 510.19 526.94" y="-268">Eugenol acetate</tspan></text><text transform="matrix(.24 0 0 .24 18 208.08002)"><tspan x="551.8066" y="-268"/></text></g><g clip-path="url(#t)"><text font-family="Calibri" font-size="50" transform="matrix(.24 0 0 .24 18 208.08002)"><tspan x="1164 1189.34 1201.98 1227.32" y="-268">9.28</tspan></text><text transform="matrix(.24 0 0 .24 18 208.08002)"><tspan x="1252.648" y="-268"/></text></g><g clip-path="url(#u)"><text font-family="Calibri" font-size="50" transform="matrix(.24 0 0 .24 18 208.08002)"><tspan x="1487 1512.34 1537.6799 1563.0199 1588.3599 1613.6998 1639.0398 1664.3798" y="-268">31669968</tspan></text></g><g clip-path="url(#v)"><text transform="matrix(.24 0 0 .24 18 208.08002)"><tspan x="1689.734" y="-268"/></text></g><g clip-path="url(#w)"><text font-family="Calibri" font-size="50" transform="matrix(.24 0 0 .24 18 208.08002)"><tspan x="1892.844 1918.184 1943.5239 1956.164 1981.5039" y="-268">19.16</tspan></text></g><g clip-path="url(#x)"><text transform="matrix(.24 0 0 .24 18 208.08002)"><tspan x="2006.833" y="-268"/></text></g><g clip-path="url(#y)"><text font-family="Calibri" font-size="50" transform="matrix(.24 0 0 .24 18 208.08002)"><tspan x="225 256.15 282.41999 322.36 348.62998 360.10499 384.985 411.25498" y="-197">Humulene</tspan></text><text transform="matrix(.24 0 0 .24 18 208.08002)"><tspan x="436.1328" y="-197"/></text></g><g clip-path="url(#z)"><text font-family="Calibri" font-size="50" transform="matrix(.24 0 0 .24 18 208.08002)"><tspan x="1164 1189.34 1201.98 1227.32" y="-197">3.71</tspan></text><text transform="matrix(.24 0 0 .24 18 208.08002)"><tspan x="1252.648" y="-197"/></text></g><g clip-path="url(#A)"><text font-family="Calibri" font-size="50" transform="matrix(.24 0 0 .24 18 208.08002)"><tspan x="1487 1512.34 1537.6799 1563.0199 1588.3599 1613.6998 1639.0398 1664.3798" y="-197">12666105</tspan></text></g><g clip-path="url(#B)"><text transform="matrix(.24 0 0 .24 18 208.08002)"><tspan x="1689.734" y="-197"/></text></g><g clip-path="url(#C)"><text font-family="Calibri" font-size="50" transform="matrix(.24 0 0 .24 18 208.08002)"><tspan x="1892.844 1918.184 1943.5239 1956.164 1981.5039" y="-197">17.71</tspan></text></g><g clip-path="url(#D)"><text transform="matrix(.24 0 0 .24 18 208.08002)"><tspan x="2006.833" y="-197"/></text></g><g clip-path="url(#E)"><g font-family="Calibri" font-size="50"><text transform="matrix(.24 0 0 .24 18 208.08002)"><tspan x="225" y="-126">α</tspan></text><text transform="matrix(.24 0 0 .24 18 208.08002)"><tspan x="253.3691" y="-126">-</tspan></text><text transform="matrix(.24 0 0 .24 18 208.08002)"><tspan x="268.6768 295.3368 321.7018 347.9718 371.9218 396.80183 423.0718" y="-126">Copaene</tspan></text></g><text transform="matrix(.24 0 0 .24 18 208.08002)"><tspan x="447.9492" y="-126"/></text></g><g clip-path="url(#F)"><text font-family="Calibri" font-size="50" transform="matrix(.24 0 0 .24 18 208.08002)"><tspan x="1164 1189.34 1201.98 1227.32" y="-126">2.70</tspan></text><text transform="matrix(.24 0 0 .24 18 208.08002)"><tspan x="1252.648" y="-126"/></text></g><g clip-path="url(#G)"><text font-family="Calibri" font-size="50" transform="matrix(.24 0 0 .24 18 208.08002)"><tspan x="1487 1512.34 1537.6799 1563.0199 1588.3599 1613.6998 1639.0398" y="-126">9226532</tspan></text></g><g clip-path="url(#H)"><text transform="matrix(.24 0 0 .24 18 208.08002)"><tspan x="1664.392" y="-126"/></text></g><g clip-path="url(#I)"><text font-family="Calibri" font-size="50" transform="matrix(.24 0 0 .24 18 208.08002)"><tspan x="1892.844 1918.184 1943.5239 1956.164 1981.5039" y="-126">16.06</tspan></text></g><g clip-path="url(#J)"><text transform="matrix(.24 0 0 .24 18 208.08002)"><tspan x="2006.833" y="-126"/></text></g><g clip-path="url(#K)"><g font-family="Calibri" font-size="50"><text transform="matrix(.24 0 0 .24 18 208.08002)"><tspan x="225" y="-55">α</tspan></text><text transform="matrix(.24 0 0 .24 18 208.08002)"><tspan x="253.3691" y="-55">-</tspan></text><text transform="matrix(.24 0 0 .24 18 208.08002)"><tspan x="268.6768 295.3368 321.5968 347.8568 372.71684 398.97685 423.83686 450.09687" y="-55">Cubebene</tspan></text></g><text transform="matrix(.24 0 0 .24 18 208.08002)"><tspan x="475.0488" y="-55"/></text></g><g clip-path="url(#L)"><text font-family="Calibri" font-size="50" transform="matrix(.24 0 0 .24 18 208.08002)"><tspan x="1164 1189.34 1201.98 1227.32" y="-55">1.32</tspan></text><text transform="matrix(.24 0 0 .24 18 208.08002)"><tspan x="1252.648" y="-55"/></text></g><g clip-path="url(#M)"><text font-family="Calibri" font-size="50" transform="matrix(.24 0 0 .24 18 208.08002)"><tspan x="1487 1512.34 1537.6799 1563.0199 1588.3599 1613.6998 1639.0398" y="-55">4517489</tspan></text></g><g clip-path="url(#N)"><text transform="matrix(.24 0 0 .24 18 208.08002)"><tspan x="1664.392" y="-55"/></text></g><g clip-path="url(#O)"><text font-family="Calibri" font-size="50" transform="matrix(.24 0 0 .24 18 208.08002)"><tspan x="1892.844 1918.184 1943.5239 1956.164 1981.5039" y="-55">15.47</tspan></text></g><g clip-path="url(#P)"><text transform="matrix(.24 0 0 .24 18 208.08002)"><tspan x="2006.833" y="-55"/></text></g><g clip-path="url(#Q)"><text font-family="Calibri" font-size="50" transform="matrix(.24 0 0 .24 18 208.08002)"><tspan x="225 251.66 277.92 304.18003 329.04005 355.30006 380.16007 406.42008" y="16">Cubenene</tspan></text><text transform="matrix(.24 0 0 .24 18 208.08002)"><tspan x="431.3721" y="16"/></text></g><g clip-path="url(#R)"><text font-family="Calibri" font-size="50" transform="matrix(.24 0 0 .24 18 208.08002)"><tspan x="1164 1189.34 1201.98 1227.32" y="16">0.59</tspan></text><text transform="matrix(.24 0 0 .24 18 208.08002)"><tspan x="1252.648" y="16"/></text></g><g clip-path="url(#S)"><text font-family="Calibri" font-size="50" transform="matrix(.24 0 0 .24 18 208.08002)"><tspan x="1487 1512.34 1537.6799 1563.0199 1588.3599 1613.6998 1639.0398" y="16">2005350</tspan></text></g><g clip-path="url(#T)"><text transform="matrix(.24 0 0 .24 18 208.08002)"><tspan x="1664.392" y="16"/></text></g><g clip-path="url(#U)"><text font-family="Calibri" font-size="50" transform="matrix(.24 0 0 .24 18 208.08002)"><tspan x="1892.844 1918.184 1943.5239 1956.164 1981.5039" y="16">19.30</tspan></text></g><g clip-path="url(#V)"><text transform="matrix(.24 0 0 .24 18 208.08002)"><tspan x="2006.833" y="16"/></text></g><g clip-path="url(#W)"><g font-family="Calibri" font-size="50"><text transform="matrix(.24 0 0 .24 18 208.08002)"><tspan x="225" y="86">δ</tspan></text><text transform="matrix(.24 0 0 .24 18 208.08002)"><tspan x="251.1719" y="86">-</tspan></text><text transform="matrix(.24 0 0 .24 18 208.08002)"><tspan x="266.4795 293.1395 317.0895 343.3595 354.8345 381.1045 405.9845 432.2545" y="86">Cadinene</tspan></text></g><text transform="matrix(.24 0 0 .24 18 208.08002)"><tspan x="457.1289" y="86"/></text></g><g clip-path="url(#X)"><text font-family="Calibri" font-size="50" transform="matrix(.24 0 0 .24 18 208.08002)"><tspan x="1164 1189.34 1201.98 1227.32" y="86">0.55</tspan></text><text transform="matrix(.24 0 0 .24 18 208.08002)"><tspan x="1252.648" y="86"/></text></g><g clip-path="url(#Y)"><text font-family="Calibri" font-size="50" transform="matrix(.24 0 0 .24 18 208.08002)"><tspan x="1487 1512.34 1537.6799 1563.0199 1588.3599 1613.6998 1639.0398" y="86">1893799</tspan></text></g><g clip-path="url(#Z)"><text transform="matrix(.24 0 0 .24 18 208.08002)"><tspan x="1664.392" y="86"/></text></g><g clip-path="url(#aa)"><text font-family="Calibri" font-size="50" transform="matrix(.24 0 0 .24 18 208.08002)"><tspan x="1892.844 1918.184 1943.5239 1956.164 1981.5039" y="86">18.11</tspan></text></g><g clip-path="url(#ab)"><text transform="matrix(.24 0 0 .24 18 208.08002)"><tspan x="2006.833" y="86"/></text></g><g clip-path="url(#ac)"><text font-family="Calibri" font-size="50" transform="matrix(.24 0 0 .24 18 208.08002)"><tspan x="225 267.75 292.165 316.53004 347.68003 372.04505 393.06504 417.48005 441.84507 472.99507 497.36009 518.3801 544.3551 568.77017 593.13516 626.2401 658.5151" y="157">METHYLETHYLKETONE</tspan></text><text transform="matrix(.24 0 0 .24 18 208.08002)"><tspan x="682.9346" y="157"/></text></g><g clip-path="url(#ad)"><text font-family="Calibri" font-size="50" transform="matrix(.24 0 0 .24 18 208.08002)"><tspan x="1164 1189.34 1201.98 1227.32" y="157">0.48</tspan></text><text transform="matrix(.24 0 0 .24 18 208.08002)"><tspan x="1252.648" y="157"/></text></g><g clip-path="url(#ae)"><text font-family="Calibri" font-size="50" transform="matrix(.24 0 0 .24 18 208.08002)"><tspan x="1487 1512.34 1537.6799 1563.0199 1588.3599 1613.6998 1639.0398" y="157">1646006</tspan></text></g><g clip-path="url(#af)"><text transform="matrix(.24 0 0 .24 18 208.08002)"><tspan x="1664.392" y="157"/></text></g><g clip-path="url(#ag)"><text font-family="Calibri" font-size="50" transform="matrix(.24 0 0 .24 18 208.08002)"><tspan x="1918.185 1943.525 1956.165 1981.505" y="157">1.71</tspan></text></g><g clip-path="url(#ah)"><text transform="matrix(.24 0 0 .24 18 208.08002)"><tspan x="2006.833" y="157"/></text></g><g clip-path="url(#ai)"><text font-family="Calibri" font-size="50" transform="matrix(.24 0 0 .24 18 208.08002)"><tspan x="225" y="228">C</tspan></text><text font-family="Calibri" font-size="50" transform="matrix(.24 0 0 .24 18 208.08002)"><tspan x="251.6602 277.9302 301.88023 324.4652 335.94023 357.0852 383.45024" y="228">havicol</tspan></text><text transform="matrix(.24 0 0 .24 18 208.08002)"><tspan x="394.9219" y="228"/></text></g><g clip-path="url(#aj)"><text font-family="Calibri" font-size="50" transform="matrix(.24 0 0 .24 18 208.08002)"><tspan x="1164 1189.34 1201.98 1227.32" y="228">0.35</tspan></text><text transform="matrix(.24 0 0 .24 18 208.08002)"><tspan x="1252.648" y="228"/></text></g><g clip-path="url(#ak)"><text font-family="Calibri" font-size="50" transform="matrix(.24 0 0 .24 18 208.08002)"><tspan x="1487 1512.34 1537.6799 1563.0199 1588.3599 1613.6998 1639.0398" y="228">1193463</tspan></text></g><g clip-path="url(#al)"><text transform="matrix(.24 0 0 .24 18 208.08002)"><tspan x="1664.392" y="228"/></text></g><g clip-path="url(#am)"><text font-family="Calibri" font-size="50" transform="matrix(.24 0 0 .24 18 208.08002)"><tspan x="1892.844 1918.184 1943.5239 1956.164 1981.5039" y="228">13.25</tspan></text></g><g clip-path="url(#an)"><text transform="matrix(.24 0 0 .24 18 208.08002)"><tspan x="2006.833" y="228"/></text></g><g clip-path="url(#ao)"><text font-family="Calibri" font-size="50" transform="matrix(.24 0 0 .24 18 208.08002)"><tspan x="225 251.66 275.61003 293.04005 315.67005 342.03507 368.30506 394.57505 417.20506 428.68006 440.15507 465.03507 491.30506 516.18508 527.49008 552.37008 578.6401 605.00509 626.6601 638.13516 664.40518" y="299">Caryophyllene epoxide</tspan></text><text transform="matrix(.24 0 0 .24 18 208.08002)"><tspan x="689.2822" y="299"/></text></g><g clip-path="url(#ap)"><text font-family="Calibri" font-size="50" transform="matrix(.24 0 0 .24 18 208.08002)"><tspan x="1164 1189.34 1201.98 1227.32" y="299">0.31</tspan></text><text transform="matrix(.24 0 0 .24 18 208.08002)"><tspan x="1252.648" y="299"/></text></g><g clip-path="url(#aq)"><text font-family="Calibri" font-size="50" transform="matrix(.24 0 0 .24 18 208.08002)"><tspan x="1487 1512.34 1537.6799 1563.0199 1588.3599 1613.6998 1639.0398" y="299">1071239</tspan></text></g><g clip-path="url(#ar)"><text transform="matrix(.24 0 0 .24 18 208.08002)"><tspan x="1664.392" y="299"/></text></g><g clip-path="url(#as)"><text font-family="Calibri" font-size="50" transform="matrix(.24 0 0 .24 18 208.08002)"><tspan x="1892.844 1918.184 1943.5239 1956.164 1981.5039" y="299">20.31</tspan></text></g><g clip-path="url(#at)"><text transform="matrix(.24 0 0 .24 18 208.08002)"><tspan x="2006.833" y="299"/></text></g><g clip-path="url(#au)"><g font-family="Calibri" font-size="50"><text transform="matrix(.24 0 0 .24 18 208.08002)"><tspan x="225" y="370">α</tspan></text><text transform="matrix(.24 0 0 .24 18 208.08002)"><tspan x="253.3691" y="370">-</tspan></text><text transform="matrix(.24 0 0 .24 18 208.08002)"><tspan x="268.6768 291.6518 315.6018 333.03184 359.30183 384.18183 403.73683 428.61683 454.8868" y="370">Farnesene</tspan></text></g><text transform="matrix(.24 0 0 .24 18 208.08002)"><tspan x="479.7607" y="370"/></text></g><g clip-path="url(#av)"><text font-family="Calibri" font-size="50" transform="matrix(.24 0 0 .24 18 208.08002)"><tspan x="1164 1189.34 1201.98 1227.32" y="370">0.26</tspan></text><text transform="matrix(.24 0 0 .24 18 208.08002)"><tspan x="1252.648" y="370"/></text></g><g clip-path="url(#aw)"><text font-family="Calibri" font-size="50" transform="matrix(.24 0 0 .24 18 208.08002)"><tspan x="1487 1512.34 1537.6799 1563.0199 1588.3599 1613.6998" y="370">875954</tspan></text></g><g clip-path="url(#ax)"><text transform="matrix(.24 0 0 .24 18 208.08002)"><tspan x="1639.05" y="370"/></text></g><g clip-path="url(#ay)"><text font-family="Calibri" font-size="50" transform="matrix(.24 0 0 .24 18 208.08002)"><tspan x="1892.844 1918.184 1943.5239 1956.164 1981.5039" y="370">18.77</tspan></text></g><g clip-path="url(#az)"><text transform="matrix(.24 0 0 .24 18 208.08002)"><tspan x="2006.833" y="370"/></text></g><g clip-path="url(#aA)"><g font-family="Calibri" font-size="50"><text transform="matrix(.24 0 0 .24 18 208.08002)"><tspan x="225" y="441">2</tspan></text><text transform="matrix(.24 0 0 .24 18 208.08002)"><tspan x="250.3418" y="441">-</tspan></text><text transform="matrix(.24 0 0 .24 18 208.08002)"><tspan x="265.6494 291.47944 316.35945 342.62944 359.37944 383.32945 409.59944 435.96446 462.23445 487.11445 499.58946 510.89445" y="441">Pentanone, 4</tspan></text><text transform="matrix(.24 0 0 .24 18 208.08002)"><tspan x="536.2305" y="441">-</tspan></text><text transform="matrix(.24 0 0 .24 18 208.08002)"><tspan x="551.5381 577.8081 600.4281 626.6981 644.1181 670.4881 692.1581" y="441">hydroxy</tspan></text><text transform="matrix(.24 0 0 .24 18 208.08002)"><tspan x="714.7949" y="441">-</tspan></text><text transform="matrix(.24 0 0 .24 18 208.08002)"><tspan x="730.1025" y="441">4</tspan></text><text transform="matrix(.24 0 0 .24 18 208.08002)"><tspan x="755.4443" y="441">-</tspan></text><text transform="matrix(.24 0 0 .24 18 208.08002)"><tspan x="770.752 810.692 835.572 852.322 878.59207 901.22207" y="441">methyl</tspan></text><text transform="matrix(.24 0 0 .24 18 208.08002)"><tspan x="912.6953" y="441">-</tspan></text></g><text transform="matrix(.24 0 0 .24 18 208.08002)"><tspan x="928.0029" y="441"/></text></g><g clip-path="url(#aB)"><text font-family="Calibri" font-size="50" transform="matrix(.24 0 0 .24 18 208.08002)"><tspan x="1164 1189.34 1201.98 1227.32" y="441">0.22</tspan></text><text transform="matrix(.24 0 0 .24 18 208.08002)"><tspan x="1252.648" y="441"/></text></g><g clip-path="url(#aC)"><text font-family="Calibri" font-size="50" transform="matrix(.24 0 0 .24 18 208.08002)"><tspan x="1487 1512.34 1537.6799 1563.0199 1588.3599 1613.6998" y="441">749510</tspan></text></g><g clip-path="url(#aD)"><text transform="matrix(.24 0 0 .24 18 208.08002)"><tspan x="1639.05" y="441"/></text></g><g clip-path="url(#aE)"><text font-family="Calibri" font-size="50" transform="matrix(.24 0 0 .24 18 208.08002)"><tspan x="1918.185 1943.525 1956.165 1981.505" y="441">3.97</tspan></text></g><g clip-path="url(#aF)"><text transform="matrix(.24 0 0 .24 18 208.08002)"><tspan x="2006.833" y="441"/></text></g><g clip-path="url(#aG)"><g font-family="Calibri" font-size="50"><text transform="matrix(.24 0 0 .24 18 208.08002)"><tspan x="225" y="511">8</tspan></text><text transform="matrix(.24 0 0 .24 18 208.08002)"><tspan x="250.3418" y="511">-</tspan></text><text transform="matrix(.24 0 0 .24 18 208.08002)"><tspan x="265.6494 278.24943 301.22444 334.32945 360.15946 387.30946 420.41447 446.24449 470.6095" y="511">ISOPROPYL</tspan></text><text transform="matrix(.24 0 0 .24 18 208.08002)"><tspan x="491.626" y="511">-</tspan></text><text transform="matrix(.24 0 0 .24 18 208.08002)"><tspan x="506.9336" y="511">1</tspan></text><text transform="matrix(.24 0 0 .24 18 208.08002)"><tspan x="532.2754" y="511">-</tspan></text><text transform="matrix(.24 0 0 .24 18 208.08002)"><tspan x="547.583 590.333 614.74807 639.11306 670.26309 694.62808" y="511">METHYL</tspan></text><text transform="matrix(.24 0 0 .24 18 208.08002)"><tspan x="715.6494" y="511">-</tspan></text><text transform="matrix(.24 0 0 .24 18 208.08002)"><tspan x="730.957" y="511">5</tspan></text><text transform="matrix(.24 0 0 .24 18 208.08002)"><tspan x="756.2988" y="511">-</tspan></text><text transform="matrix(.24 0 0 .24 18 208.08002)"><tspan x="771.6064 814.3564 838.7714 863.1364 894.28646 918.6514 939.67147 964.0865 996.36148" y="511">METHYLENE</tspan></text><text transform="matrix(.24 0 0 .24 18 208.08002)"><tspan x="1020.776" y="511">-</tspan></text><text transform="matrix(.24 0 0 .24 18 208.08002)"><tspan x="1036.084 1061.424 1073.914" y="511">1,6</tspan></text><text transform="matrix(.24 0 0 .24 18 208.08002)"><tspan x="1099.243" y="511">-</tspan></text><text transform="matrix(.24 0 0 .24 18 208.08002)"><tspan x="225 251.66 276.02503 302.68504 323.70503 356.81004 387.57005 411.98506 438.64506 467.57508 498.33509 510.9351 535.3501 567.62509" y="572">CYCLODECADIENE</tspan></text></g><text transform="matrix(.24 0 0 .24 18 208.08002)"><tspan x="592.041" y="572"/></text></g><g clip-path="url(#aH)"><text font-family="Calibri" font-size="50" transform="matrix(.24 0 0 .24 18 208.08002)"><tspan x="1164 1189.34 1201.98 1227.32" y="511">0.20</tspan></text><text transform="matrix(.24 0 0 .24 18 208.08002)"><tspan x="1252.648" y="511"/></text></g><g clip-path="url(#aI)"><text font-family="Calibri" font-size="50" transform="matrix(.24 0 0 .24 18 208.08002)"><tspan x="1487 1512.34 1537.6799 1563.0199 1588.3599 1613.6998" y="511">686359</tspan></text></g><g clip-path="url(#aJ)"><text transform="matrix(.24 0 0 .24 18 208.08002)"><tspan x="1639.05" y="511"/></text></g><g clip-path="url(#aK)"><text font-family="Calibri" font-size="50" transform="matrix(.24 0 0 .24 18 208.08002)"><tspan x="1892.844 1918.184 1943.5239 1956.164 1981.5039" y="511">18.27</tspan></text></g><g clip-path="url(#aL)"><text transform="matrix(.24 0 0 .24 18 208.08002)"><tspan x="2006.833" y="511"/></text></g><g clip-path="url(#aM)"><g font-family="Calibri" font-size="50"><text transform="matrix(.24 0 0 .24 18 208.08002)"><tspan x="225" y="653">γ</tspan></text><text transform="matrix(.24 0 0 .24 18 208.08002)"><tspan x="247.3145" y="653">-</tspan></text><text transform="matrix(.24 0 0 .24 18 208.08002)"><tspan x="262.6221 305.3721 331.6421 357.91209 375.3421 401.70713 413.18214 438.06214 464.33213" y="653">Muurolene</tspan></text></g><text transform="matrix(.24 0 0 .24 18 208.08002)"><tspan x="489.209" y="653"/></text></g><g clip-path="url(#aN)"><text font-family="Calibri" font-size="50" transform="matrix(.24 0 0 .24 18 208.08002)"><tspan x="1164 1189.34 1201.98 1227.32" y="653">0.16</tspan></text><text transform="matrix(.24 0 0 .24 18 208.08002)"><tspan x="1252.648" y="653"/></text></g><g clip-path="url(#aO)"><text font-family="Calibri" font-size="50" transform="matrix(.24 0 0 .24 18 208.08002)"><tspan x="1487 1512.34 1537.6799 1563.0199 1588.3599 1613.6998" y="653">552362</tspan></text></g><g clip-path="url(#aP)"><text transform="matrix(.24 0 0 .24 18 208.08002)"><tspan x="1639.05" y="653"/></text></g><g clip-path="url(#aQ)"><text font-family="Calibri" font-size="50" transform="matrix(.24 0 0 .24 18 208.08002)"><tspan x="1892.844 1918.184 1943.5239 1956.164 1981.5039" y="653">18.93</tspan></text></g><g clip-path="url(#aR)"><text transform="matrix(.24 0 0 .24 18 208.08002)"><tspan x="2006.833" y="653"/></text></g><g clip-path="url(#aS)"><g font-family="Calibri" font-size="50"><text transform="matrix(.24 0 0 .24 18 208.08002)"><tspan x="225 252.19499 277.075 303.345 323.095 349.46003 360.93504 382.08003 393.385 417.33503 438.48 449.95503 476.225 488.7 500.005" y="724">Benzoic acid, 2</tspan></text><text transform="matrix(.24 0 0 .24 18 208.08002)"><tspan x="525.3418" y="724">-</tspan></text><text transform="matrix(.24 0 0 .24 18 208.08002)"><tspan x="540.6494 566.91946 589.5394 615.80947 633.22946 659.5994 681.2694" y="724">hydroxy</tspan></text><text transform="matrix(.24 0 0 .24 18 208.08002)"><tspan x="703.9062" y="724">-</tspan></text><text transform="matrix(.24 0 0 .24 18 208.08002)"><tspan x="719.2139 731.6889 742.9939 782.9339 807.8139 824.5639 850.8339 873.4639 884.93899 896.24398 921.12399 940.67898 957.42898 982.30899" y="724">, methyl ester</tspan></text></g><text transform="matrix(.24 0 0 .24 18 208.08002)"><tspan x="999.7314" y="724"/></text></g><g clip-path="url(#aT)"><text font-family="Calibri" font-size="50" transform="matrix(.24 0 0 .24 18 208.08002)"><tspan x="1164 1189.34 1201.98 1227.32" y="724">0.15</tspan></text><text transform="matrix(.24 0 0 .24 18 208.08002)"><tspan x="1252.648" y="724"/></text></g><g clip-path="url(#aU)"><text font-family="Calibri" font-size="50" transform="matrix(.24 0 0 .24 18 208.08002)"><tspan x="1487 1512.34 1537.6799 1563.0199 1588.3599 1613.6998" y="724">519656</tspan></text></g><g clip-path="url(#aV)"><text transform="matrix(.24 0 0 .24 18 208.08002)"><tspan x="1639.05" y="724"/></text></g><g clip-path="url(#aW)"><text font-family="Calibri" font-size="50" transform="matrix(.24 0 0 .24 18 208.08002)"><tspan x="1892.844 1918.184 1943.5239 1956.164 1981.5039" y="724">11.91</tspan></text></g><g clip-path="url(#aX)"><text transform="matrix(.24 0 0 .24 18 208.08002)"><tspan x="2006.833" y="724"/></text></g><g clip-path="url(#aY)"><text font-family="Calibri" font-size="50" transform="matrix(.24 0 0 .24 18 208.08002)"><tspan x="225 253.93 271.36003 297.72505 337.66505 361.61506 387.88505 414.15504 439.03504 465.30503 491.575 509.00505 533.885 560.155" y="795">Aromandendrene</tspan></text><text transform="matrix(.24 0 0 .24 18 208.08002)"><tspan x="585.0342" y="795"/></text></g><g clip-path="url(#aZ)"><text font-family="Calibri" font-size="50" transform="matrix(.24 0 0 .24 18 208.08002)"><tspan x="1164 1189.34 1201.98 1227.32" y="795">0.14</tspan></text><text transform="matrix(.24 0 0 .24 18 208.08002)"><tspan x="1252.648" y="795"/></text></g><g clip-path="url(#a0)"><text font-family="Calibri" font-size="50" transform="matrix(.24 0 0 .24 18 208.08002)"><tspan x="1487 1512.34 1537.6799 1563.0199 1588.3599 1613.6998" y="795">491894</tspan></text></g><g clip-path="url(#a1)"><text transform="matrix(.24 0 0 .24 18 208.08002)"><tspan x="1639.05" y="795"/></text></g><g clip-path="url(#a2)"><text font-family="Calibri" font-size="50" transform="matrix(.24 0 0 .24 18 208.08002)"><tspan x="1892.844 1918.184 1943.5239 1956.164 1981.5039" y="795">17.85</tspan></text></g><g clip-path="url(#a3)"><text transform="matrix(.24 0 0 .24 18 208.08002)"><tspan x="2006.833" y="795"/></text></g><g clip-path="url(#a4)"><g font-family="Calibri" font-size="50"><text transform="matrix(.24 0 0 .24 18 208.08002)"><tspan x="225 240.15999 265.49998 288.47499 300.94999 326.28999 349.26499 361.74 387.08 411.03 434.005" y="866">(1S,4S,4aS)</tspan></text><text transform="matrix(.24 0 0 .24 18 208.08002)"><tspan x="449.1699" y="866">-</tspan></text><text transform="matrix(.24 0 0 .24 18 208.08002)"><tspan x="464.4775" y="866">1</tspan></text><text transform="matrix(.24 0 0 .24 18 208.08002)"><tspan x="489.8193" y="866">-</tspan></text><text transform="matrix(.24 0 0 .24 18 208.08002)"><tspan x="505.127 517.727 537.282 563.647 589.917 607.347 633.712 659.982 682.612" y="866">Isopropyl</tspan></text><text transform="matrix(.24 0 0 .24 18 208.08002)"><tspan x="694.0918" y="866">-</tspan></text><text transform="matrix(.24 0 0 .24 18 208.08002)"><tspan x="709.3994 734.73947 747.22946" y="866">4,7</tspan></text><text transform="matrix(.24 0 0 .24 18 208.08002)"><tspan x="772.5586" y="866">-</tspan></text><text transform="matrix(.24 0 0 .24 18 208.08002)"><tspan x="787.8662 814.1362 825.61129 865.5513 890.4313 907.1813 933.4513 956.0813" y="866">dimethyl</tspan></text><text transform="matrix(.24 0 0 .24 18 208.08002)"><tspan x="967.5537" y="866">-</tspan></text><text transform="matrix(.24 0 0 .24 18 208.08002)"><tspan x="225 250.34001 262.81504 288.15504 300.63005 325.97004 338.44505 363.78504 376.26005 401.60005 425.55006 438.02507" y="927">1,2,3,4,4a,5</tspan></text><text transform="matrix(.24 0 0 .24 18 208.08002)"><tspan x="463.3789" y="927">-</tspan></text><text transform="matrix(.24 0 0 .24 18 208.08002)"><tspan x="478.6865 504.95649 529.8365 551.4915 575.4415 601.71157 624.34158 650.6116 668.04159 694.40658 720.6766 744.6266 770.8966 797.1666 813.9166 840.18667 864.13668 875.6117 900.4917 926.7617" y="927">hexahydronaphthalene</tspan></text></g><text transform="matrix(.24 0 0 .24 18 208.08002)"><tspan x="951.6357" y="927"/></text></g><g clip-path="url(#a5)"><text font-family="Calibri" font-size="50" transform="matrix(.24 0 0 .24 18 208.08002)"><tspan x="1164 1189.34 1201.98 1227.32" y="866">0.13</tspan></text><text transform="matrix(.24 0 0 .24 18 208.08002)"><tspan x="1252.648" y="866"/></text></g><g clip-path="url(#a6)"><text font-family="Calibri" font-size="50" transform="matrix(.24 0 0 .24 18 208.08002)"><tspan x="1487 1512.34 1537.6799 1563.0199 1588.3599 1613.6998" y="866">458173</tspan></text></g><g clip-path="url(#a7)"><text transform="matrix(.24 0 0 .24 18 208.08002)"><tspan x="1639.05" y="866"/></text></g><g clip-path="url(#a8)"><text font-family="Calibri" font-size="50" transform="matrix(.24 0 0 .24 18 208.08002)"><tspan x="1892.844 1918.184 1943.5239 1956.164 1981.5039" y="866">17.64</tspan></text></g><g clip-path="url(#a9)"><text transform="matrix(.24 0 0 .24 18 208.08002)"><tspan x="2006.833" y="866"/></text></g><g clip-path="url(#ba)"><text font-family="Calibri" font-size="50" transform="matrix(.24 0 0 .24 18 208.08002)"><tspan x="225 247.975 280.05003" y="1007">SUM</tspan></text><text transform="matrix(.24 0 0 .24 18 208.08002)"><tspan x="322.8027" y="1007"/></text></g><g clip-path="url(#bb)"><text font-family="Calibri" font-size="50" transform="matrix(.24 0 0 .24 18 208.08002)"><tspan x="1164 1189.34 1214.6799 1227.32 1252.6599" y="1007">99.13</tspan></text><text transform="matrix(.24 0 0 .24 18 208.08002)"><tspan x="1277.99" y="1007"/></text></g><g clip-path="url(#bc)"><text transform="matrix(.24 0 0 .24 18 208.08002)"><tspan x="1487" y="1007"/></text></g><g clip-path="url(#bd)"><text transform="matrix(.24 0 0 .24 18 208.08002)"><tspan x="1498.303" y="1007"/></text></g><g clip-path="url(#be)"><text transform="matrix(.24 0 0 .24 18 208.08002)"><tspan x="1995.529" y="1007"/></text></g><g clip-path="url(#bf)"><text transform="matrix(.24 0 0 .24 18 208.08002)"><tspan x="2006.833" y="1007"/></text></g><path d="m71.28 336.72h226.08v-1.44h-226.08z" transform="matrix(1 0 0 -1 0 792)"/><path d="m296.64 336.72h1.44v-1.44h-1.44z" transform="matrix(1 0 0 -1 0 792)"/><path d="m298.08 336.72h76.8v-1.44h-76.8z" transform="matrix(1 0 0 -1 0 792)"/><path d="m374.16 336.72h1.44v-1.44h-1.44z" transform="matrix(1 0 0 -1 0 792)"/><path d="m375.6 336.72h68.64v-1.44h-68.64z" transform="matrix(1 0 0 -1 0 792)"/><path d="m443.52 336.72h1.44v-1.44h-1.44z" transform="matrix(1 0 0 -1 0 792)"/><path d="m444.96 336.72h54.72v-1.44h-54.72z" transform="matrix(1 0 0 -1 0 792)"/><text transform="matrix(.24 0 0 .24 18 208.08002)"><tspan x="225" y="1084"/></text></g></svg>