<svg viewBox="0 0 455 252" xmlns="http://www.w3.org/2000/svg" xmlns:xlink="http://www.w3.org/1999/xlink"><clipPath id="a"><path d="m72 697h232v22h-232z" transform="matrix(1 0 0 -1 0 792)"/></clipPath><clipPath id="b"><path d="m303 697h85v22h-85z" transform="matrix(1 0 0 -1 0 792)"/></clipPath><clipPath id="c"><path d="m387 697h77v22h-77z" transform="matrix(1 0 0 -1 0 792)"/></clipPath><clipPath id="d"><path d="m463 697h63v22h-63z" transform="matrix(1 0 0 -1 0 792)"/></clipPath><clipPath id="e"><path d="m463 697h63v22h-63z" transform="matrix(1 0 0 -1 0 792)"/></clipPath><clipPath id="f"><path d="m72 675h232v22h-232z" transform="matrix(1 0 0 -1 0 792)"/></clipPath><clipPath id="g"><path d="m303 675h85v22h-85z" transform="matrix(1 0 0 -1 0 792)"/></clipPath><clipPath id="h"><path d="m387 675h77v22h-77z" transform="matrix(1 0 0 -1 0 792)"/></clipPath><clipPath id="i"><path d="m463 675h63v22h-63z" transform="matrix(1 0 0 -1 0 792)"/></clipPath><clipPath id="j"><path d="m463 675h63v22h-63z" transform="matrix(1 0 0 -1 0 792)"/></clipPath><clipPath id="k"><path d="m72 658h232v18h-232z" transform="matrix(1 0 0 -1 0 792)"/></clipPath><clipPath id="l"><path d="m303 658h85v18h-85z" transform="matrix(1 0 0 -1 0 792)"/></clipPath><clipPath id="m"><path d="m387 658h77v18h-77z" transform="matrix(1 0 0 -1 0 792)"/></clipPath><clipPath id="n"><path d="m463 658h63v18h-63z" transform="matrix(1 0 0 -1 0 792)"/></clipPath><clipPath id="o"><path d="m463 658h63v18h-63z" transform="matrix(1 0 0 -1 0 792)"/></clipPath><clipPath id="p"><path d="m72 641h232v18h-232z" transform="matrix(1 0 0 -1 0 792)"/></clipPath><clipPath id="q"><path d="m303 641h85v18h-85z" transform="matrix(1 0 0 -1 0 792)"/></clipPath><clipPath id="r"><path d="m387 641h77v18h-77z" transform="matrix(1 0 0 -1 0 792)"/></clipPath><clipPath id="s"><path d="m463 641h63v18h-63z" transform="matrix(1 0 0 -1 0 792)"/></clipPath><clipPath id="t"><path d="m463 641h63v18h-63z" transform="matrix(1 0 0 -1 0 792)"/></clipPath><clipPath id="u"><path d="m72 624h232v18h-232z" transform="matrix(1 0 0 -1 0 792)"/></clipPath><clipPath id="v"><path d="m303 624h85v18h-85z" transform="matrix(1 0 0 -1 0 792)"/></clipPath><clipPath id="w"><path d="m387 624h77v18h-77z" transform="matrix(1 0 0 -1 0 792)"/></clipPath><clipPath id="x"><path d="m463 624h63v18h-63z" transform="matrix(1 0 0 -1 0 792)"/></clipPath><clipPath id="y"><path d="m463 624h63v18h-63z" transform="matrix(1 0 0 -1 0 792)"/></clipPath><clipPath id="z"><path d="m72 607h232v18h-232z" transform="matrix(1 0 0 -1 0 792)"/></clipPath><clipPath id="A"><path d="m303 607h85v18h-85z" transform="matrix(1 0 0 -1 0 792)"/></clipPath><clipPath id="B"><path d="m387 607h77v18h-77z" transform="matrix(1 0 0 -1 0 792)"/></clipPath><clipPath id="C"><path d="m463 607h63v18h-63z" transform="matrix(1 0 0 -1 0 792)"/></clipPath><clipPath id="D"><path d="m463 607h63v18h-63z" transform="matrix(1 0 0 -1 0 792)"/></clipPath><clipPath id="E"><path d="m72 590h232v18h-232z" transform="matrix(1 0 0 -1 0 792)"/></clipPath><clipPath id="F"><path d="m303 590h85v18h-85z" transform="matrix(1 0 0 -1 0 792)"/></clipPath><clipPath id="G"><path d="m387 590h77v18h-77z" transform="matrix(1 0 0 -1 0 792)"/></clipPath><clipPath id="H"><path d="m463 590h63v18h-63z" transform="matrix(1 0 0 -1 0 792)"/></clipPath><clipPath id="I"><path d="m463 590h63v18h-63z" transform="matrix(1 0 0 -1 0 792)"/></clipPath><clipPath id="J"><path d="m72 573h232v18h-232z" transform="matrix(1 0 0 -1 0 792)"/></clipPath><clipPath id="K"><path d="m303 573h85v18h-85z" transform="matrix(1 0 0 -1 0 792)"/></clipPath><clipPath id="L"><path d="m387 573h77v18h-77z" transform="matrix(1 0 0 -1 0 792)"/></clipPath><clipPath id="M"><path d="m463 573h63v18h-63z" transform="matrix(1 0 0 -1 0 792)"/></clipPath><clipPath id="N"><path d="m463 573h63v18h-63z" transform="matrix(1 0 0 -1 0 792)"/></clipPath><clipPath id="O"><path d="m72 556h232v18h-232z" transform="matrix(1 0 0 -1 0 792)"/></clipPath><clipPath id="P"><path d="m303 556h85v18h-85z" transform="matrix(1 0 0 -1 0 792)"/></clipPath><clipPath id="Q"><path d="m387 556h77v18h-77z" transform="matrix(1 0 0 -1 0 792)"/></clipPath><clipPath id="R"><path d="m463 556h63v18h-63z" transform="matrix(1 0 0 -1 0 792)"/></clipPath><clipPath id="S"><path d="m463 556h63v18h-63z" transform="matrix(1 0 0 -1 0 792)"/></clipPath><clipPath id="T"><path d="m72 539h232v18h-232z" transform="matrix(1 0 0 -1 0 792)"/></clipPath><clipPath id="U"><path d="m303 539h85v18h-85z" transform="matrix(1 0 0 -1 0 792)"/></clipPath><clipPath id="V"><path d="m387 539h77v18h-77z" transform="matrix(1 0 0 -1 0 792)"/></clipPath><clipPath id="W"><path d="m463 539h63v18h-63z" transform="matrix(1 0 0 -1 0 792)"/></clipPath><clipPath id="X"><path d="m463 539h63v18h-63z" transform="matrix(1 0 0 -1 0 792)"/></clipPath><clipPath id="Y"><path d="m72 522h232v18h-232z" transform="matrix(1 0 0 -1 0 792)"/></clipPath><clipPath id="Z"><path d="m303 522h85v18h-85z" transform="matrix(1 0 0 -1 0 792)"/></clipPath><clipPath id="aa"><path d="m387 522h77v18h-77z" transform="matrix(1 0 0 -1 0 792)"/></clipPath><clipPath id="ab"><path d="m463 522h63v18h-63z" transform="matrix(1 0 0 -1 0 792)"/></clipPath><clipPath id="ac"><path d="m463 522h63v18h-63z" transform="matrix(1 0 0 -1 0 792)"/></clipPath><clipPath id="ad"><path d="m72 505h232v18h-232z" transform="matrix(1 0 0 -1 0 792)"/></clipPath><clipPath id="ae"><path d="m303 505h85v18h-85z" transform="matrix(1 0 0 -1 0 792)"/></clipPath><clipPath id="af"><path d="m387 505h77v18h-77z" transform="matrix(1 0 0 -1 0 792)"/></clipPath><clipPath id="ag"><path d="m463 505h63v18h-63z" transform="matrix(1 0 0 -1 0 792)"/></clipPath><clipPath id="ah"><path d="m463 505h63v18h-63z" transform="matrix(1 0 0 -1 0 792)"/></clipPath><clipPath id="ai"><path d="m72 488h232v18h-232z" transform="matrix(1 0 0 -1 0 792)"/></clipPath><clipPath id="aj"><path d="m303 488h85v18h-85z" transform="matrix(1 0 0 -1 0 792)"/></clipPath><clipPath id="ak"><path d="m387 488h77v18h-77z" transform="matrix(1 0 0 -1 0 792)"/></clipPath><clipPath id="al"><path d="m463 488h63v18h-63z" transform="matrix(1 0 0 -1 0 792)"/></clipPath><clipPath id="am"><path d="m463 488h63v18h-63z" transform="matrix(1 0 0 -1 0 792)"/></clipPath><clipPath id="an"><path d="m72 471h232v18h-232z" transform="matrix(1 0 0 -1 0 792)"/></clipPath><clipPath id="ao"><path d="m303 471h85v18h-85z" transform="matrix(1 0 0 -1 0 792)"/></clipPath><clipPath id="ap"><path d="m387 471h77v18h-77z" transform="matrix(1 0 0 -1 0 792)"/></clipPath><clipPath id="aq"><path d="m463 471h63v18h-63z" transform="matrix(1 0 0 -1 0 792)"/></clipPath><clipPath id="ar"><path d="m463 471h63v18h-63z" transform="matrix(1 0 0 -1 0 792)"/></clipPath><g enable-background="new" transform="translate(-71.279999 -72)"><g clip-path="url(#a)"><text font-family="Calibri" font-size="50" transform="matrix(.24 0 0 .24 18 208.08002)"><tspan x="225 257.275 281.225 321.165" y="-500">Name</tspan></text><text transform="matrix(.24 0 0 .24 18 208.08002)"><tspan x="346.0449" y="-500"/></text></g><g clip-path="url(#b)"><text font-family="Calibri" font-size="50" transform="matrix(.24 0 0 .24 18 208.08002)"><tspan x="1191 1219.9299 1237.3599 1262.2399 1286.1898" y="-500">Area</tspan></text><text font-family="Calibri" font-size="50" transform="matrix(.24 0 0 .24 18 208.08002)"><tspan x="1297.495" y="-500">%</tspan></text><text transform="matrix(.24 0 0 .24 18 208.08002)"><tspan x="1333.237" y="-500"/></text></g><g clip-path="url(#c)"><text font-family="Calibri" font-size="50" transform="matrix(.24 0 0 .24 18 208.08002)"><tspan x="1540 1568.93 1586.3601 1611.2401" y="-500">Area</tspan></text><text transform="matrix(.24 0 0 .24 18 208.08002)"><tspan x="1635.191" y="-500"/></text></g><g clip-path="url(#d)"><text font-family="Calibri" font-size="50" transform="matrix(.24 0 0 .24 18 208.08002)"><tspan x="1942.675 1969.8251 1994.1901 2005.4951 2020.6552 2060.5953 2072.07 2098.34" y="-500">RT (min)</tspan></text></g><g clip-path="url(#e)"><text transform="matrix(.24 0 0 .24 18 208.08002)"><tspan x="2113.5" y="-500"/></text></g><g transform="matrix(1 0 0 -1 0 792)"><path d="m72 720h231.84v-1.44h-231.84z"/><path d="m303.84 720h1.44v-1.44h-1.44z"/><path d="m305.28 720h82.32v-1.44h-82.32z"/><path d="m387.6 720h1.44v-1.44h-1.44z"/><path d="m389.04 720h74.4v-1.44h-74.4z"/><path d="m463.44 720h1.44v-1.44h-1.44z"/><path d="m464.88 720h60.24v-1.44h-60.24z"/></g><g clip-path="url(#f)"><text font-family="Calibri" font-size="50" transform="matrix(.24 0 0 .24 18 208.08002)"><tspan x="225 251.66 275.61003 293.04005 315.67005 342.03507 368.30506 394.57505 417.20506 428.68006 440.15507 465.03507 491.30506" y="-407">Caryophyllene</tspan></text><text transform="matrix(.24 0 0 .24 18 208.08002)"><tspan x="516.1865" y="-407"/></text></g><g clip-path="url(#g)"><text font-family="Calibri" font-size="50" transform="matrix(.24 0 0 .24 18 208.08002)"><tspan x="1191 1216.34 1241.6799 1254.32 1279.6599" y="-407">38.36</tspan></text><text transform="matrix(.24 0 0 .24 18 208.08002)"><tspan x="1304.99" y="-407"/></text></g><g clip-path="url(#h)"><text font-family="Calibri" font-size="50" transform="matrix(.24 0 0 .24 18 208.08002)"><tspan x="1540 1565.34 1590.6799 1616.0199 1641.3599 1666.6998 1692.0398 1717.3798" y="-407">30013483</tspan></text><text transform="matrix(.24 0 0 .24 18 208.08002)"><tspan x="1742.735" y="-407"/></text></g><g clip-path="url(#i)"><text font-family="Calibri" font-size="50" transform="matrix(.24 0 0 .24 18 208.08002)"><tspan x="1999.511 2024.851 2050.191 2062.831 2088.1712" y="-407">17.00</tspan></text></g><g clip-path="url(#j)"><text transform="matrix(.24 0 0 .24 18 208.08002)"><tspan x="2113.5" y="-407"/></text></g><path d="m72 697.92h231.84v-1.44h-231.84z" transform="matrix(1 0 0 -1 0 792)"/><path d="m303.84 697.92h1.44v-1.44h-1.44z" transform="matrix(1 0 0 -1 0 792)"/><path d="m305.28 697.92h82.32v-1.44h-82.32z" transform="matrix(1 0 0 -1 0 792)"/><path d="m387.6 697.92h1.44v-1.44h-1.44z" transform="matrix(1 0 0 -1 0 792)"/><path d="m389.04 697.92h74.4v-1.44h-74.4z" transform="matrix(1 0 0 -1 0 792)"/><path d="m463.44 697.92h1.44v-1.44h-1.44z" transform="matrix(1 0 0 -1 0 792)"/><path d="m464.88 697.92h60.24v-1.44h-60.24z" transform="matrix(1 0 0 -1 0 792)"/><g clip-path="url(#k)"><text font-family="Calibri" font-size="50" transform="matrix(.24 0 0 .24 18 208.08002)"><tspan x="225 250.83 262.31 288.59 313.47 330.9 342.37998 368.65998" y="-334">Piperine</tspan></text><text transform="matrix(.24 0 0 .24 18 208.08002)"><tspan x="393.5059" y="-334"/></text></g><g clip-path="url(#l)"><text font-family="Calibri" font-size="50" transform="matrix(.24 0 0 .24 18 208.08002)"><tspan x="1191 1216.34 1241.6799 1254.32 1279.6599" y="-334">22.77</tspan></text><text transform="matrix(.24 0 0 .24 18 208.08002)"><tspan x="1304.99" y="-334"/></text></g><g clip-path="url(#m)"><text font-family="Calibri" font-size="50" transform="matrix(.24 0 0 .24 18 208.08002)"><tspan x="1540 1565.34 1590.6799 1616.0199 1641.3599 1666.6998 1692.0398 1717.3798" y="-334">17821238</tspan></text><text transform="matrix(.24 0 0 .24 18 208.08002)"><tspan x="1742.735" y="-334"/></text></g><g clip-path="url(#n)"><text font-family="Calibri" font-size="50" transform="matrix(.24 0 0 .24 18 208.08002)"><tspan x="1999.511 2024.851 2050.191 2062.831 2088.1712" y="-334">37.14</tspan></text></g><g clip-path="url(#o)"><text transform="matrix(.24 0 0 .24 18 208.08002)"><tspan x="2113.5" y="-334"/></text></g><g clip-path="url(#p)"><path d="m72 658.8h56.88v-14.64h-56.88z" fill="#fff" transform="matrix(1 0 0 -1 0 792)"/><g font-family="Calibri" font-size="50"><text transform="matrix(.24 0 0 .24 18 208.08002)"><tspan x="225" y="-264">L</tspan></text><text transform="matrix(.24 0 0 .24 18 208.08002)"><tspan x="246.0205" y="-264">-</tspan></text><text transform="matrix(.24 0 0 .24 18 208.08002)"><tspan x="261.3281 282.34809 293.81809 333.7381 360.1081 386.37809 411.2481 437.5181" y="-264">Limonene</tspan></text></g><text transform="matrix(.24 0 0 .24 18 208.08002)"><tspan x="462.4268" y="-264"/></text></g><g clip-path="url(#q)"><text font-family="Calibri" font-size="50" transform="matrix(.24 0 0 .24 18 208.08002)"><tspan x="1191 1216.34 1241.6799 1254.32 1279.6599" y="-264">14.94</tspan></text><text transform="matrix(.24 0 0 .24 18 208.08002)"><tspan x="1304.99" y="-264"/></text></g><g clip-path="url(#r)"><text font-family="Calibri" font-size="50" transform="matrix(.24 0 0 .24 18 208.08002)"><tspan x="1540 1565.34 1590.6799 1616.0199 1641.3599 1666.6998 1692.0398 1717.3798" y="-264">11691763</tspan></text><text transform="matrix(.24 0 0 .24 18 208.08002)"><tspan x="1742.735" y="-264"/></text></g><g clip-path="url(#s)"><text font-family="Calibri" font-size="50" transform="matrix(.24 0 0 .24 18 208.08002)"><tspan x="2024.852 2050.1922 2062.8323 2088.1724" y="-264">7.96</tspan></text></g><g clip-path="url(#t)"><text transform="matrix(.24 0 0 .24 18 208.08002)"><tspan x="2113.5" y="-264"/></text></g><g clip-path="url(#u)"><text font-family="Calibri" font-size="50" transform="matrix(.24 0 0 .24 18 208.08002)"><tspan x="225 247.97499 271.925 298.19499 309.66999 335.93998 360.81999 387.08998" y="-193">Sabinene</tspan></text><text transform="matrix(.24 0 0 .24 18 208.08002)"><tspan x="411.9629" y="-193"/></text></g><g clip-path="url(#v)"><text font-family="Calibri" font-size="50" transform="matrix(.24 0 0 .24 18 208.08002)"><tspan x="1191 1216.34 1241.6799 1254.32 1279.6599" y="-193">10.32</tspan></text><text transform="matrix(.24 0 0 .24 18 208.08002)"><tspan x="1304.99" y="-193"/></text></g><g clip-path="url(#w)"><text font-family="Calibri" font-size="50" transform="matrix(.24 0 0 .24 18 208.08002)"><tspan x="1540 1565.34 1590.6799 1616.0199 1641.3599 1666.6998 1692.0398" y="-193">8074977</tspan></text><text transform="matrix(.24 0 0 .24 18 208.08002)"><tspan x="1717.393" y="-193"/></text></g><g clip-path="url(#x)"><text font-family="Calibri" font-size="50" transform="matrix(.24 0 0 .24 18 208.08002)"><tspan x="2024.852 2050.1922 2062.8323 2088.1724" y="-193">6.67</tspan></text></g><g clip-path="url(#y)"><text transform="matrix(.24 0 0 .24 18 208.08002)"><tspan x="2113.5" y="-193"/></text></g><g clip-path="url(#z)"><g font-size="50"><text font-family="SymbolMT" transform="matrix(.24 0 0 .24 18 208.08002)"><tspan x="225" y="-119">b</tspan></text><text font-family="Calibri" transform="matrix(.24 0 0 .24 18 208.08002)"><tspan x="252.4414" y="-119">-</tspan></text><text font-family="Calibri" transform="matrix(.24 0 0 .24 18 208.08002)"><tspan x="267.749 293.57899 305.05897 331.33897 356.21897 382.49897" y="-119">Pinene</tspan></text></g><text transform="matrix(.24 0 0 .24 18 208.08002)"><tspan x="407.3486" y="-119"/></text></g><g clip-path="url(#A)"><text font-family="Calibri" font-size="50" transform="matrix(.24 0 0 .24 18 208.08002)"><tspan x="1191 1216.34 1228.98 1254.32" y="-122">4.40</tspan></text><text transform="matrix(.24 0 0 .24 18 208.08002)"><tspan x="1279.648" y="-122"/></text></g><g clip-path="url(#B)"><text font-family="Calibri" font-size="50" transform="matrix(.24 0 0 .24 18 208.08002)"><tspan x="1540 1565.34 1590.6799 1616.0199 1641.3599 1666.6998 1692.0398" y="-122">3439246</tspan></text><text transform="matrix(.24 0 0 .24 18 208.08002)"><tspan x="1717.393" y="-122"/></text></g><g clip-path="url(#C)"><text font-family="Calibri" font-size="50" transform="matrix(.24 0 0 .24 18 208.08002)"><tspan x="2024.852 2050.1922 2062.8323 2088.1724" y="-122">6.74</tspan></text></g><g clip-path="url(#D)"><text transform="matrix(.24 0 0 .24 18 208.08002)"><tspan x="2113.5" y="-122"/></text></g><g clip-path="url(#E)"><g font-size="50"><text font-family="SymbolMT" transform="matrix(.24 0 0 .24 18 208.08002)"><tspan x="225" y="-48">b</tspan></text><text font-family="Calibri" transform="matrix(.24 0 0 .24 18 208.08002)"><tspan x="252.4414" y="-48">-</tspan></text><text font-family="Calibri" transform="matrix(.24 0 0 .24 18 208.08002)"><tspan x="267.749 294.944 306.419 325.974 349.924 376.194 402.55903 414.03404 438.91404 465.18403" y="-48">Bisabolene</tspan></text></g><text transform="matrix(.24 0 0 .24 18 208.08002)"><tspan x="490.0635" y="-48"/></text></g><g clip-path="url(#F)"><text font-family="Calibri" font-size="50" transform="matrix(.24 0 0 .24 18 208.08002)"><tspan x="1191 1216.34 1228.98 1254.32" y="-51">3.31</tspan></text><text transform="matrix(.24 0 0 .24 18 208.08002)"><tspan x="1279.648" y="-51"/></text></g><g clip-path="url(#G)"><text font-family="Calibri" font-size="50" transform="matrix(.24 0 0 .24 18 208.08002)"><tspan x="1540 1565.34 1590.6799 1616.0199 1641.3599 1666.6998 1692.0398" y="-51">2588249</tspan></text><text transform="matrix(.24 0 0 .24 18 208.08002)"><tspan x="1717.393" y="-51"/></text></g><g clip-path="url(#H)"><text font-family="Calibri" font-size="50" transform="matrix(.24 0 0 .24 18 208.08002)"><tspan x="1999.511 2024.851 2050.191 2062.831 2088.1712" y="-51">18.79</tspan></text></g><g clip-path="url(#I)"><text transform="matrix(.24 0 0 .24 18 208.08002)"><tspan x="2113.5" y="-51"/></text></g><g clip-path="url(#J)"><g font-size="50"><text font-family="SymbolMT" transform="matrix(.24 0 0 .24 18 208.08002)"><tspan x="225" y="22">a</tspan></text><text font-family="Calibri" transform="matrix(.24 0 0 .24 18 208.08002)"><tspan x="256.543" y="22">-</tspan></text><text font-family="Calibri" transform="matrix(.24 0 0 .24 18 208.08002)"><tspan x="271.8506 297.68058 309.16056 335.44056 360.32057 386.60057" y="22">Pinene</tspan></text></g><text transform="matrix(.24 0 0 .24 18 208.08002)"><tspan x="411.4502" y="22"/></text></g><g clip-path="url(#K)"><text font-family="Calibri" font-size="50" transform="matrix(.24 0 0 .24 18 208.08002)"><tspan x="1191 1216.34 1228.98 1254.32" y="20">2.25</tspan></text><text transform="matrix(.24 0 0 .24 18 208.08002)"><tspan x="1279.648" y="20"/></text></g><g clip-path="url(#L)"><text font-family="Calibri" font-size="50" transform="matrix(.24 0 0 .24 18 208.08002)"><tspan x="1540 1565.34 1590.6799 1616.0199 1641.3599 1666.6998 1692.0398" y="20">1761147</tspan></text><text transform="matrix(.24 0 0 .24 18 208.08002)"><tspan x="1717.393" y="20"/></text></g><g clip-path="url(#M)"><text font-family="Calibri" font-size="50" transform="matrix(.24 0 0 .24 18 208.08002)"><tspan x="2024.852 2050.1922 2062.8323 2088.1724" y="20">5.79</tspan></text></g><g clip-path="url(#N)"><text transform="matrix(.24 0 0 .24 18 208.08002)"><tspan x="2113.5" y="20"/></text></g><g clip-path="url(#O)"><g font-family="Calibri" font-size="50"><text transform="matrix(.24 0 0 .24 18 208.08002)"><tspan x="225 241.75 259.18003 283.13005 309.40003" y="91">trans</tspan></text><text transform="matrix(.24 0 0 .24 18 208.08002)"><tspan x="328.9551" y="91">-</tspan></text><text transform="matrix(.24 0 0 .24 18 208.08002)"><tspan x="344.2627" y="91">B</tspan></text><text transform="matrix(.24 0 0 .24 18 208.08002)"><tspan x="371.46 396.34 413.77003 437.305 461.255 501.195 527.56 544.31 569.19 595.46" y="91">ergamotene</tspan></text></g><text transform="matrix(.24 0 0 .24 18 208.08002)"><tspan x="620.3369" y="91"/></text></g><g clip-path="url(#P)"><text font-family="Calibri" font-size="50" transform="matrix(.24 0 0 .24 18 208.08002)"><tspan x="1191 1216.34 1228.98 1254.32" y="91">0.98</tspan></text><text transform="matrix(.24 0 0 .24 18 208.08002)"><tspan x="1279.648" y="91"/></text></g><g clip-path="url(#Q)"><text font-family="Calibri" font-size="50" transform="matrix(.24 0 0 .24 18 208.08002)"><tspan x="1540 1565.34 1590.6799 1616.0199 1641.3599 1666.6998" y="91">764389</tspan></text><text transform="matrix(.24 0 0 .24 18 208.08002)"><tspan x="1692.051" y="91"/></text></g><g clip-path="url(#R)"><text font-family="Calibri" font-size="50" transform="matrix(.24 0 0 .24 18 208.08002)"><tspan x="1999.511 2024.851 2050.191 2062.831 2088.1712" y="91">17.31</tspan></text></g><g clip-path="url(#S)"><text transform="matrix(.24 0 0 .24 18 208.08002)"><tspan x="2113.5" y="91"/></text></g><g clip-path="url(#T)"><g font-size="50"><text font-family="SymbolMT" transform="matrix(.24 0 0 .24 18 208.08002)"><tspan x="225" y="164">a</tspan></text><text font-family="Calibri" transform="matrix(.24 0 0 .24 18 208.08002)"><tspan x="256.543" y="164">-</tspan></text><text font-family="Calibri" transform="matrix(.24 0 0 .24 18 208.08002)"><tspan x="271.8506 296.21559 322.4806 348.7456 360.7106 385.57563 411.84065" y="164">Thujene</tspan></text></g><text transform="matrix(.24 0 0 .24 18 208.08002)"><tspan x="436.7432" y="164"/></text></g><g clip-path="url(#U)"><text font-family="Calibri" font-size="50" transform="matrix(.24 0 0 .24 18 208.08002)"><tspan x="1191 1216.34 1228.98 1254.32" y="161">0.83</tspan></text><text transform="matrix(.24 0 0 .24 18 208.08002)"><tspan x="1279.648" y="161"/></text></g><g clip-path="url(#V)"><text font-family="Calibri" font-size="50" transform="matrix(.24 0 0 .24 18 208.08002)"><tspan x="1540 1565.34 1590.6799 1616.0199 1641.3599 1666.6998" y="161">651263</tspan></text><text transform="matrix(.24 0 0 .24 18 208.08002)"><tspan x="1692.051" y="161"/></text></g><g clip-path="url(#W)"><text font-family="Calibri" font-size="50" transform="matrix(.24 0 0 .24 18 208.08002)"><tspan x="2024.852 2050.1922 2062.8323 2088.1724" y="161">5.64</tspan></text></g><g clip-path="url(#X)"><text transform="matrix(.24 0 0 .24 18 208.08002)"><tspan x="2113.5" y="161"/></text></g><g clip-path="url(#Y)"><text font-family="Calibri" font-size="50" transform="matrix(.24 0 0 .24 18 208.08002)"><tspan x="225 250.83 275.71003 287.18504 298.66004 310.13505 326.88505 353.25007 370.68009 382.1551 408.42509" y="232">Pellitorine</tspan></text><text transform="matrix(.24 0 0 .24 18 208.08002)"><tspan x="433.3008" y="232"/></text></g><g clip-path="url(#Z)"><text font-family="Calibri" font-size="50" transform="matrix(.24 0 0 .24 18 208.08002)"><tspan x="1191 1216.34 1228.98 1254.32" y="232">0.66</tspan></text><text transform="matrix(.24 0 0 .24 18 208.08002)"><tspan x="1279.648" y="232"/></text></g><g clip-path="url(#aa)"><text font-family="Calibri" font-size="50" transform="matrix(.24 0 0 .24 18 208.08002)"><tspan x="1540 1565.34 1590.6799 1616.0199 1641.3599 1666.6998" y="232">513655</tspan></text><text transform="matrix(.24 0 0 .24 18 208.08002)"><tspan x="1692.051" y="232"/></text></g><g clip-path="url(#ab)"><text font-family="Calibri" font-size="50" transform="matrix(.24 0 0 .24 18 208.08002)"><tspan x="1999.511 2024.851 2050.191 2062.831 2088.1712" y="232">26.40</tspan></text></g><g clip-path="url(#ac)"><text transform="matrix(.24 0 0 .24 18 208.08002)"><tspan x="2113.5" y="232"/></text></g><g clip-path="url(#ad)"><text font-family="Calibri" font-size="50" transform="matrix(.24 0 0 .24 18 208.08002)"><tspan x="225 267.75 290.38 307.81004 328.95503 353.83503 380.105" y="303">Myrcene</tspan></text><text transform="matrix(.24 0 0 .24 18 208.08002)"><tspan x="404.9805" y="303"/></text></g><g clip-path="url(#ae)"><text font-family="Calibri" font-size="50" transform="matrix(.24 0 0 .24 18 208.08002)"><tspan x="1191 1216.34 1228.98 1254.32" y="303">0.61</tspan></text><text transform="matrix(.24 0 0 .24 18 208.08002)"><tspan x="1279.648" y="303"/></text></g><g clip-path="url(#af)"><text font-family="Calibri" font-size="50" transform="matrix(.24 0 0 .24 18 208.08002)"><tspan x="1540 1565.34 1590.6799 1616.0199 1641.3599 1666.6998" y="303">478294</tspan></text><text transform="matrix(.24 0 0 .24 18 208.08002)"><tspan x="1692.051" y="303"/></text></g><g clip-path="url(#ag)"><text font-family="Calibri" font-size="50" transform="matrix(.24 0 0 .24 18 208.08002)"><tspan x="2024.852 2050.1922 2062.8323 2088.1724" y="303">7.07</tspan></text></g><g clip-path="url(#ah)"><text transform="matrix(.24 0 0 .24 18 208.08002)"><tspan x="2113.5" y="303"/></text></g><g clip-path="url(#ai)"><g font-family="Calibri" font-size="50"><text transform="matrix(.24 0 0 .24 18 208.08002)"><tspan x="225" y="374">α</tspan></text><text transform="matrix(.24 0 0 .24 18 208.08002)"><tspan x="253.3691" y="374">-</tspan></text><text transform="matrix(.24 0 0 .24 18 208.08002)"><tspan x="268.6768 295.8718 307.3468 326.9018 350.8518 377.1218 403.48683 414.96183 439.84184 466.11183" y="374">Bisabolene</tspan></text></g><text transform="matrix(.24 0 0 .24 18 208.08002)"><tspan x="490.9912" y="374"/></text></g><g clip-path="url(#aj)"><text font-family="Calibri" font-size="50" transform="matrix(.24 0 0 .24 18 208.08002)"><tspan x="1191 1216.34 1228.98 1254.32" y="374">0.58</tspan></text><text transform="matrix(.24 0 0 .24 18 208.08002)"><tspan x="1279.648" y="374"/></text></g><g clip-path="url(#ak)"><text font-family="Calibri" font-size="50" transform="matrix(.24 0 0 .24 18 208.08002)"><tspan x="1540 1565.34 1590.6799 1616.0199 1641.3599 1666.6998" y="374">453345</tspan></text><text transform="matrix(.24 0 0 .24 18 208.08002)"><tspan x="1692.051" y="374"/></text></g><g clip-path="url(#al)"><text font-family="Calibri" font-size="50" transform="matrix(.24 0 0 .24 18 208.08002)"><tspan x="1999.511 2024.851 2050.191 2062.831 2088.1712" y="374">17.71</tspan></text></g><g clip-path="url(#am)"><text transform="matrix(.24 0 0 .24 18 208.08002)"><tspan x="2113.5" y="374"/></text></g><g clip-path="url(#an)"><text font-family="Calibri" font-size="50" transform="matrix(.24 0 0 .24 18 208.08002)"><tspan x="225 247.975 280.05003" y="445">SUM</tspan></text><text transform="matrix(.24 0 0 .24 18 208.08002)"><tspan x="322.8027" y="445"/></text></g><g clip-path="url(#ao)"><text font-family="Calibri" font-size="50" transform="matrix(.24 0 0 .24 18 208.08002)"><tspan x="1191 1216.34 1241.6799" y="445">100</tspan></text><text transform="matrix(.24 0 0 .24 18 208.08002)"><tspan x="1267.026" y="445"/></text></g><g clip-path="url(#ap)"><text transform="matrix(.24 0 0 .24 18 208.08002)"><tspan x="1540" y="445"/></text><text transform="matrix(.24 0 0 .24 18 208.08002)"><tspan x="1551.304" y="445"/></text></g><g clip-path="url(#aq)"><text transform="matrix(.24 0 0 .24 18 208.08002)"><tspan x="1856" y="445"/></text></g><g clip-path="url(#ar)"><text transform="matrix(.24 0 0 .24 18 208.08002)"><tspan x="1867.303" y="445"/></text></g><path d="m71.28 471.6h232.56v-1.44h-232.56z" transform="matrix(1 0 0 -1 0 792)"/><path d="m303.12 471.6h1.44v-1.44h-1.44z" transform="matrix(1 0 0 -1 0 792)"/><path d="m304.56 471.6h83.04v-1.44h-83.04z" transform="matrix(1 0 0 -1 0 792)"/><path d="m386.88 471.6h1.44v-1.44h-1.44z" transform="matrix(1 0 0 -1 0 792)"/><path d="m388.32 471.6h75.12v-1.44h-75.12z" transform="matrix(1 0 0 -1 0 792)"/><path d="m462.72 471.6h1.44v-1.44h-1.44z" transform="matrix(1 0 0 -1 0 792)"/><path d="m464.16 471.6h60.96v-1.44h-60.96z" transform="matrix(1 0 0 -1 0 792)"/><text transform="matrix(.24 0 0 .24 18 208.08002)"><tspan x="225" y="522"/></text></g></svg>