<?xml version="1.0" encoding="utf-8"?>
<svg viewBox="0 0 455 252" xmlns="http://www.w3.org/2000/svg">
  <g enable-background="new" transform="matrix(1, 0, 0, 1, -71.279999, -72)">
    <clipPath id="cp0">
      <path transform="matrix(1,0,0,-1,0,792)" d="M 72 697 L 304 697 L 304 719 L 72 719 Z "/>
    </clipPath>
    <g clip-path="url(#cp0)">
      <text transform="matrix(.24 0 -0 .24 18 208.08002)" font-size="50" font-family="Calibri" style="white-space: pre;"><tspan y="-500" x="225 257.275 281.225 321.165">Name</tspan></text>
      <text transform="matrix(.24 0 -0 .24 18 208.08002)" font-size="50" font-family="Calibri" style="white-space: pre;"><tspan y="-500" x="346.0449"> </tspan></text>
    </g>
    <clipPath id="cp1">
      <path transform="matrix(1,0,0,-1,0,792)" d="M 303 697 L 388 697 L 388 719 L 303 719 Z "/>
    </clipPath>
    <g clip-path="url(#cp1)">
      <text transform="matrix(.24 0 -0 .24 18 208.08002)" font-size="50" font-family="Calibri" style="white-space: pre;"><tspan y="-500" x="1191 1219.9299 1237.3599 1262.2399 1286.1898">Area </tspan></text>
      <text transform="matrix(.24 0 -0 .24 18 208.08002)" font-size="50" font-family="Calibri" style="white-space: pre;"><tspan y="-500" x="1297.495">%</tspan></text>
      <text transform="matrix(.24 0 -0 .24 18 208.08002)" font-size="50" font-family="Calibri" style="white-space: pre;"><tspan y="-500" x="1333.237"> </tspan></text>
    </g>
    <clipPath id="cp2">
      <path transform="matrix(1,0,0,-1,0,792)" d="M 387 697 L 464 697 L 464 719 L 387 719 Z "/>
    </clipPath>
    <g clip-path="url(#cp2)">
      <text transform="matrix(.24 0 -0 .24 18 208.08002)" font-size="50" font-family="Calibri" style="white-space: pre;"><tspan y="-500" x="1540 1568.93 1586.3601 1611.2401">Area</tspan></text>
      <text transform="matrix(.24 0 -0 .24 18 208.08002)" font-size="50" font-family="Calibri" style="white-space: pre;"><tspan y="-500" x="1635.191"> </tspan></text>
    </g>
    <clipPath id="cp3">
      <path transform="matrix(1,0,0,-1,0,792)" d="M 463 697 L 526 697 L 526 719 L 463 719 Z "/>
    </clipPath>
    <g clip-path="url(#cp3)">
      <text transform="matrix(.24 0 -0 .24 18 208.08002)" font-size="50" font-family="Calibri" style="white-space: pre;"><tspan y="-500" x="1942.675 1969.8251 1994.1901 2005.4951 2020.6552 2060.5953 2072.07 2098.34">RT (min)</tspan></text>
    </g>
    <clipPath id="cp4">
      <path transform="matrix(1,0,0,-1,0,792)" d="M 463 697 L 526 697 L 526 719 L 463 719 Z "/>
    </clipPath>
    <g clip-path="url(#cp4)">
      <text transform="matrix(.24 0 -0 .24 18 208.08002)" font-size="50" font-family="Calibri" style="white-space: pre;"><tspan y="-500" x="2113.5"> </tspan></text>
    </g>
    <path transform="matrix(1,0,0,-1,0,792)" d="M 72 720 L 303.84 720 L 303.84 718.56 L 72 718.56 Z "/>
    <path transform="matrix(1,0,0,-1,0,792)" d="M 303.84 720 L 305.28 720 L 305.28 718.56 L 303.84 718.56 Z "/>
    <path transform="matrix(1,0,0,-1,0,792)" d="M 305.28 720 L 387.6 720 L 387.6 718.56 L 305.28 718.56 Z "/>
    <path transform="matrix(1,0,0,-1,0,792)" d="M 387.6 720 L 389.04 720 L 389.04 718.56 L 387.6 718.56 Z "/>
    <path transform="matrix(1,0,0,-1,0,792)" d="M 389.04 720 L 463.44 720 L 463.44 718.56 L 389.04 718.56 Z "/>
    <path transform="matrix(1,0,0,-1,0,792)" d="M 463.44 720 L 464.88 720 L 464.88 718.56 L 463.44 718.56 Z "/>
    <path transform="matrix(1,0,0,-1,0,792)" d="M 464.88 720 L 525.12 720 L 525.12 718.56 L 464.88 718.56 Z "/>
    <clipPath id="cp5">
      <path transform="matrix(1,0,0,-1,0,792)" d="M 72 675 L 304 675 L 304 697 L 72 697 Z "/>
    </clipPath>
    <g clip-path="url(#cp5)">
      <text transform="matrix(.24 0 -0 .24 18 208.08002)" font-size="50" font-family="Calibri" style="white-space: pre;"><tspan y="-407" x="225 251.66 275.61003 293.04005 315.67005 342.03507 368.30506 394.57505 417.20506 428.68006 440.15507 465.03507 491.30506">Caryophyllene</tspan></text>
      <text transform="matrix(.24 0 -0 .24 18 208.08002)" font-size="50" font-family="Calibri" style="white-space: pre;"><tspan y="-407" x="516.1865"> </tspan></text>
    </g>
    <clipPath id="cp6">
      <path transform="matrix(1,0,0,-1,0,792)" d="M 303 675 L 388 675 L 388 697 L 303 697 Z "/>
    </clipPath>
    <g clip-path="url(#cp6)">
      <text transform="matrix(.24 0 -0 .24 18 208.08002)" font-size="50" font-family="Calibri" style="white-space: pre;"><tspan y="-407" x="1191 1216.34 1241.6799 1254.32 1279.6599">38.36</tspan></text>
      <text transform="matrix(.24 0 -0 .24 18 208.08002)" font-size="50" font-family="Calibri" style="white-space: pre;"><tspan y="-407" x="1304.99"> </tspan></text>
    </g>
    <clipPath id="cp7">
      <path transform="matrix(1,0,0,-1,0,792)" d="M 387 675 L 464 675 L 464 697 L 387 697 Z "/>
    </clipPath>
    <g clip-path="url(#cp7)">
      <text transform="matrix(.24 0 -0 .24 18 208.08002)" font-size="50" font-family="Calibri" style="white-space: pre;"><tspan y="-407" x="1540 1565.34 1590.6799 1616.0199 1641.3599 1666.6998 1692.0398 1717.3798">30013483</tspan></text>
      <text transform="matrix(.24 0 -0 .24 18 208.08002)" font-size="50" font-family="Calibri" style="white-space: pre;"><tspan y="-407" x="1742.735"> </tspan></text>
    </g>
    <clipPath id="cp8">
      <path transform="matrix(1,0,0,-1,0,792)" d="M 463 675 L 526 675 L 526 697 L 463 697 Z "/>
    </clipPath>
    <g clip-path="url(#cp8)">
      <text transform="matrix(.24 0 -0 .24 18 208.08002)" font-size="50" font-family="Calibri" style="white-space: pre;"><tspan y="-407" x="1999.511 2024.851 2050.191 2062.831 2088.1712">17.00</tspan></text>
    </g>
    <clipPath id="cp9">
      <path transform="matrix(1,0,0,-1,0,792)" d="M 463 675 L 526 675 L 526 697 L 463 697 Z "/>
    </clipPath>
    <g clip-path="url(#cp9)">
      <text transform="matrix(.24 0 -0 .24 18 208.08002)" font-size="50" font-family="Calibri" style="white-space: pre;"><tspan y="-407" x="2113.5"> </tspan></text>
    </g>
    <path transform="matrix(1,0,0,-1,0,792)" d="M 72 697.92 L 303.84 697.92 L 303.84 696.48 L 72 696.48 Z "/>
    <path transform="matrix(1,0,0,-1,0,792)" d="M 303.84 697.92 L 305.28 697.92 L 305.28 696.48 L 303.84 696.48 Z "/>
    <path transform="matrix(1,0,0,-1,0,792)" d="M 305.28 697.92 L 387.6 697.92 L 387.6 696.48 L 305.28 696.48 Z "/>
    <path transform="matrix(1,0,0,-1,0,792)" d="M 387.6 697.92 L 389.04 697.92 L 389.04 696.48 L 387.6 696.48 Z "/>
    <path transform="matrix(1,0,0,-1,0,792)" d="M 389.04 697.92 L 463.44 697.92 L 463.44 696.48 L 389.04 696.48 Z "/>
    <path transform="matrix(1,0,0,-1,0,792)" d="M 463.44 697.92 L 464.88 697.92 L 464.88 696.48 L 463.44 696.48 Z "/>
    <path transform="matrix(1,0,0,-1,0,792)" d="M 464.88 697.92 L 525.12 697.92 L 525.12 696.48 L 464.88 696.48 Z "/>
    <clipPath id="cp10">
      <path transform="matrix(1,0,0,-1,0,792)" d="M 72 658 L 304 658 L 304 676 L 72 676 Z "/>
    </clipPath>
    <g clip-path="url(#cp10)">
      <text transform="matrix(.24 0 -0 .24 18 208.08002)" font-size="50" font-family="Calibri" style="white-space: pre;"><tspan y="-334" x="225 250.83 262.31 288.59 313.47 330.9 342.37998 368.65998">Piperine</tspan></text>
      <text transform="matrix(.24 0 -0 .24 18 208.08002)" font-size="50" font-family="Calibri" style="white-space: pre;"><tspan y="-334" x="393.5059"> </tspan></text>
    </g>
    <clipPath id="cp11">
      <path transform="matrix(1,0,0,-1,0,792)" d="M 303 658 L 388 658 L 388 676 L 303 676 Z "/>
    </clipPath>
    <g clip-path="url(#cp11)">
      <text transform="matrix(.24 0 -0 .24 18 208.08002)" font-size="50" font-family="Calibri" style="white-space: pre;"><tspan y="-334" x="1191 1216.34 1241.6799 1254.32 1279.6599">22.77</tspan></text>
      <text transform="matrix(.24 0 -0 .24 18 208.08002)" font-size="50" font-family="Calibri" style="white-space: pre;"><tspan y="-334" x="1304.99"> </tspan></text>
    </g>
    <clipPath id="cp12">
      <path transform="matrix(1,0,0,-1,0,792)" d="M 387 658 L 464 658 L 464 676 L 387 676 Z "/>
    </clipPath>
    <g clip-path="url(#cp12)">
      <text transform="matrix(.24 0 -0 .24 18 208.08002)" font-size="50" font-family="Calibri" style="white-space: pre;"><tspan y="-334" x="1540 1565.34 1590.6799 1616.0199 1641.3599 1666.6998 1692.0398 1717.3798">17821238</tspan></text>
      <text transform="matrix(.24 0 -0 .24 18 208.08002)" font-size="50" font-family="Calibri" style="white-space: pre;"><tspan y="-334" x="1742.735"> </tspan></text>
    </g>
    <clipPath id="cp13">
      <path transform="matrix(1,0,0,-1,0,792)" d="M 463 658 L 526 658 L 526 676 L 463 676 Z "/>
    </clipPath>
    <g clip-path="url(#cp13)">
      <text transform="matrix(.24 0 -0 .24 18 208.08002)" font-size="50" font-family="Calibri" style="white-space: pre;"><tspan y="-334" x="1999.511 2024.851 2050.191 2062.831 2088.1712">37.14</tspan></text>
    </g>
    <clipPath id="cp14">
      <path transform="matrix(1,0,0,-1,0,792)" d="M 463 658 L 526 658 L 526 676 L 463 676 Z "/>
    </clipPath>
    <g clip-path="url(#cp14)">
      <text transform="matrix(.24 0 -0 .24 18 208.08002)" font-size="50" font-family="Calibri" style="white-space: pre;"><tspan y="-334" x="2113.5"> </tspan></text>
    </g>
    <clipPath id="cp15">
      <path transform="matrix(1,0,0,-1,0,792)" d="M 72 641 L 304 641 L 304 659 L 72 659 Z "/>
    </clipPath>
    <g clip-path="url(#cp15)">
      <path transform="matrix(1,0,0,-1,0,792)" d="M 72 658.8 L 128.88 658.8 L 128.88 644.16 L 72 644.16 Z " fill="#ffffff"/>
      <text transform="matrix(.24 0 -0 .24 18 208.08002)" font-size="50" font-family="Calibri" style="white-space: pre;"><tspan y="-264" x="225">L</tspan></text>
      <text transform="matrix(.24 0 -0 .24 18 208.08002)" font-size="50" font-family="Calibri" style="white-space: pre;"><tspan y="-264" x="246.0205">-</tspan></text>
      <text transform="matrix(.24 0 -0 .24 18 208.08002)" font-size="50" font-family="Calibri" style="white-space: pre;"><tspan y="-264" x="261.3281 282.34809 293.81809 333.7381 360.1081 386.37809 411.2481 437.5181">Limonene</tspan></text>
      <text transform="matrix(.24 0 -0 .24 18 208.08002)" font-size="50" font-family="Calibri" style="white-space: pre;"><tspan y="-264" x="462.4268"> </tspan></text>
    </g>
    <clipPath id="cp16">
      <path transform="matrix(1,0,0,-1,0,792)" d="M 303 641 L 388 641 L 388 659 L 303 659 Z "/>
    </clipPath>
    <g clip-path="url(#cp16)">
      <text transform="matrix(.24 0 -0 .24 18 208.08002)" font-size="50" font-family="Calibri" style="white-space: pre;"><tspan y="-264" x="1191 1216.34 1241.6799 1254.32 1279.6599">14.94</tspan></text>
      <text transform="matrix(.24 0 -0 .24 18 208.08002)" font-size="50" font-family="Calibri" style="white-space: pre;"><tspan y="-264" x="1304.99"> </tspan></text>
    </g>
    <clipPath id="cp17">
      <path transform="matrix(1,0,0,-1,0,792)" d="M 387 641 L 464 641 L 464 659 L 387 659 Z "/>
    </clipPath>
    <g clip-path="url(#cp17)">
      <text transform="matrix(.24 0 -0 .24 18 208.08002)" font-size="50" font-family="Calibri" style="white-space: pre;"><tspan y="-264" x="1540 1565.34 1590.6799 1616.0199 1641.3599 1666.6998 1692.0398 1717.3798">11691763</tspan></text>
      <text transform="matrix(.24 0 -0 .24 18 208.08002)" font-size="50" font-family="Calibri" style="white-space: pre;"><tspan y="-264" x="1742.735"> </tspan></text>
    </g>
    <clipPath id="cp18">
      <path transform="matrix(1,0,0,-1,0,792)" d="M 463 641 L 526 641 L 526 659 L 463 659 Z "/>
    </clipPath>
    <g clip-path="url(#cp18)">
      <text transform="matrix(.24 0 -0 .24 18 208.08002)" font-size="50" font-family="Calibri" style="white-space: pre;"><tspan y="-264" x="2024.852 2050.1922 2062.8323 2088.1724">7.96</tspan></text>
    </g>
    <clipPath id="cp19">
      <path transform="matrix(1,0,0,-1,0,792)" d="M 463 641 L 526 641 L 526 659 L 463 659 Z "/>
    </clipPath>
    <g clip-path="url(#cp19)">
      <text transform="matrix(.24 0 -0 .24 18 208.08002)" font-size="50" font-family="Calibri" style="white-space: pre;"><tspan y="-264" x="2113.5"> </tspan></text>
    </g>
    <clipPath id="cp20">
      <path transform="matrix(1,0,0,-1,0,792)" d="M 72 624 L 304 624 L 304 642 L 72 642 Z "/>
    </clipPath>
    <g clip-path="url(#cp20)">
      <text transform="matrix(.24 0 -0 .24 18 208.08002)" font-size="50" font-family="Calibri" style="white-space: pre;"><tspan y="-193" x="225 247.97499 271.925 298.19499 309.66999 335.93998 360.81999 387.08998">Sabinene</tspan></text>
      <text transform="matrix(.24 0 -0 .24 18 208.08002)" font-size="50" font-family="Calibri" style="white-space: pre;"><tspan y="-193" x="411.9629"> </tspan></text>
    </g>
    <clipPath id="cp21">
      <path transform="matrix(1,0,0,-1,0,792)" d="M 303 624 L 388 624 L 388 642 L 303 642 Z "/>
    </clipPath>
    <g clip-path="url(#cp21)">
      <text transform="matrix(.24 0 -0 .24 18 208.08002)" font-size="50" font-family="Calibri" style="white-space: pre;"><tspan y="-193" x="1191 1216.34 1241.6799 1254.32 1279.6599">10.32</tspan></text>
      <text transform="matrix(.24 0 -0 .24 18 208.08002)" font-size="50" font-family="Calibri" style="white-space: pre;"><tspan y="-193" x="1304.99"> </tspan></text>
    </g>
    <clipPath id="cp22">
      <path transform="matrix(1,0,0,-1,0,792)" d="M 387 624 L 464 624 L 464 642 L 387 642 Z "/>
    </clipPath>
    <g clip-path="url(#cp22)">
      <text transform="matrix(.24 0 -0 .24 18 208.08002)" font-size="50" font-family="Calibri" style="white-space: pre;"><tspan y="-193" x="1540 1565.34 1590.6799 1616.0199 1641.3599 1666.6998 1692.0398">8074977</tspan></text>
      <text transform="matrix(.24 0 -0 .24 18 208.08002)" font-size="50" font-family="Calibri" style="white-space: pre;"><tspan y="-193" x="1717.393"> </tspan></text>
    </g>
    <clipPath id="cp23">
      <path transform="matrix(1,0,0,-1,0,792)" d="M 463 624 L 526 624 L 526 642 L 463 642 Z "/>
    </clipPath>
    <g clip-path="url(#cp23)">
      <text transform="matrix(.24 0 -0 .24 18 208.08002)" font-size="50" font-family="Calibri" style="white-space: pre;"><tspan y="-193" x="2024.852 2050.1922 2062.8323 2088.1724">6.67</tspan></text>
    </g>
    <clipPath id="cp24">
      <path transform="matrix(1,0,0,-1,0,792)" d="M 463 624 L 526 624 L 526 642 L 463 642 Z "/>
    </clipPath>
    <g clip-path="url(#cp24)">
      <text transform="matrix(.24 0 -0 .24 18 208.08002)" font-size="50" font-family="Calibri" style="white-space: pre;"><tspan y="-193" x="2113.5"> </tspan></text>
    </g>
    <clipPath id="cp25">
      <path transform="matrix(1,0,0,-1,0,792)" d="M 72 607 L 304 607 L 304 625 L 72 625 Z "/>
    </clipPath>
    <g clip-path="url(#cp25)">
      <text transform="matrix(.24 0 -0 .24 18 208.08002)" font-size="50" font-family="SymbolMT" style="white-space: pre;"><tspan y="-119" x="225">b</tspan></text>
      <text transform="matrix(.24 0 -0 .24 18 208.08002)" font-size="50" font-family="Calibri" style="white-space: pre;"><tspan y="-119" x="252.4414">-</tspan></text>
      <text transform="matrix(.24 0 -0 .24 18 208.08002)" font-size="50" font-family="Calibri" style="white-space: pre;"><tspan y="-119" x="267.749 293.57899 305.05897 331.33897 356.21897 382.49897">Pinene</tspan></text>
      <text transform="matrix(.24 0 -0 .24 18 208.08002)" font-size="50" font-family="Calibri" style="white-space: pre;"><tspan y="-119" x="407.3486"> </tspan></text>
    </g>
    <clipPath id="cp26">
      <path transform="matrix(1,0,0,-1,0,792)" d="M 303 607 L 388 607 L 388 625 L 303 625 Z "/>
    </clipPath>
    <g clip-path="url(#cp26)">
      <text transform="matrix(.24 0 -0 .24 18 208.08002)" font-size="50" font-family="Calibri" style="white-space: pre;"><tspan y="-122" x="1191 1216.34 1228.98 1254.32">4.40</tspan></text>
      <text transform="matrix(.24 0 -0 .24 18 208.08002)" font-size="50" font-family="Calibri" style="white-space: pre;"><tspan y="-122" x="1279.648"> </tspan></text>
    </g>
    <clipPath id="cp27">
      <path transform="matrix(1,0,0,-1,0,792)" d="M 387 607 L 464 607 L 464 625 L 387 625 Z "/>
    </clipPath>
    <g clip-path="url(#cp27)">
      <text transform="matrix(.24 0 -0 .24 18 208.08002)" font-size="50" font-family="Calibri" style="white-space: pre;"><tspan y="-122" x="1540 1565.34 1590.6799 1616.0199 1641.3599 1666.6998 1692.0398">3439246</tspan></text>
      <text transform="matrix(.24 0 -0 .24 18 208.08002)" font-size="50" font-family="Calibri" style="white-space: pre;"><tspan y="-122" x="1717.393"> </tspan></text>
    </g>
    <clipPath id="cp28">
      <path transform="matrix(1,0,0,-1,0,792)" d="M 463 607 L 526 607 L 526 625 L 463 625 Z "/>
    </clipPath>
    <g clip-path="url(#cp28)">
      <text transform="matrix(.24 0 -0 .24 18 208.08002)" font-size="50" font-family="Calibri" style="white-space: pre;"><tspan y="-122" x="2024.852 2050.1922 2062.8323 2088.1724">6.74</tspan></text>
    </g>
    <clipPath id="cp29">
      <path transform="matrix(1,0,0,-1,0,792)" d="M 463 607 L 526 607 L 526 625 L 463 625 Z "/>
    </clipPath>
    <g clip-path="url(#cp29)">
      <text transform="matrix(.24 0 -0 .24 18 208.08002)" font-size="50" font-family="Calibri" style="white-space: pre;"><tspan y="-122" x="2113.5"> </tspan></text>
    </g>
    <clipPath id="cp30">
      <path transform="matrix(1,0,0,-1,0,792)" d="M 72 590 L 304 590 L 304 608 L 72 608 Z "/>
    </clipPath>
    <g clip-path="url(#cp30)">
      <text transform="matrix(.24 0 -0 .24 18 208.08002)" font-size="50" font-family="SymbolMT" style="white-space: pre;"><tspan y="-48" x="225">b</tspan></text>
      <text transform="matrix(.24 0 -0 .24 18 208.08002)" font-size="50" font-family="Calibri" style="white-space: pre;"><tspan y="-48" x="252.4414">-</tspan></text>
      <text transform="matrix(.24 0 -0 .24 18 208.08002)" font-size="50" font-family="Calibri" style="white-space: pre;"><tspan y="-48" x="267.749 294.944 306.419 325.974 349.924 376.194 402.55903 414.03404 438.91404 465.18403">Bisabolene</tspan></text>
      <text transform="matrix(.24 0 -0 .24 18 208.08002)" font-size="50" font-family="Calibri" style="white-space: pre;"><tspan y="-48" x="490.0635"> </tspan></text>
    </g>
    <clipPath id="cp31">
      <path transform="matrix(1,0,0,-1,0,792)" d="M 303 590 L 388 590 L 388 608 L 303 608 Z "/>
    </clipPath>
    <g clip-path="url(#cp31)">
      <text transform="matrix(.24 0 -0 .24 18 208.08002)" font-size="50" font-family="Calibri" style="white-space: pre;"><tspan y="-51" x="1191 1216.34 1228.98 1254.32">3.31</tspan></text>
      <text transform="matrix(.24 0 -0 .24 18 208.08002)" font-size="50" font-family="Calibri" style="white-space: pre;"><tspan y="-51" x="1279.648"> </tspan></text>
    </g>
    <clipPath id="cp32">
      <path transform="matrix(1,0,0,-1,0,792)" d="M 387 590 L 464 590 L 464 608 L 387 608 Z "/>
    </clipPath>
    <g clip-path="url(#cp32)">
      <text transform="matrix(.24 0 -0 .24 18 208.08002)" font-size="50" font-family="Calibri" style="white-space: pre;"><tspan y="-51" x="1540 1565.34 1590.6799 1616.0199 1641.3599 1666.6998 1692.0398">2588249</tspan></text>
      <text transform="matrix(.24 0 -0 .24 18 208.08002)" font-size="50" font-family="Calibri" style="white-space: pre;"><tspan y="-51" x="1717.393"> </tspan></text>
    </g>
    <clipPath id="cp33">
      <path transform="matrix(1,0,0,-1,0,792)" d="M 463 590 L 526 590 L 526 608 L 463 608 Z "/>
    </clipPath>
    <g clip-path="url(#cp33)">
      <text transform="matrix(.24 0 -0 .24 18 208.08002)" font-size="50" font-family="Calibri" style="white-space: pre;"><tspan y="-51" x="1999.511 2024.851 2050.191 2062.831 2088.1712">18.79</tspan></text>
    </g>
    <clipPath id="cp34">
      <path transform="matrix(1,0,0,-1,0,792)" d="M 463 590 L 526 590 L 526 608 L 463 608 Z "/>
    </clipPath>
    <g clip-path="url(#cp34)">
      <text transform="matrix(.24 0 -0 .24 18 208.08002)" font-size="50" font-family="Calibri" style="white-space: pre;"><tspan y="-51" x="2113.5"> </tspan></text>
    </g>
    <clipPath id="cp35">
      <path transform="matrix(1,0,0,-1,0,792)" d="M 72 573 L 304 573 L 304 591 L 72 591 Z "/>
    </clipPath>
    <g clip-path="url(#cp35)">
      <text transform="matrix(.24 0 -0 .24 18 208.08002)" font-size="50" font-family="SymbolMT" style="white-space: pre;"><tspan y="22" x="225">a</tspan></text>
      <text transform="matrix(.24 0 -0 .24 18 208.08002)" font-size="50" font-family="Calibri" style="white-space: pre;"><tspan y="22" x="256.543">-</tspan></text>
      <text transform="matrix(.24 0 -0 .24 18 208.08002)" font-size="50" font-family="Calibri" style="white-space: pre;"><tspan y="22" x="271.8506 297.68058 309.16056 335.44056 360.32057 386.60057">Pinene</tspan></text>
      <text transform="matrix(.24 0 -0 .24 18 208.08002)" font-size="50" font-family="Calibri" style="white-space: pre;"><tspan y="22" x="411.4502"> </tspan></text>
    </g>
    <clipPath id="cp36">
      <path transform="matrix(1,0,0,-1,0,792)" d="M 303 573 L 388 573 L 388 591 L 303 591 Z "/>
    </clipPath>
    <g clip-path="url(#cp36)">
      <text transform="matrix(.24 0 -0 .24 18 208.08002)" font-size="50" font-family="Calibri" style="white-space: pre;"><tspan y="20" x="1191 1216.34 1228.98 1254.32">2.25</tspan></text>
      <text transform="matrix(.24 0 -0 .24 18 208.08002)" font-size="50" font-family="Calibri" style="white-space: pre;"><tspan y="20" x="1279.648"> </tspan></text>
    </g>
    <clipPath id="cp37">
      <path transform="matrix(1,0,0,-1,0,792)" d="M 387 573 L 464 573 L 464 591 L 387 591 Z "/>
    </clipPath>
    <g clip-path="url(#cp37)">
      <text transform="matrix(.24 0 -0 .24 18 208.08002)" font-size="50" font-family="Calibri" style="white-space: pre;"><tspan y="20" x="1540 1565.34 1590.6799 1616.0199 1641.3599 1666.6998 1692.0398">1761147</tspan></text>
      <text transform="matrix(.24 0 -0 .24 18 208.08002)" font-size="50" font-family="Calibri" style="white-space: pre;"><tspan y="20" x="1717.393"> </tspan></text>
    </g>
    <clipPath id="cp38">
      <path transform="matrix(1,0,0,-1,0,792)" d="M 463 573 L 526 573 L 526 591 L 463 591 Z "/>
    </clipPath>
    <g clip-path="url(#cp38)">
      <text transform="matrix(.24 0 -0 .24 18 208.08002)" font-size="50" font-family="Calibri" style="white-space: pre;"><tspan y="20" x="2024.852 2050.1922 2062.8323 2088.1724">5.79</tspan></text>
    </g>
    <clipPath id="cp39">
      <path transform="matrix(1,0,0,-1,0,792)" d="M 463 573 L 526 573 L 526 591 L 463 591 Z "/>
    </clipPath>
    <g clip-path="url(#cp39)">
      <text transform="matrix(.24 0 -0 .24 18 208.08002)" font-size="50" font-family="Calibri" style="white-space: pre;"><tspan y="20" x="2113.5"> </tspan></text>
    </g>
    <clipPath id="cp40">
      <path transform="matrix(1,0,0,-1,0,792)" d="M 72 556 L 304 556 L 304 574 L 72 574 Z "/>
    </clipPath>
    <g clip-path="url(#cp40)">
      <text transform="matrix(.24 0 -0 .24 18 208.08002)" font-size="50" font-family="Calibri" style="white-space: pre;"><tspan y="91" x="225 241.75 259.18003 283.13005 309.40003">trans</tspan></text>
      <text transform="matrix(.24 0 -0 .24 18 208.08002)" font-size="50" font-family="Calibri" style="white-space: pre;"><tspan y="91" x="328.9551">-</tspan></text>
      <text transform="matrix(.24 0 -0 .24 18 208.08002)" font-size="50" font-family="Calibri" style="white-space: pre;"><tspan y="91" x="344.2627">B</tspan></text>
      <text transform="matrix(.24 0 -0 .24 18 208.08002)" font-size="50" font-family="Calibri" style="white-space: pre;"><tspan y="91" x="371.46 396.34 413.77003 437.305 461.255 501.195 527.56 544.31 569.19 595.46">ergamotene</tspan></text>
      <text transform="matrix(.24 0 -0 .24 18 208.08002)" font-size="50" font-family="Calibri" style="white-space: pre;"><tspan y="91" x="620.3369"> </tspan></text>
    </g>
    <clipPath id="cp41">
      <path transform="matrix(1,0,0,-1,0,792)" d="M 303 556 L 388 556 L 388 574 L 303 574 Z "/>
    </clipPath>
    <g clip-path="url(#cp41)">
      <text transform="matrix(.24 0 -0 .24 18 208.08002)" font-size="50" font-family="Calibri" style="white-space: pre;"><tspan y="91" x="1191 1216.34 1228.98 1254.32">0.98</tspan></text>
      <text transform="matrix(.24 0 -0 .24 18 208.08002)" font-size="50" font-family="Calibri" style="white-space: pre;"><tspan y="91" x="1279.648"> </tspan></text>
    </g>
    <clipPath id="cp42">
      <path transform="matrix(1,0,0,-1,0,792)" d="M 387 556 L 464 556 L 464 574 L 387 574 Z "/>
    </clipPath>
    <g clip-path="url(#cp42)">
      <text transform="matrix(.24 0 -0 .24 18 208.08002)" font-size="50" font-family="Calibri" style="white-space: pre;"><tspan y="91" x="1540 1565.34 1590.6799 1616.0199 1641.3599 1666.6998">764389</tspan></text>
      <text transform="matrix(.24 0 -0 .24 18 208.08002)" font-size="50" font-family="Calibri" style="white-space: pre;"><tspan y="91" x="1692.051"> </tspan></text>
    </g>
    <clipPath id="cp43">
      <path transform="matrix(1,0,0,-1,0,792)" d="M 463 556 L 526 556 L 526 574 L 463 574 Z "/>
    </clipPath>
    <g clip-path="url(#cp43)">
      <text transform="matrix(.24 0 -0 .24 18 208.08002)" font-size="50" font-family="Calibri" style="white-space: pre;"><tspan y="91" x="1999.511 2024.851 2050.191 2062.831 2088.1712">17.31</tspan></text>
    </g>
    <clipPath id="cp44">
      <path transform="matrix(1,0,0,-1,0,792)" d="M 463 556 L 526 556 L 526 574 L 463 574 Z "/>
    </clipPath>
    <g clip-path="url(#cp44)">
      <text transform="matrix(.24 0 -0 .24 18 208.08002)" font-size="50" font-family="Calibri" style="white-space: pre;"><tspan y="91" x="2113.5"> </tspan></text>
    </g>
    <clipPath id="cp45">
      <path transform="matrix(1,0,0,-1,0,792)" d="M 72 539 L 304 539 L 304 557 L 72 557 Z "/>
    </clipPath>
    <g clip-path="url(#cp45)">
      <text transform="matrix(.24 0 -0 .24 18 208.08002)" font-size="50" font-family="SymbolMT" style="white-space: pre;"><tspan y="164" x="225">a</tspan></text>
      <text transform="matrix(.24 0 -0 .24 18 208.08002)" font-size="50" font-family="Calibri" style="white-space: pre;"><tspan y="164" x="256.543">-</tspan></text>
      <text transform="matrix(.24 0 -0 .24 18 208.08002)" font-size="50" font-family="Calibri" style="white-space: pre;"><tspan y="164" x="271.8506 296.21559 322.4806 348.7456 360.7106 385.57563 411.84065">Thujene</tspan></text>
      <text transform="matrix(.24 0 -0 .24 18 208.08002)" font-size="50" font-family="Calibri" style="white-space: pre;"><tspan y="164" x="436.7432"> </tspan></text>
    </g>
    <clipPath id="cp46">
      <path transform="matrix(1,0,0,-1,0,792)" d="M 303 539 L 388 539 L 388 557 L 303 557 Z "/>
    </clipPath>
    <g clip-path="url(#cp46)">
      <text transform="matrix(.24 0 -0 .24 18 208.08002)" font-size="50" font-family="Calibri" style="white-space: pre;"><tspan y="161" x="1191 1216.34 1228.98 1254.32">0.83</tspan></text>
      <text transform="matrix(.24 0 -0 .24 18 208.08002)" font-size="50" font-family="Calibri" style="white-space: pre;"><tspan y="161" x="1279.648"> </tspan></text>
    </g>
    <clipPath id="cp47">
      <path transform="matrix(1,0,0,-1,0,792)" d="M 387 539 L 464 539 L 464 557 L 387 557 Z "/>
    </clipPath>
    <g clip-path="url(#cp47)">
      <text transform="matrix(.24 0 -0 .24 18 208.08002)" font-size="50" font-family="Calibri" style="white-space: pre;"><tspan y="161" x="1540 1565.34 1590.6799 1616.0199 1641.3599 1666.6998">651263</tspan></text>
      <text transform="matrix(.24 0 -0 .24 18 208.08002)" font-size="50" font-family="Calibri" style="white-space: pre;"><tspan y="161" x="1692.051"> </tspan></text>
    </g>
    <clipPath id="cp48">
      <path transform="matrix(1,0,0,-1,0,792)" d="M 463 539 L 526 539 L 526 557 L 463 557 Z "/>
    </clipPath>
    <g clip-path="url(#cp48)">
      <text transform="matrix(.24 0 -0 .24 18 208.08002)" font-size="50" font-family="Calibri" style="white-space: pre;"><tspan y="161" x="2024.852 2050.1922 2062.8323 2088.1724">5.64</tspan></text>
    </g>
    <clipPath id="cp49">
      <path transform="matrix(1,0,0,-1,0,792)" d="M 463 539 L 526 539 L 526 557 L 463 557 Z "/>
    </clipPath>
    <g clip-path="url(#cp49)">
      <text transform="matrix(.24 0 -0 .24 18 208.08002)" font-size="50" font-family="Calibri" style="white-space: pre;"><tspan y="161" x="2113.5"> </tspan></text>
    </g>
    <clipPath id="cp50">
      <path transform="matrix(1,0,0,-1,0,792)" d="M 72 522 L 304 522 L 304 540 L 72 540 Z "/>
    </clipPath>
    <g clip-path="url(#cp50)">
      <text transform="matrix(.24 0 -0 .24 18 208.08002)" font-size="50" font-family="Calibri" style="white-space: pre;"><tspan y="232" x="225 250.83 275.71003 287.18504 298.66004 310.13505 326.88505 353.25007 370.68009 382.1551 408.42509">Pellitorine</tspan></text>
      <text transform="matrix(.24 0 -0 .24 18 208.08002)" font-size="50" font-family="Calibri" style="white-space: pre;"><tspan y="232" x="433.3008"> </tspan></text>
    </g>
    <clipPath id="cp51">
      <path transform="matrix(1,0,0,-1,0,792)" d="M 303 522 L 388 522 L 388 540 L 303 540 Z "/>
    </clipPath>
    <g clip-path="url(#cp51)">
      <text transform="matrix(.24 0 -0 .24 18 208.08002)" font-size="50" font-family="Calibri" style="white-space: pre;"><tspan y="232" x="1191 1216.34 1228.98 1254.32">0.66</tspan></text>
      <text transform="matrix(.24 0 -0 .24 18 208.08002)" font-size="50" font-family="Calibri" style="white-space: pre;"><tspan y="232" x="1279.648"> </tspan></text>
    </g>
    <clipPath id="cp52">
      <path transform="matrix(1,0,0,-1,0,792)" d="M 387 522 L 464 522 L 464 540 L 387 540 Z "/>
    </clipPath>
    <g clip-path="url(#cp52)">
      <text transform="matrix(.24 0 -0 .24 18 208.08002)" font-size="50" font-family="Calibri" style="white-space: pre;"><tspan y="232" x="1540 1565.34 1590.6799 1616.0199 1641.3599 1666.6998">513655</tspan></text>
      <text transform="matrix(.24 0 -0 .24 18 208.08002)" font-size="50" font-family="Calibri" style="white-space: pre;"><tspan y="232" x="1692.051"> </tspan></text>
    </g>
    <clipPath id="cp53">
      <path transform="matrix(1,0,0,-1,0,792)" d="M 463 522 L 526 522 L 526 540 L 463 540 Z "/>
    </clipPath>
    <g clip-path="url(#cp53)">
      <text transform="matrix(.24 0 -0 .24 18 208.08002)" font-size="50" font-family="Calibri" style="white-space: pre;"><tspan y="232" x="1999.511 2024.851 2050.191 2062.831 2088.1712">26.40</tspan></text>
    </g>
    <clipPath id="cp54">
      <path transform="matrix(1,0,0,-1,0,792)" d="M 463 522 L 526 522 L 526 540 L 463 540 Z "/>
    </clipPath>
    <g clip-path="url(#cp54)">
      <text transform="matrix(.24 0 -0 .24 18 208.08002)" font-size="50" font-family="Calibri" style="white-space: pre;"><tspan y="232" x="2113.5"> </tspan></text>
    </g>
    <clipPath id="cp55">
      <path transform="matrix(1,0,0,-1,0,792)" d="M 72 505 L 304 505 L 304 523 L 72 523 Z "/>
    </clipPath>
    <g clip-path="url(#cp55)">
      <text transform="matrix(.24 0 -0 .24 18 208.08002)" font-size="50" font-family="Calibri" style="white-space: pre;"><tspan y="303" x="225 267.75 290.38 307.81004 328.95503 353.83503 380.105">Myrcene</tspan></text>
      <text transform="matrix(.24 0 -0 .24 18 208.08002)" font-size="50" font-family="Calibri" style="white-space: pre;"><tspan y="303" x="404.9805"> </tspan></text>
    </g>
    <clipPath id="cp56">
      <path transform="matrix(1,0,0,-1,0,792)" d="M 303 505 L 388 505 L 388 523 L 303 523 Z "/>
    </clipPath>
    <g clip-path="url(#cp56)">
      <text transform="matrix(.24 0 -0 .24 18 208.08002)" font-size="50" font-family="Calibri" style="white-space: pre;"><tspan y="303" x="1191 1216.34 1228.98 1254.32">0.61</tspan></text>
      <text transform="matrix(.24 0 -0 .24 18 208.08002)" font-size="50" font-family="Calibri" style="white-space: pre;"><tspan y="303" x="1279.648"> </tspan></text>
    </g>
    <clipPath id="cp57">
      <path transform="matrix(1,0,0,-1,0,792)" d="M 387 505 L 464 505 L 464 523 L 387 523 Z "/>
    </clipPath>
    <g clip-path="url(#cp57)">
      <text transform="matrix(.24 0 -0 .24 18 208.08002)" font-size="50" font-family="Calibri" style="white-space: pre;"><tspan y="303" x="1540 1565.34 1590.6799 1616.0199 1641.3599 1666.6998">478294</tspan></text>
      <text transform="matrix(.24 0 -0 .24 18 208.08002)" font-size="50" font-family="Calibri" style="white-space: pre;"><tspan y="303" x="1692.051"> </tspan></text>
    </g>
    <clipPath id="cp58">
      <path transform="matrix(1,0,0,-1,0,792)" d="M 463 505 L 526 505 L 526 523 L 463 523 Z "/>
    </clipPath>
    <g clip-path="url(#cp58)">
      <text transform="matrix(.24 0 -0 .24 18 208.08002)" font-size="50" font-family="Calibri" style="white-space: pre;"><tspan y="303" x="2024.852 2050.1922 2062.8323 2088.1724">7.07</tspan></text>
    </g>
    <clipPath id="cp59">
      <path transform="matrix(1,0,0,-1,0,792)" d="M 463 505 L 526 505 L 526 523 L 463 523 Z "/>
    </clipPath>
    <g clip-path="url(#cp59)">
      <text transform="matrix(.24 0 -0 .24 18 208.08002)" font-size="50" font-family="Calibri" style="white-space: pre;"><tspan y="303" x="2113.5"> </tspan></text>
    </g>
    <clipPath id="cp60">
      <path transform="matrix(1,0,0,-1,0,792)" d="M 72 488 L 304 488 L 304 506 L 72 506 Z "/>
    </clipPath>
    <g clip-path="url(#cp60)">
      <text transform="matrix(.24 0 -0 .24 18 208.08002)" font-size="50" font-family="Calibri" style="white-space: pre;"><tspan y="374" x="225">α</tspan></text>
      <text transform="matrix(.24 0 -0 .24 18 208.08002)" font-size="50" font-family="Calibri" style="white-space: pre;"><tspan y="374" x="253.3691">-</tspan></text>
      <text transform="matrix(.24 0 -0 .24 18 208.08002)" font-size="50" font-family="Calibri" style="white-space: pre;"><tspan y="374" x="268.6768 295.8718 307.3468 326.9018 350.8518 377.1218 403.48683 414.96183 439.84184 466.11183">Bisabolene</tspan></text>
      <text transform="matrix(.24 0 -0 .24 18 208.08002)" font-size="50" font-family="Calibri" style="white-space: pre;"><tspan y="374" x="490.9912"> </tspan></text>
    </g>
    <clipPath id="cp61">
      <path transform="matrix(1,0,0,-1,0,792)" d="M 303 488 L 388 488 L 388 506 L 303 506 Z "/>
    </clipPath>
    <g clip-path="url(#cp61)">
      <text transform="matrix(.24 0 -0 .24 18 208.08002)" font-size="50" font-family="Calibri" style="white-space: pre;"><tspan y="374" x="1191 1216.34 1228.98 1254.32">0.58</tspan></text>
      <text transform="matrix(.24 0 -0 .24 18 208.08002)" font-size="50" font-family="Calibri" style="white-space: pre;"><tspan y="374" x="1279.648"> </tspan></text>
    </g>
    <clipPath id="cp62">
      <path transform="matrix(1,0,0,-1,0,792)" d="M 387 488 L 464 488 L 464 506 L 387 506 Z "/>
    </clipPath>
    <g clip-path="url(#cp62)">
      <text transform="matrix(.24 0 -0 .24 18 208.08002)" font-size="50" font-family="Calibri" style="white-space: pre;"><tspan y="374" x="1540 1565.34 1590.6799 1616.0199 1641.3599 1666.6998">453345</tspan></text>
      <text transform="matrix(.24 0 -0 .24 18 208.08002)" font-size="50" font-family="Calibri" style="white-space: pre;"><tspan y="374" x="1692.051"> </tspan></text>
    </g>
    <clipPath id="cp63">
      <path transform="matrix(1,0,0,-1,0,792)" d="M 463 488 L 526 488 L 526 506 L 463 506 Z "/>
    </clipPath>
    <g clip-path="url(#cp63)">
      <text transform="matrix(.24 0 -0 .24 18 208.08002)" font-size="50" font-family="Calibri" style="white-space: pre;"><tspan y="374" x="1999.511 2024.851 2050.191 2062.831 2088.1712">17.71</tspan></text>
    </g>
    <clipPath id="cp64">
      <path transform="matrix(1,0,0,-1,0,792)" d="M 463 488 L 526 488 L 526 506 L 463 506 Z "/>
    </clipPath>
    <g clip-path="url(#cp64)">
      <text transform="matrix(.24 0 -0 .24 18 208.08002)" font-size="50" font-family="Calibri" style="white-space: pre;"><tspan y="374" x="2113.5"> </tspan></text>
    </g>
    <clipPath id="cp65">
      <path transform="matrix(1,0,0,-1,0,792)" d="M 72 471 L 304 471 L 304 489 L 72 489 Z "/>
    </clipPath>
    <g clip-path="url(#cp65)">
      <text transform="matrix(.24 0 -0 .24 18 208.08002)" font-size="50" font-family="Calibri" style="white-space: pre;"><tspan y="445" x="225 247.975 280.05003">SUM</tspan></text>
      <text transform="matrix(.24 0 -0 .24 18 208.08002)" font-size="50" font-family="Calibri" style="white-space: pre;"><tspan y="445" x="322.8027"> </tspan></text>
    </g>
    <clipPath id="cp66">
      <path transform="matrix(1,0,0,-1,0,792)" d="M 303 471 L 388 471 L 388 489 L 303 489 Z "/>
    </clipPath>
    <g clip-path="url(#cp66)">
      <text transform="matrix(.24 0 -0 .24 18 208.08002)" font-size="50" font-family="Calibri" style="white-space: pre;"><tspan y="445" x="1191 1216.34 1241.6799">100</tspan></text>
      <text transform="matrix(.24 0 -0 .24 18 208.08002)" font-size="50" font-family="Calibri" style="white-space: pre;"><tspan y="445" x="1267.026"> </tspan></text>
    </g>
    <clipPath id="cp67">
      <path transform="matrix(1,0,0,-1,0,792)" d="M 387 471 L 464 471 L 464 489 L 387 489 Z "/>
    </clipPath>
    <g clip-path="url(#cp67)">
      <text transform="matrix(.24 0 -0 .24 18 208.08002)" font-size="50" font-family="Calibri" style="white-space: pre;"><tspan y="445" x="1540"> </tspan></text>
      <text transform="matrix(.24 0 -0 .24 18 208.08002)" font-size="50" font-family="Calibri" style="white-space: pre;"><tspan y="445" x="1551.304"> </tspan></text>
    </g>
    <clipPath id="cp68">
      <path transform="matrix(1,0,0,-1,0,792)" d="M 463 471 L 526 471 L 526 489 L 463 489 Z "/>
    </clipPath>
    <g clip-path="url(#cp68)">
      <text transform="matrix(.24 0 -0 .24 18 208.08002)" font-size="50" font-family="Calibri" style="white-space: pre;"><tspan y="445" x="1856"> </tspan></text>
    </g>
    <clipPath id="cp69">
      <path transform="matrix(1,0,0,-1,0,792)" d="M 463 471 L 526 471 L 526 489 L 463 489 Z "/>
    </clipPath>
    <g clip-path="url(#cp69)">
      <text transform="matrix(.24 0 -0 .24 18 208.08002)" font-size="50" font-family="Calibri" style="white-space: pre;"><tspan y="445" x="1867.303"> </tspan></text>
    </g>
    <path transform="matrix(1,0,0,-1,0,792)" d="M 71.28 471.6 L 303.84 471.6 L 303.84 470.16 L 71.28 470.16 Z "/>
    <path transform="matrix(1,0,0,-1,0,792)" d="M 303.12 471.6 L 304.56 471.6 L 304.56 470.16 L 303.12 470.16 Z "/>
    <path transform="matrix(1,0,0,-1,0,792)" d="M 304.56 471.6 L 387.6 471.6 L 387.6 470.16 L 304.56 470.16 Z "/>
    <path transform="matrix(1,0,0,-1,0,792)" d="M 386.88 471.6 L 388.32 471.6 L 388.32 470.16 L 386.88 470.16 Z "/>
    <path transform="matrix(1,0,0,-1,0,792)" d="M 388.32 471.6 L 463.44 471.6 L 463.44 470.16 L 388.32 470.16 Z "/>
    <path transform="matrix(1,0,0,-1,0,792)" d="M 462.72 471.6 L 464.16 471.6 L 464.16 470.16 L 462.72 470.16 Z "/>
    <path transform="matrix(1,0,0,-1,0,792)" d="M 464.16 471.6 L 525.12 471.6 L 525.12 470.16 L 464.16 470.16 Z "/>
    <text transform="matrix(.24 0 -0 .24 18 208.08002)" font-size="50" font-family="Calibri" style="white-space: pre;"><tspan y="522" x="225"> </tspan></text>
  </g>
</svg>