<svg viewBox="0 0 471 180" xmlns="http://www.w3.org/2000/svg" xmlns:xlink="http://www.w3.org/1999/xlink"><clipPath id="a"><path d="m72 697h231v22h-231z" transform="matrix(1 0 0 -1 0 792)"/></clipPath><clipPath id="b"><path d="m302 697h90v22h-90z" transform="matrix(1 0 0 -1 0 792)"/></clipPath><clipPath id="c"><path d="m302 697h90v22h-90z" transform="matrix(1 0 0 -1 0 792)"/></clipPath><clipPath id="d"><path d="m391 697h82v22h-82z" transform="matrix(1 0 0 -1 0 792)"/></clipPath><clipPath id="e"><path d="m391 697h82v22h-82z" transform="matrix(1 0 0 -1 0 792)"/></clipPath><clipPath id="f"><path d="m472 697h69v22h-69z" transform="matrix(1 0 0 -1 0 792)"/></clipPath><clipPath id="g"><path d="m472 697h69v22h-69z" transform="matrix(1 0 0 -1 0 792)"/></clipPath><clipPath id="h"><path d="m72 679h231v18h-231z" transform="matrix(1 0 0 -1 0 792)"/></clipPath><clipPath id="i"><path d="m302 679h90v18h-90z" transform="matrix(1 0 0 -1 0 792)"/></clipPath><clipPath id="j"><path d="m302 679h90v18h-90z" transform="matrix(1 0 0 -1 0 792)"/></clipPath><clipPath id="k"><path d="m391 679h82v18h-82z" transform="matrix(1 0 0 -1 0 792)"/></clipPath><clipPath id="l"><path d="m391 679h82v18h-82z" transform="matrix(1 0 0 -1 0 792)"/></clipPath><clipPath id="m"><path d="m472 679h69v18h-69z" transform="matrix(1 0 0 -1 0 792)"/></clipPath><clipPath id="n"><path d="m472 679h69v18h-69z" transform="matrix(1 0 0 -1 0 792)"/></clipPath><clipPath id="o"><path d="m72 635h231v45h-231z" transform="matrix(1 0 0 -1 0 792)"/></clipPath><clipPath id="p"><path d="m302 635h90v45h-90z" transform="matrix(1 0 0 -1 0 792)"/></clipPath><clipPath id="q"><path d="m302 635h90v45h-90z" transform="matrix(1 0 0 -1 0 792)"/></clipPath><clipPath id="r"><path d="m391 635h82v45h-82z" transform="matrix(1 0 0 -1 0 792)"/></clipPath><clipPath id="s"><path d="m391 635h82v45h-82z" transform="matrix(1 0 0 -1 0 792)"/></clipPath><clipPath id="t"><path d="m472 635h69v45h-69z" transform="matrix(1 0 0 -1 0 792)"/></clipPath><clipPath id="u"><path d="m472 635h69v45h-69z" transform="matrix(1 0 0 -1 0 792)"/></clipPath><clipPath id="v"><path d="m472 635h69v45h-69z" transform="matrix(1 0 0 -1 0 792)"/></clipPath><clipPath id="w"><path d="m72 591h231v45h-231z" transform="matrix(1 0 0 -1 0 792)"/></clipPath><clipPath id="x"><path d="m302 591h90v45h-90z" transform="matrix(1 0 0 -1 0 792)"/></clipPath><clipPath id="y"><path d="m302 591h90v45h-90z" transform="matrix(1 0 0 -1 0 792)"/></clipPath><clipPath id="z"><path d="m391 591h82v45h-82z" transform="matrix(1 0 0 -1 0 792)"/></clipPath><clipPath id="A"><path d="m391 591h82v45h-82z" transform="matrix(1 0 0 -1 0 792)"/></clipPath><clipPath id="B"><path d="m472 591h69v45h-69z" transform="matrix(1 0 0 -1 0 792)"/></clipPath><clipPath id="C"><path d="m472 591h69v45h-69z" transform="matrix(1 0 0 -1 0 792)"/></clipPath><clipPath id="D"><path d="m472 591h69v45h-69z" transform="matrix(1 0 0 -1 0 792)"/></clipPath><clipPath id="E"><path d="m72 561h231v31h-231z" transform="matrix(1 0 0 -1 0 792)"/></clipPath><clipPath id="F"><path d="m302 561h90v31h-90z" transform="matrix(1 0 0 -1 0 792)"/></clipPath><clipPath id="G"><path d="m302 561h90v31h-90z" transform="matrix(1 0 0 -1 0 792)"/></clipPath><clipPath id="H"><path d="m391 561h82v31h-82z" transform="matrix(1 0 0 -1 0 792)"/></clipPath><clipPath id="I"><path d="m391 561h82v31h-82z" transform="matrix(1 0 0 -1 0 792)"/></clipPath><clipPath id="J"><path d="m472 561h69v31h-69z" transform="matrix(1 0 0 -1 0 792)"/></clipPath><clipPath id="K"><path d="m472 561h69v31h-69z" transform="matrix(1 0 0 -1 0 792)"/></clipPath><clipPath id="L"><path d="m72 545h231v17h-231z" transform="matrix(1 0 0 -1 0 792)"/></clipPath><clipPath id="M"><path d="m302 545h90v17h-90z" transform="matrix(1 0 0 -1 0 792)"/></clipPath><clipPath id="N"><path d="m302 545h90v17h-90z" transform="matrix(1 0 0 -1 0 792)"/></clipPath><clipPath id="O"><path d="m391 545h82v17h-82z" transform="matrix(1 0 0 -1 0 792)"/></clipPath><clipPath id="P"><path d="m391 545h82v17h-82z" transform="matrix(1 0 0 -1 0 792)"/></clipPath><clipPath id="Q"><path d="m472 545h69v17h-69z" transform="matrix(1 0 0 -1 0 792)"/></clipPath><clipPath id="R"><path d="m472 545h69v17h-69z" transform="matrix(1 0 0 -1 0 792)"/></clipPath><g enable-background="new" transform="translate(-71.279999 -72)"><g clip-path="url(#a)"><text font-family="Calibri" font-size="50" transform="matrix(.24 0 0 .24 18 208.08002)"><tspan x="225 257.275 281.225 321.165" y="-500">Name</tspan></text><text transform="matrix(.24 0 0 .24 18 208.08002)"><tspan x="346.0449" y="-500"/></text></g><g clip-path="url(#b)"><text font-family="Calibri" font-size="50" transform="matrix(.24 0 0 .24 18 208.08002)"><tspan x="1185 1210.83 1235.71 1259.6599 1282.3899" y="-500">Peak</tspan></text></g><g clip-path="url(#c)"><text font-family="Calibri" font-size="50" transform="matrix(.24 0 0 .24 18 208.08002)"><tspan x="1293.691 1322.621 1340.0509 1364.9309 1388.8809" y="-500">Area</tspan></text><text font-family="Calibri" font-size="50" transform="matrix(.24 0 0 .24 18 208.08002)"><tspan x="1400.185" y="-500">%</tspan></text><text transform="matrix(.24 0 0 .24 18 208.08002)"><tspan x="1435.927" y="-500"/></text></g><g clip-path="url(#d)"><text font-family="Calibri" font-size="50" transform="matrix(.24 0 0 .24 18 208.08002)"><tspan x="1555 1580.83 1605.71 1629.6599 1652.3899" y="-500">Peak</tspan></text></g><g clip-path="url(#e)"><text font-family="Calibri" font-size="50" transform="matrix(.24 0 0 .24 18 208.08002)"><tspan x="1663.691 1692.6211 1710.0512 1734.9312" y="-500">Area</tspan></text><text transform="matrix(.24 0 0 .24 18 208.08002)"><tspan x="1758.882" y="-500"/></text></g><g clip-path="url(#f)"><text font-family="Calibri" font-size="50" transform="matrix(.24 0 0 .24 18 208.08002)"><tspan x="2004.467 2031.6171 2055.982 2067.2869 2082.4468 2122.3868 2133.8616 2160.1317" y="-500">RT (min)</tspan></text></g><g clip-path="url(#g)"><text transform="matrix(.24 0 0 .24 18 208.08002)"><tspan x="2175.292" y="-500"/></text></g><g transform="matrix(1 0 0 -1 0 792)"><path d="m72 720h230.4v-1.44h-230.4z"/><path d="m302.4 720h1.44v-1.44h-1.44z"/><path d="m303.84 720h87.36v-1.44h-87.36z"/><path d="m391.2 720h1.44v-1.44h-1.44z"/><path d="m392.64 720h79.68v-1.44h-79.68z"/><path d="m472.32 720h1.44v-1.44h-1.44z"/><path d="m473.76 720h66.24v-1.44h-66.24z"/></g><g clip-path="url(#h)"><text font-family="Calibri" font-size="50" transform="matrix(.24 0 0 .24 18 208.08002)"><tspan x="225 250.83 262.31 288.59 313.47 330.9 342.37998 368.65998" y="-420">Piperine</tspan></text><text transform="matrix(.24 0 0 .24 18 208.08002)"><tspan x="393.5059" y="-420"/></text></g><g clip-path="url(#i)"><text font-family="Calibri" font-size="50" transform="matrix(.24 0 0 .24 18 208.08002)"><tspan x="1185 1210.34 1235.6799 1248.32 1273.6599" y="-411">94.48</tspan></text></g><g clip-path="url(#j)"><text transform="matrix(.24 0 0 .24 18 208.08002)"><tspan x="1298.989" y="-411"/></text></g><g clip-path="url(#k)"><text font-family="Calibri" font-size="50" transform="matrix(.24 0 0 .24 18 208.08002)"><tspan x="1555 1580.34 1605.6799 1631.0199 1656.3599 1681.6998 1707.0398 1732.3798" y="-420">47448837</tspan></text></g><g clip-path="url(#l)"><text transform="matrix(.24 0 0 .24 18 208.08002)"><tspan x="1757.734" y="-420"/></text></g><g clip-path="url(#m)"><text font-family="Calibri" font-size="50" transform="matrix(.24 0 0 .24 18 208.08002)"><tspan x="2061.303 2086.643 2111.9832 2124.6234 2149.9635" y="-420">37.14</tspan></text></g><g clip-path="url(#n)"><text transform="matrix(.24 0 0 .24 18 208.08002)"><tspan x="2175.292" y="-420"/></text></g><path d="m72 697.92h230.4v-1.44h-230.4z" transform="matrix(1 0 0 -1 0 792)"/><path d="m302.4 697.92h1.44v-1.44h-1.44z" transform="matrix(1 0 0 -1 0 792)"/><path d="m303.84 697.92h87.36v-1.44h-87.36z" transform="matrix(1 0 0 -1 0 792)"/><path d="m391.2 697.92h1.44v-1.44h-1.44z" transform="matrix(1 0 0 -1 0 792)"/><path d="m392.64 697.92h79.68v-1.44h-79.68z" transform="matrix(1 0 0 -1 0 792)"/><path d="m472.32 697.92h1.44v-1.44h-1.44z" transform="matrix(1 0 0 -1 0 792)"/><path d="m473.76 697.92h66.24v-1.44h-66.24z" transform="matrix(1 0 0 -1 0 792)"/><g clip-path="url(#o)"><g font-family="Calibri" font-size="50"><text transform="matrix(.24 0 0 .24 18 208.08002)"><tspan x="225" y="-350">2</tspan></text><text transform="matrix(.24 0 0 .24 18 208.08002)"><tspan x="250.3418" y="-350">-</tspan></text><text transform="matrix(.24 0 0 .24 18 208.08002)"><tspan x="265.6494 280.9794" y="-350">[4</tspan></text><text transform="matrix(.24 0 0 .24 18 208.08002)"><tspan x="306.3232" y="-350">-</tspan></text><text transform="matrix(.24 0 0 .24 18 208.08002)"><tspan x="321.6309 364.3809 389.2609 406.0109 432.28089 454.9109" y="-350">Methyl</tspan></text><text transform="matrix(.24 0 0 .24 18 208.08002)"><tspan x="466.3818" y="-350">-</tspan></text><text transform="matrix(.24 0 0 .24 18 208.08002)"><tspan x="481.6895" y="-350">6</tspan></text><text transform="matrix(.24 0 0 .24 18 208.08002)"><tspan x="507.0312" y="-350">-</tspan></text><text transform="matrix(.24 0 0 .24 18 208.08002)"><tspan x="522.3389 537.4989 562.8589 575.3189 600.6789 613.1389" y="-350">(2,6,6</tspan></text><text transform="matrix(.24 0 0 .24 18 208.08002)"><tspan x="638.4766" y="-350">-</tspan></text><text transform="matrix(.24 0 0 .24 18 208.08002)"><tspan x="653.7842 670.5342 687.9642 699.4392 739.3792 764.2592 781.0092 807.27926 829.90927 841.3843 862.5293 885.1593 906.3043 917.77938 944.14437 970.41439 995.2944" y="-350">trimethylcyclohex</tspan></text><text transform="matrix(.24 0 0 .24 18 208.08002)"><tspan x="1016.943" y="-350">-</tspan></text><text transform="matrix(.24 0 0 .24 18 208.08002)"><tspan x="1032.251" y="-350">1</tspan></text><text transform="matrix(.24 0 0 .24 18 208.08002)"><tspan x="1057.593" y="-350">-</tspan></text><text transform="matrix(.24 0 0 .24 18 208.08002)"><tspan x="225 249.88 276.16 298.79 310.27 325.44999 351.72999 376.61 398.28999" y="-289">enyl)hexa</tspan></text><text transform="matrix(.24 0 0 .24 18 208.08002)"><tspan x="422.168" y="-289">-</tspan></text><text transform="matrix(.24 0 0 .24 18 208.08002)"><tspan x="437.4756 462.81559 475.30558 500.64558 513.13558" y="-289">1,3,5</tspan></text><text transform="matrix(.24 0 0 .24 18 208.08002)"><tspan x="538.4521" y="-289">-</tspan></text><text transform="matrix(.24 0 0 .24 18 208.08002)"><tspan x="553.7598 570.5098 587.9398 599.41488 624.29489 650.5649 673.1949 684.6699 699.9999 721.1449 743.7749 764.9199 776.39498 802.75997 829.02999 853.91" y="-289">trienyl]cyclohex</tspan></text><text transform="matrix(.24 0 0 .24 18 208.08002)"><tspan x="875.5615" y="-289">-</tspan></text><text transform="matrix(.24 0 0 .24 18 208.08002)"><tspan x="890.8691" y="-289">1</tspan></text><text transform="matrix(.24 0 0 .24 18 208.08002)"><tspan x="916.2109" y="-289">-</tspan></text><text transform="matrix(.24 0 0 .24 18 208.08002)"><tspan x="931.5186 956.3986" y="-289">en</tspan></text><text transform="matrix(.24 0 0 .24 18 208.08002)"><tspan x="982.666" y="-289">-</tspan></text><text transform="matrix(.24 0 0 .24 18 208.08002)"><tspan x="997.9736" y="-289">1</tspan></text><text transform="matrix(.24 0 0 .24 18 208.08002)"><tspan x="1023.315" y="-289">-</tspan></text><text transform="matrix(.24 0 0 .24 18 208.08002)"><tspan x="225 246.14499 270.095 287.52503 313.795 340.16004 361.81504 385.76506 397.24006 423.51005 448.39006 474.66004 497.29005 523.56008" y="-228">carboxaldehyde</tspan></text></g><text transform="matrix(.24 0 0 .24 18 208.08002)"><tspan x="548.4375" y="-228"/></text></g><g clip-path="url(#p)"><text font-family="Calibri" font-size="50" transform="matrix(.24 0 0 .24 18 208.08002)"><tspan x="1185 1210.34 1222.98 1248.32" y="-228">2.29</tspan></text></g><g clip-path="url(#q)"><text transform="matrix(.24 0 0 .24 18 208.08002)"><tspan x="1273.647" y="-228"/></text></g><g clip-path="url(#r)"><text font-family="Calibri" font-size="50" transform="matrix(.24 0 0 .24 18 208.08002)"><tspan x="1555 1580.34 1605.6799 1631.0199 1656.3599 1681.6998 1707.0398" y="-350">1149898</tspan></text></g><g clip-path="url(#s)"><text transform="matrix(.24 0 0 .24 18 208.08002)"><tspan x="1732.392" y="-350"/></text></g><g clip-path="url(#t)"><text font-family="Calibri" font-size="50" transform="matrix(.24 0 0 .24 18 208.08002)"><tspan x="2061.303 2086.643 2111.9832 2124.6234" y="-350">34.5</tspan></text></g><g clip-path="url(#u)"><text font-family="Calibri" font-size="50" transform="matrix(.24 0 0 .24 18 208.08002)"><tspan x="2149.95" y="-350">3</tspan></text></g><g clip-path="url(#v)"><text transform="matrix(.24 0 0 .24 18 208.08002)"><tspan x="2175.292" y="-350"/></text></g><g clip-path="url(#w)"><g font-family="Calibri" font-size="50"><text transform="matrix(.24 0 0 .24 18 208.08002)"><tspan x="225" y="-167">t</tspan></text><text transform="matrix(.24 0 0 .24 18 208.08002)"><tspan x="241.748" y="-167">-</tspan></text><text transform="matrix(.24 0 0 .24 18 208.08002)"><tspan x="257.0557 284.2507 310.5207 327.2707 349.9007" y="-167">Butyl</tspan></text><text transform="matrix(.24 0 0 .24 18 208.08002)"><tspan x="361.377" y="-167">-</tspan></text><text transform="matrix(.24 0 0 .24 18 208.08002)"><tspan x="376.6846 391.8446" y="-167">(2</tspan></text><text transform="matrix(.24 0 0 .24 18 208.08002)"><tspan x="417.1875" y="-167">-</tspan></text><text transform="matrix(.24 0 0 .24 18 208.08002)"><tspan x="432.4951 447.82508" y="-167">[3</tspan></text><text transform="matrix(.24 0 0 .24 18 208.08002)"><tspan x="473.1689" y="-167">-</tspan></text><text transform="matrix(.24 0 0 .24 18 208.08002)"><tspan x="488.4766 503.6366 528.9966 541.4566" y="-167">(2,2</tspan></text><text transform="matrix(.24 0 0 .24 18 208.08002)"><tspan x="566.7969" y="-167">-</tspan></text><text transform="matrix(.24 0 0 .24 18 208.08002)"><tspan x="582.1045 608.3745 619.84957 659.78958 684.66958 701.41958 727.6896 750.3196" y="-167">dimethyl</tspan></text><text transform="matrix(.24 0 0 .24 18 208.08002)"><tspan x="761.792" y="-167">-</tspan></text><text transform="matrix(.24 0 0 .24 18 208.08002)"><tspan x="777.0996" y="-167">6</tspan></text><text transform="matrix(.24 0 0 .24 18 208.08002)"><tspan x="802.4414" y="-167">-</tspan></text><text transform="matrix(.24 0 0 .24 18 208.08002)"><tspan x="817.749 857.689 882.56906 899.31906 925.58908 948.21908 959.6941 984.5741 1010.8441" y="-167">methylene</tspan></text><text transform="matrix(.24 0 0 .24 18 208.08002)"><tspan x="1035.718" y="-167">-</tspan></text><text transform="matrix(.24 0 0 .24 18 208.08002)"><tspan x="225 246.145 268.79 289.935 301.43 327.775 354.06999 378.96498 400.60997 423.25495 434.74995" y="-105">cyclohexyl)</tspan></text><text transform="matrix(.24 0 0 .24 18 208.08002)"><tspan x="449.8291" y="-105">-</tspan></text><text transform="matrix(.24 0 0 .24 18 208.08002)"><tspan x="465.1367 491.40669 508.8267 535.1967 561.46676 584.08676 595.55679" y="-105">propyl]</tspan></text><text transform="matrix(.24 0 0 .24 18 208.08002)"><tspan x="610.9131" y="-105">-</tspan></text><text transform="matrix(.24 0 0 .24 18 208.08002)"><tspan x="626.2207 641.55068 666.8906 679.3656 704.70559 720.0355 746.30557 757.7806 774.5306 800.8006 812.27566 836.22567" y="-105">[1,3]dithian</tspan></text><text transform="matrix(.24 0 0 .24 18 208.08002)"><tspan x="862.5" y="-105">-</tspan></text><text transform="matrix(.24 0 0 .24 18 208.08002)"><tspan x="877.8076" y="-105">2</tspan></text><text transform="matrix(.24 0 0 .24 18 208.08002)"><tspan x="903.1494" y="-105">-</tspan></text><text transform="matrix(.24 0 0 .24 18 208.08002)"><tspan x="918.457 941.087 952.56698" y="-105">yl)</tspan></text><text transform="matrix(.24 0 0 .24 18 208.08002)"><tspan x="967.7246" y="-105">-</tspan></text><text transform="matrix(.24 0 0 .24 18 208.08002)"><tspan x="983.0322 1009.30227 1020.7773 1060.7173 1085.5973 1102.3473 1128.6173 1151.2473" y="-105">dimethyl</tspan></text><text transform="matrix(.24 0 0 .24 18 208.08002)"><tspan x="1162.72" y="-105">-</tspan></text><text transform="matrix(.24 0 0 .24 18 208.08002)"><tspan x="225 244.55501 256.03 267.505 291.45503 317.725" y="-44">silane</tspan></text></g><text transform="matrix(.24 0 0 .24 18 208.08002)"><tspan x="342.6025" y="-44"/></text></g><g clip-path="url(#x)"><text font-family="Calibri" font-size="50" transform="matrix(.24 0 0 .24 18 208.08002)"><tspan x="1185 1210.34 1222.98 1248.32" y="-44">1.98</tspan></text></g><g clip-path="url(#y)"><text transform="matrix(.24 0 0 .24 18 208.08002)"><tspan x="1273.647" y="-44"/></text></g><g clip-path="url(#z)"><text font-family="Calibri" font-size="50" transform="matrix(.24 0 0 .24 18 208.08002)"><tspan x="1555 1580.34 1605.6799 1631.0199 1656.3599 1681.6998" y="-167">996149</tspan></text></g><g clip-path="url(#A)"><text transform="matrix(.24 0 0 .24 18 208.08002)"><tspan x="1707.051" y="-167"/></text></g><g clip-path="url(#B)"><text font-family="Calibri" font-size="50" transform="matrix(.24 0 0 .24 18 208.08002)"><tspan x="2086.645 2111.985 2124.6253" y="-167">1.1</tspan></text></g><g clip-path="url(#C)"><text font-family="Calibri" font-size="50" transform="matrix(.24 0 0 .24 18 208.08002)"><tspan x="2149.95" y="-167">7</tspan></text></g><g clip-path="url(#D)"><text transform="matrix(.24 0 0 .24 18 208.08002)"><tspan x="2175.292" y="-167"/></text></g><g clip-path="url(#E)"><g font-family="Calibri" font-size="50"><text transform="matrix(.24 0 0 .24 18 208.08002)"><tspan x="225" y="17">9</tspan></text><text transform="matrix(.24 0 0 .24 18 208.08002)"><tspan x="250.3418" y="17">-</tspan></text><text transform="matrix(.24 0 0 .24 18 208.08002)"><tspan x="265.6494 298.75444 319.8994 336.6494 360.59944 386.86943 411.74943 432.8944 457.7744 484.0444 510.40943 521.88449 543.0295 554.3345 578.2845 599.4295 610.90457 637.17459 649.64956 660.9545 676.11459" y="17">Octadecenoic acid, (2</tspan></text><text transform="matrix(.24 0 0 .24 18 208.08002)"><tspan x="701.4404" y="17">-</tspan></text><text transform="matrix(.24 0 0 .24 18 208.08002)"><tspan x="716.748 743.018 769.288 794.158 820.42807 843.04806" y="17">phenyl</tspan></text><text transform="matrix(.24 0 0 .24 18 208.08002)"><tspan x="854.541" y="17">-</tspan></text><text transform="matrix(.24 0 0 .24 18 208.08002)"><tspan x="869.8486 895.1886 907.6786" y="17">1,3</tspan></text><text transform="matrix(.24 0 0 .24 18 208.08002)"><tspan x="933.0078" y="17">-</tspan></text><text transform="matrix(.24 0 0 .24 18 208.08002)"><tspan x="948.3154 974.58547 986.0605 1012.4255 1034.0805 1060.4454 1071.9204 1095.8704" y="17">dioxolan</tspan></text><text transform="matrix(.24 0 0 .24 18 208.08002)"><tspan x="1122.144" y="17">-</tspan></text><text transform="matrix(.24 0 0 .24 18 208.08002)"><tspan x="1137.451" y="17">4</tspan></text><text transform="matrix(.24 0 0 .24 18 208.08002)"><tspan x="1162.793" y="17">-</tspan></text><text transform="matrix(.24 0 0 .24 18 208.08002)"><tspan x="225 247.62999 259.10499 274.26499 314.205 339.085 355.835 382.10499 404.735 416.21 427.51499 452.395 471.94999 488.69999 513.57998 531.00997 543.4849 554.7899 575.93496 587.41" y="78">yl)methyl ester, cis</tspan></text><text transform="matrix(.24 0 0 .24 18 208.08002)"><tspan x="606.958" y="78">-</tspan></text></g><text transform="matrix(.24 0 0 .24 18 208.08002)"><tspan x="622.2656" y="78"/></text></g><g clip-path="url(#F)"><text font-family="Calibri" font-size="50" transform="matrix(.24 0 0 .24 18 208.08002)"><tspan x="1185 1210.34 1222.98 1248.32" y="78">1.25</tspan></text></g><g clip-path="url(#G)"><text transform="matrix(.24 0 0 .24 18 208.08002)"><tspan x="1273.647" y="78"/></text></g><g clip-path="url(#H)"><text font-family="Calibri" font-size="50" transform="matrix(.24 0 0 .24 18 208.08002)"><tspan x="1555 1580.34 1605.6799 1631.0199" y="17">6276</tspan></text></g><g clip-path="url(#I)"><text font-family="Calibri" font-size="50" transform="matrix(.24 0 0 .24 18 208.08002)"><tspan x="1656.367 1681.7069" y="17">23</tspan></text><text transform="matrix(.24 0 0 .24 18 208.08002)"><tspan x="1707.051" y="17"/></text></g><g clip-path="url(#J)"><text font-family="Calibri" font-size="50" transform="matrix(.24 0 0 .24 18 208.08002)"><tspan x="2086.645 2111.985 2124.6253 2149.9654" y="17">1.99</tspan></text></g><g clip-path="url(#K)"><text transform="matrix(.24 0 0 .24 18 208.08002)"><tspan x="2175.292" y="17"/></text></g><g clip-path="url(#L)"><text font-family="Calibri" font-size="50" transform="matrix(.24 0 0 .24 18 208.08002)"><tspan x="225 247.975 280.05003" y="139">SUM</tspan></text><text transform="matrix(.24 0 0 .24 18 208.08002)"><tspan x="322.8027" y="139"/></text></g><g clip-path="url(#M)"><text font-family="Calibri" font-size="50" transform="matrix(.24 0 0 .24 18 208.08002)"><tspan x="1185 1210.34 1235.6799" y="139">100</tspan></text></g><g clip-path="url(#N)"><text transform="matrix(.24 0 0 .24 18 208.08002)"><tspan x="1261.025" y="139"/></text></g><g clip-path="url(#O)"><text transform="matrix(.24 0 0 .24 18 208.08002)"><tspan x="1555" y="139"/></text></g><g clip-path="url(#P)"><text transform="matrix(.24 0 0 .24 18 208.08002)"><tspan x="1566.303" y="139"/></text></g><g clip-path="url(#Q)"><text transform="matrix(.24 0 0 .24 18 208.08002)"><tspan x="2163.988" y="139"/></text></g><g clip-path="url(#R)"><text transform="matrix(.24 0 0 .24 18 208.08002)"><tspan x="2175.292" y="139"/></text></g><path d="m71.28 545.04h231.12v-1.44h-231.12z" transform="matrix(1 0 0 -1 0 792)"/><path d="m301.68 545.04h1.44v-1.44h-1.44z" transform="matrix(1 0 0 -1 0 792)"/><path d="m303.12 545.04h88.08v-1.44h-88.08z" transform="matrix(1 0 0 -1 0 792)"/><path d="m390.48 545.04h1.44v-1.44h-1.44z" transform="matrix(1 0 0 -1 0 792)"/><path d="m391.92 545.04h80.4v-1.44h-80.4z" transform="matrix(1 0 0 -1 0 792)"/><path d="m471.6 545.04h1.44v-1.44h-1.44z" transform="matrix(1 0 0 -1 0 792)"/><path d="m473.04 545.04h66.96v-1.44h-66.96z" transform="matrix(1 0 0 -1 0 792)"/><text transform="matrix(.24 0 0 .24 18 208.08002)"><tspan x="225" y="216"/></text></g></svg>