<?xml version="1.0" encoding="utf-8"?>
<svg viewBox="0 0 471 180" xmlns="http://www.w3.org/2000/svg">
  <g enable-background="new" transform="matrix(1, 0, 0, 1, -71.279999, -72)">
    <clipPath id="cp0">
      <path transform="matrix(1,0,0,-1,0,792)" d="M 72 697 L 303 697 L 303 719 L 72 719 Z "/>
    </clipPath>
    <g clip-path="url(#cp0)">
      <text transform="matrix(.24 0 -0 .24 18 208.08002)" font-size="50" font-family="Calibri" style="white-space: pre;"><tspan y="-500" x="225 257.275 281.225 321.165">Name</tspan></text>
      <text transform="matrix(.24 0 -0 .24 18 208.08002)" font-size="50" font-family="Calibri" style="white-space: pre;"><tspan y="-500" x="346.0449"> </tspan></text>
    </g>
    <clipPath id="cp1">
      <path transform="matrix(1,0,0,-1,0,792)" d="M 302 697 L 392 697 L 392 719 L 302 719 Z "/>
    </clipPath>
    <g clip-path="url(#cp1)">
      <text transform="matrix(.24 0 -0 .24 18 208.08002)" font-size="50" font-family="Calibri" style="white-space: pre;"><tspan y="-500" x="1185 1210.83 1235.71 1259.6599 1282.3899">Peak </tspan></text>
    </g>
    <clipPath id="cp2">
      <path transform="matrix(1,0,0,-1,0,792)" d="M 302 697 L 392 697 L 392 719 L 302 719 Z "/>
    </clipPath>
    <g clip-path="url(#cp2)">
      <text transform="matrix(.24 0 -0 .24 18 208.08002)" font-size="50" font-family="Calibri" style="white-space: pre;"><tspan y="-500" x="1293.691 1322.621 1340.0509 1364.9309 1388.8809">Area </tspan></text>
      <text transform="matrix(.24 0 -0 .24 18 208.08002)" font-size="50" font-family="Calibri" style="white-space: pre;"><tspan y="-500" x="1400.185">%</tspan></text>
      <text transform="matrix(.24 0 -0 .24 18 208.08002)" font-size="50" font-family="Calibri" style="white-space: pre;"><tspan y="-500" x="1435.927"> </tspan></text>
    </g>
    <clipPath id="cp3">
      <path transform="matrix(1,0,0,-1,0,792)" d="M 391 697 L 473 697 L 473 719 L 391 719 Z "/>
    </clipPath>
    <g clip-path="url(#cp3)">
      <text transform="matrix(.24 0 -0 .24 18 208.08002)" font-size="50" font-family="Calibri" style="white-space: pre;"><tspan y="-500" x="1555 1580.83 1605.71 1629.6599 1652.3899">Peak </tspan></text>
    </g>
    <clipPath id="cp4">
      <path transform="matrix(1,0,0,-1,0,792)" d="M 391 697 L 473 697 L 473 719 L 391 719 Z "/>
    </clipPath>
    <g clip-path="url(#cp4)">
      <text transform="matrix(.24 0 -0 .24 18 208.08002)" font-size="50" font-family="Calibri" style="white-space: pre;"><tspan y="-500" x="1663.691 1692.6211 1710.0512 1734.9312">Area</tspan></text>
      <text transform="matrix(.24 0 -0 .24 18 208.08002)" font-size="50" font-family="Calibri" style="white-space: pre;"><tspan y="-500" x="1758.882"> </tspan></text>
    </g>
    <clipPath id="cp5">
      <path transform="matrix(1,0,0,-1,0,792)" d="M 472 697 L 541 697 L 541 719 L 472 719 Z "/>
    </clipPath>
    <g clip-path="url(#cp5)">
      <text transform="matrix(.24 0 -0 .24 18 208.08002)" font-size="50" font-family="Calibri" style="white-space: pre;"><tspan y="-500" x="2004.467 2031.6171 2055.982 2067.2869 2082.4468 2122.3868 2133.8616 2160.1317">RT (min)</tspan></text>
    </g>
    <clipPath id="cp6">
      <path transform="matrix(1,0,0,-1,0,792)" d="M 472 697 L 541 697 L 541 719 L 472 719 Z "/>
    </clipPath>
    <g clip-path="url(#cp6)">
      <text transform="matrix(.24 0 -0 .24 18 208.08002)" font-size="50" font-family="Calibri" style="white-space: pre;"><tspan y="-500" x="2175.292"> </tspan></text>
    </g>
    <path transform="matrix(1,0,0,-1,0,792)" d="M 72 720 L 302.4 720 L 302.4 718.56 L 72 718.56 Z "/>
    <path transform="matrix(1,0,0,-1,0,792)" d="M 302.4 720 L 303.84 720 L 303.84 718.56 L 302.4 718.56 Z "/>
    <path transform="matrix(1,0,0,-1,0,792)" d="M 303.84 720 L 391.2 720 L 391.2 718.56 L 303.84 718.56 Z "/>
    <path transform="matrix(1,0,0,-1,0,792)" d="M 391.2 720 L 392.64 720 L 392.64 718.56 L 391.2 718.56 Z "/>
    <path transform="matrix(1,0,0,-1,0,792)" d="M 392.64 720 L 472.32 720 L 472.32 718.56 L 392.64 718.56 Z "/>
    <path transform="matrix(1,0,0,-1,0,792)" d="M 472.32 720 L 473.76 720 L 473.76 718.56 L 472.32 718.56 Z "/>
    <path transform="matrix(1,0,0,-1,0,792)" d="M 473.76 720 L 540 720 L 540 718.56 L 473.76 718.56 Z "/>
    <clipPath id="cp7">
      <path transform="matrix(1,0,0,-1,0,792)" d="M 72 679 L 303 679 L 303 697 L 72 697 Z "/>
    </clipPath>
    <g clip-path="url(#cp7)">
      <text transform="matrix(.24 0 -0 .24 18 208.08002)" font-size="50" font-family="Calibri" style="white-space: pre;"><tspan y="-420" x="225 250.83 262.31 288.59 313.47 330.9 342.37998 368.65998">Piperine</tspan></text>
      <text transform="matrix(.24 0 -0 .24 18 208.08002)" font-size="50" font-family="Calibri" style="white-space: pre;"><tspan y="-420" x="393.5059"> </tspan></text>
    </g>
    <clipPath id="cp8">
      <path transform="matrix(1,0,0,-1,0,792)" d="M 302 679 L 392 679 L 392 697 L 302 697 Z "/>
    </clipPath>
    <g clip-path="url(#cp8)">
      <text transform="matrix(.24 0 -0 .24 18 208.08002)" font-size="50" font-family="Calibri" style="white-space: pre;"><tspan y="-411" x="1185 1210.34 1235.6799 1248.32 1273.6599">94.48</tspan></text>
    </g>
    <clipPath id="cp9">
      <path transform="matrix(1,0,0,-1,0,792)" d="M 302 679 L 392 679 L 392 697 L 302 697 Z "/>
    </clipPath>
    <g clip-path="url(#cp9)">
      <text transform="matrix(.24 0 -0 .24 18 208.08002)" font-size="50" font-family="Calibri" style="white-space: pre;"><tspan y="-411" x="1298.989"> </tspan></text>
    </g>
    <clipPath id="cp10">
      <path transform="matrix(1,0,0,-1,0,792)" d="M 391 679 L 473 679 L 473 697 L 391 697 Z "/>
    </clipPath>
    <g clip-path="url(#cp10)">
      <text transform="matrix(.24 0 -0 .24 18 208.08002)" font-size="50" font-family="Calibri" style="white-space: pre;"><tspan y="-420" x="1555 1580.34 1605.6799 1631.0199 1656.3599 1681.6998 1707.0398 1732.3798">47448837</tspan></text>
    </g>
    <clipPath id="cp11">
      <path transform="matrix(1,0,0,-1,0,792)" d="M 391 679 L 473 679 L 473 697 L 391 697 Z "/>
    </clipPath>
    <g clip-path="url(#cp11)">
      <text transform="matrix(.24 0 -0 .24 18 208.08002)" font-size="50" font-family="Calibri" style="white-space: pre;"><tspan y="-420" x="1757.734"> </tspan></text>
    </g>
    <clipPath id="cp12">
      <path transform="matrix(1,0,0,-1,0,792)" d="M 472 679 L 541 679 L 541 697 L 472 697 Z "/>
    </clipPath>
    <g clip-path="url(#cp12)">
      <text transform="matrix(.24 0 -0 .24 18 208.08002)" font-size="50" font-family="Calibri" style="white-space: pre;"><tspan y="-420" x="2061.303 2086.643 2111.9832 2124.6234 2149.9635">37.14</tspan></text>
    </g>
    <clipPath id="cp13">
      <path transform="matrix(1,0,0,-1,0,792)" d="M 472 679 L 541 679 L 541 697 L 472 697 Z "/>
    </clipPath>
    <g clip-path="url(#cp13)">
      <text transform="matrix(.24 0 -0 .24 18 208.08002)" font-size="50" font-family="Calibri" style="white-space: pre;"><tspan y="-420" x="2175.292"> </tspan></text>
    </g>
    <path transform="matrix(1,0,0,-1,0,792)" d="M 72 697.92 L 302.4 697.92 L 302.4 696.48 L 72 696.48 Z "/>
    <path transform="matrix(1,0,0,-1,0,792)" d="M 302.4 697.92 L 303.84 697.92 L 303.84 696.48 L 302.4 696.48 Z "/>
    <path transform="matrix(1,0,0,-1,0,792)" d="M 303.84 697.92 L 391.2 697.92 L 391.2 696.48 L 303.84 696.48 Z "/>
    <path transform="matrix(1,0,0,-1,0,792)" d="M 391.2 697.92 L 392.64 697.92 L 392.64 696.48 L 391.2 696.48 Z "/>
    <path transform="matrix(1,0,0,-1,0,792)" d="M 392.64 697.92 L 472.32 697.92 L 472.32 696.48 L 392.64 696.48 Z "/>
    <path transform="matrix(1,0,0,-1,0,792)" d="M 472.32 697.92 L 473.76 697.92 L 473.76 696.48 L 472.32 696.48 Z "/>
    <path transform="matrix(1,0,0,-1,0,792)" d="M 473.76 697.92 L 540 697.92 L 540 696.48 L 473.76 696.48 Z "/>
    <clipPath id="cp14">
      <path transform="matrix(1,0,0,-1,0,792)" d="M 72 635 L 303 635 L 303 680 L 72 680 Z "/>
    </clipPath>
    <g clip-path="url(#cp14)">
      <text transform="matrix(.24 0 -0 .24 18 208.08002)" font-size="50" font-family="Calibri" style="white-space: pre;"><tspan y="-350" x="225">2</tspan></text>
      <text transform="matrix(.24 0 -0 .24 18 208.08002)" font-size="50" font-family="Calibri" style="white-space: pre;"><tspan y="-350" x="250.3418">-</tspan></text>
      <text transform="matrix(.24 0 -0 .24 18 208.08002)" font-size="50" font-family="Calibri" style="white-space: pre;"><tspan y="-350" x="265.6494 280.9794">[4</tspan></text>
      <text transform="matrix(.24 0 -0 .24 18 208.08002)" font-size="50" font-family="Calibri" style="white-space: pre;"><tspan y="-350" x="306.3232">-</tspan></text>
      <text transform="matrix(.24 0 -0 .24 18 208.08002)" font-size="50" font-family="Calibri" style="white-space: pre;"><tspan y="-350" x="321.6309 364.3809 389.2609 406.0109 432.28089 454.9109">Methyl</tspan></text>
      <text transform="matrix(.24 0 -0 .24 18 208.08002)" font-size="50" font-family="Calibri" style="white-space: pre;"><tspan y="-350" x="466.3818">-</tspan></text>
      <text transform="matrix(.24 0 -0 .24 18 208.08002)" font-size="50" font-family="Calibri" style="white-space: pre;"><tspan y="-350" x="481.6895">6</tspan></text>
      <text transform="matrix(.24 0 -0 .24 18 208.08002)" font-size="50" font-family="Calibri" style="white-space: pre;"><tspan y="-350" x="507.0312">-</tspan></text>
      <text transform="matrix(.24 0 -0 .24 18 208.08002)" font-size="50" font-family="Calibri" style="white-space: pre;"><tspan y="-350" x="522.3389 537.4989 562.8589 575.3189 600.6789 613.1389">(2,6,6</tspan></text>
      <text transform="matrix(.24 0 -0 .24 18 208.08002)" font-size="50" font-family="Calibri" style="white-space: pre;"><tspan y="-350" x="638.4766">-</tspan></text>
      <text transform="matrix(.24 0 -0 .24 18 208.08002)" font-size="50" font-family="Calibri" style="white-space: pre;"><tspan y="-350" x="653.7842 670.5342 687.9642 699.4392 739.3792 764.2592 781.0092 807.27926 829.90927 841.3843 862.5293 885.1593 906.3043 917.77938 944.14437 970.41439 995.2944">trimethylcyclohex</tspan></text>
      <text transform="matrix(.24 0 -0 .24 18 208.08002)" font-size="50" font-family="Calibri" style="white-space: pre;"><tspan y="-350" x="1016.943">-</tspan></text>
      <text transform="matrix(.24 0 -0 .24 18 208.08002)" font-size="50" font-family="Calibri" style="white-space: pre;"><tspan y="-350" x="1032.251">1</tspan></text>
      <text transform="matrix(.24 0 -0 .24 18 208.08002)" font-size="50" font-family="Calibri" style="white-space: pre;"><tspan y="-350" x="1057.593">-</tspan></text>
      <text transform="matrix(.24 0 -0 .24 18 208.08002)" font-size="50" font-family="Calibri" style="white-space: pre;"><tspan y="-289" x="225 249.88 276.16 298.79 310.27 325.44999 351.72999 376.61 398.28999">enyl)hexa</tspan></text>
      <text transform="matrix(.24 0 -0 .24 18 208.08002)" font-size="50" font-family="Calibri" style="white-space: pre;"><tspan y="-289" x="422.168">-</tspan></text>
      <text transform="matrix(.24 0 -0 .24 18 208.08002)" font-size="50" font-family="Calibri" style="white-space: pre;"><tspan y="-289" x="437.4756 462.81559 475.30558 500.64558 513.13558">1,3,5</tspan></text>
      <text transform="matrix(.24 0 -0 .24 18 208.08002)" font-size="50" font-family="Calibri" style="white-space: pre;"><tspan y="-289" x="538.4521">-</tspan></text>
      <text transform="matrix(.24 0 -0 .24 18 208.08002)" font-size="50" font-family="Calibri" style="white-space: pre;"><tspan y="-289" x="553.7598 570.5098 587.9398 599.41488 624.29489 650.5649 673.1949 684.6699 699.9999 721.1449 743.7749 764.9199 776.39498 802.75997 829.02999 853.91">trienyl]cyclohex</tspan></text>
      <text transform="matrix(.24 0 -0 .24 18 208.08002)" font-size="50" font-family="Calibri" style="white-space: pre;"><tspan y="-289" x="875.5615">-</tspan></text>
      <text transform="matrix(.24 0 -0 .24 18 208.08002)" font-size="50" font-family="Calibri" style="white-space: pre;"><tspan y="-289" x="890.8691">1</tspan></text>
      <text transform="matrix(.24 0 -0 .24 18 208.08002)" font-size="50" font-family="Calibri" style="white-space: pre;"><tspan y="-289" x="916.2109">-</tspan></text>
      <text transform="matrix(.24 0 -0 .24 18 208.08002)" font-size="50" font-family="Calibri" style="white-space: pre;"><tspan y="-289" x="931.5186 956.3986">en</tspan></text>
      <text transform="matrix(.24 0 -0 .24 18 208.08002)" font-size="50" font-family="Calibri" style="white-space: pre;"><tspan y="-289" x="982.666">-</tspan></text>
      <text transform="matrix(.24 0 -0 .24 18 208.08002)" font-size="50" font-family="Calibri" style="white-space: pre;"><tspan y="-289" x="997.9736">1</tspan></text>
      <text transform="matrix(.24 0 -0 .24 18 208.08002)" font-size="50" font-family="Calibri" style="white-space: pre;"><tspan y="-289" x="1023.315">-</tspan></text>
      <text transform="matrix(.24 0 -0 .24 18 208.08002)" font-size="50" font-family="Calibri" style="white-space: pre;"><tspan y="-228" x="225 246.14499 270.095 287.52503 313.795 340.16004 361.81504 385.76506 397.24006 423.51005 448.39006 474.66004 497.29005 523.56008">carboxaldehyde</tspan></text>
      <text transform="matrix(.24 0 -0 .24 18 208.08002)" font-size="50" font-family="Calibri" style="white-space: pre;"><tspan y="-228" x="548.4375"> </tspan></text>
    </g>
    <clipPath id="cp15">
      <path transform="matrix(1,0,0,-1,0,792)" d="M 302 635 L 392 635 L 392 680 L 302 680 Z "/>
    </clipPath>
    <g clip-path="url(#cp15)">
      <text transform="matrix(.24 0 -0 .24 18 208.08002)" font-size="50" font-family="Calibri" style="white-space: pre;"><tspan y="-228" x="1185 1210.34 1222.98 1248.32">2.29</tspan></text>
    </g>
    <clipPath id="cp16">
      <path transform="matrix(1,0,0,-1,0,792)" d="M 302 635 L 392 635 L 392 680 L 302 680 Z "/>
    </clipPath>
    <g clip-path="url(#cp16)">
      <text transform="matrix(.24 0 -0 .24 18 208.08002)" font-size="50" font-family="Calibri" style="white-space: pre;"><tspan y="-228" x="1273.647"> </tspan></text>
    </g>
    <clipPath id="cp17">
      <path transform="matrix(1,0,0,-1,0,792)" d="M 391 635 L 473 635 L 473 680 L 391 680 Z "/>
    </clipPath>
    <g clip-path="url(#cp17)">
      <text transform="matrix(.24 0 -0 .24 18 208.08002)" font-size="50" font-family="Calibri" style="white-space: pre;"><tspan y="-350" x="1555 1580.34 1605.6799 1631.0199 1656.3599 1681.6998 1707.0398">1149898</tspan></text>
    </g>
    <clipPath id="cp18">
      <path transform="matrix(1,0,0,-1,0,792)" d="M 391 635 L 473 635 L 473 680 L 391 680 Z "/>
    </clipPath>
    <g clip-path="url(#cp18)">
      <text transform="matrix(.24 0 -0 .24 18 208.08002)" font-size="50" font-family="Calibri" style="white-space: pre;"><tspan y="-350" x="1732.392"> </tspan></text>
    </g>
    <clipPath id="cp19">
      <path transform="matrix(1,0,0,-1,0,792)" d="M 472 635 L 541 635 L 541 680 L 472 680 Z "/>
    </clipPath>
    <g clip-path="url(#cp19)">
      <text transform="matrix(.24 0 -0 .24 18 208.08002)" font-size="50" font-family="Calibri" style="white-space: pre;"><tspan y="-350" x="2061.303 2086.643 2111.9832 2124.6234">34.5</tspan></text>
    </g>
    <clipPath id="cp20">
      <path transform="matrix(1,0,0,-1,0,792)" d="M 472 635 L 541 635 L 541 680 L 472 680 Z "/>
    </clipPath>
    <g clip-path="url(#cp20)">
      <text transform="matrix(.24 0 -0 .24 18 208.08002)" font-size="50" font-family="Calibri" style="white-space: pre;"><tspan y="-350" x="2149.95">3</tspan></text>
    </g>
    <clipPath id="cp21">
      <path transform="matrix(1,0,0,-1,0,792)" d="M 472 635 L 541 635 L 541 680 L 472 680 Z "/>
    </clipPath>
    <g clip-path="url(#cp21)">
      <text transform="matrix(.24 0 -0 .24 18 208.08002)" font-size="50" font-family="Calibri" style="white-space: pre;"><tspan y="-350" x="2175.292"> </tspan></text>
    </g>
    <clipPath id="cp22">
      <path transform="matrix(1,0,0,-1,0,792)" d="M 72 591 L 303 591 L 303 636 L 72 636 Z "/>
    </clipPath>
    <g clip-path="url(#cp22)">
      <text transform="matrix(.24 0 -0 .24 18 208.08002)" font-size="50" font-family="Calibri" style="white-space: pre;"><tspan y="-167" x="225">t</tspan></text>
      <text transform="matrix(.24 0 -0 .24 18 208.08002)" font-size="50" font-family="Calibri" style="white-space: pre;"><tspan y="-167" x="241.748">-</tspan></text>
      <text transform="matrix(.24 0 -0 .24 18 208.08002)" font-size="50" font-family="Calibri" style="white-space: pre;"><tspan y="-167" x="257.0557 284.2507 310.5207 327.2707 349.9007">Butyl</tspan></text>
      <text transform="matrix(.24 0 -0 .24 18 208.08002)" font-size="50" font-family="Calibri" style="white-space: pre;"><tspan y="-167" x="361.377">-</tspan></text>
      <text transform="matrix(.24 0 -0 .24 18 208.08002)" font-size="50" font-family="Calibri" style="white-space: pre;"><tspan y="-167" x="376.6846 391.8446">(2</tspan></text>
      <text transform="matrix(.24 0 -0 .24 18 208.08002)" font-size="50" font-family="Calibri" style="white-space: pre;"><tspan y="-167" x="417.1875">-</tspan></text>
      <text transform="matrix(.24 0 -0 .24 18 208.08002)" font-size="50" font-family="Calibri" style="white-space: pre;"><tspan y="-167" x="432.4951 447.82508">[3</tspan></text>
      <text transform="matrix(.24 0 -0 .24 18 208.08002)" font-size="50" font-family="Calibri" style="white-space: pre;"><tspan y="-167" x="473.1689">-</tspan></text>
      <text transform="matrix(.24 0 -0 .24 18 208.08002)" font-size="50" font-family="Calibri" style="white-space: pre;"><tspan y="-167" x="488.4766 503.6366 528.9966 541.4566">(2,2</tspan></text>
      <text transform="matrix(.24 0 -0 .24 18 208.08002)" font-size="50" font-family="Calibri" style="white-space: pre;"><tspan y="-167" x="566.7969">-</tspan></text>
      <text transform="matrix(.24 0 -0 .24 18 208.08002)" font-size="50" font-family="Calibri" style="white-space: pre;"><tspan y="-167" x="582.1045 608.3745 619.84957 659.78958 684.66958 701.41958 727.6896 750.3196">dimethyl</tspan></text>
      <text transform="matrix(.24 0 -0 .24 18 208.08002)" font-size="50" font-family="Calibri" style="white-space: pre;"><tspan y="-167" x="761.792">-</tspan></text>
      <text transform="matrix(.24 0 -0 .24 18 208.08002)" font-size="50" font-family="Calibri" style="white-space: pre;"><tspan y="-167" x="777.0996">6</tspan></text>
      <text transform="matrix(.24 0 -0 .24 18 208.08002)" font-size="50" font-family="Calibri" style="white-space: pre;"><tspan y="-167" x="802.4414">-</tspan></text>
      <text transform="matrix(.24 0 -0 .24 18 208.08002)" font-size="50" font-family="Calibri" style="white-space: pre;"><tspan y="-167" x="817.749 857.689 882.56906 899.31906 925.58908 948.21908 959.6941 984.5741 1010.8441">methylene</tspan></text>
      <text transform="matrix(.24 0 -0 .24 18 208.08002)" font-size="50" font-family="Calibri" style="white-space: pre;"><tspan y="-167" x="1035.718">-</tspan></text>
      <text transform="matrix(.24 0 -0 .24 18 208.08002)" font-size="50" font-family="Calibri" style="white-space: pre;"><tspan y="-105" x="225 246.145 268.79 289.935 301.43 327.775 354.06999 378.96498 400.60997 423.25495 434.74995">cyclohexyl)</tspan></text>
      <text transform="matrix(.24 0 -0 .24 18 208.08002)" font-size="50" font-family="Calibri" style="white-space: pre;"><tspan y="-105" x="449.8291">-</tspan></text>
      <text transform="matrix(.24 0 -0 .24 18 208.08002)" font-size="50" font-family="Calibri" style="white-space: pre;"><tspan y="-105" x="465.1367 491.40669 508.8267 535.1967 561.46676 584.08676 595.55679">propyl]</tspan></text>
      <text transform="matrix(.24 0 -0 .24 18 208.08002)" font-size="50" font-family="Calibri" style="white-space: pre;"><tspan y="-105" x="610.9131">-</tspan></text>
      <text transform="matrix(.24 0 -0 .24 18 208.08002)" font-size="50" font-family="Calibri" style="white-space: pre;"><tspan y="-105" x="626.2207 641.55068 666.8906 679.3656 704.70559 720.0355 746.30557 757.7806 774.5306 800.8006 812.27566 836.22567">[1,3]dithian</tspan></text>
      <text transform="matrix(.24 0 -0 .24 18 208.08002)" font-size="50" font-family="Calibri" style="white-space: pre;"><tspan y="-105" x="862.5">-</tspan></text>
      <text transform="matrix(.24 0 -0 .24 18 208.08002)" font-size="50" font-family="Calibri" style="white-space: pre;"><tspan y="-105" x="877.8076">2</tspan></text>
      <text transform="matrix(.24 0 -0 .24 18 208.08002)" font-size="50" font-family="Calibri" style="white-space: pre;"><tspan y="-105" x="903.1494">-</tspan></text>
      <text transform="matrix(.24 0 -0 .24 18 208.08002)" font-size="50" font-family="Calibri" style="white-space: pre;"><tspan y="-105" x="918.457 941.087 952.56698">yl)</tspan></text>
      <text transform="matrix(.24 0 -0 .24 18 208.08002)" font-size="50" font-family="Calibri" style="white-space: pre;"><tspan y="-105" x="967.7246">-</tspan></text>
      <text transform="matrix(.24 0 -0 .24 18 208.08002)" font-size="50" font-family="Calibri" style="white-space: pre;"><tspan y="-105" x="983.0322 1009.30227 1020.7773 1060.7173 1085.5973 1102.3473 1128.6173 1151.2473">dimethyl</tspan></text>
      <text transform="matrix(.24 0 -0 .24 18 208.08002)" font-size="50" font-family="Calibri" style="white-space: pre;"><tspan y="-105" x="1162.72">-</tspan></text>
      <text transform="matrix(.24 0 -0 .24 18 208.08002)" font-size="50" font-family="Calibri" style="white-space: pre;"><tspan y="-44" x="225 244.55501 256.03 267.505 291.45503 317.725">silane</tspan></text>
      <text transform="matrix(.24 0 -0 .24 18 208.08002)" font-size="50" font-family="Calibri" style="white-space: pre;"><tspan y="-44" x="342.6025"> </tspan></text>
    </g>
    <clipPath id="cp23">
      <path transform="matrix(1,0,0,-1,0,792)" d="M 302 591 L 392 591 L 392 636 L 302 636 Z "/>
    </clipPath>
    <g clip-path="url(#cp23)">
      <text transform="matrix(.24 0 -0 .24 18 208.08002)" font-size="50" font-family="Calibri" style="white-space: pre;"><tspan y="-44" x="1185 1210.34 1222.98 1248.32">1.98</tspan></text>
    </g>
    <clipPath id="cp24">
      <path transform="matrix(1,0,0,-1,0,792)" d="M 302 591 L 392 591 L 392 636 L 302 636 Z "/>
    </clipPath>
    <g clip-path="url(#cp24)">
      <text transform="matrix(.24 0 -0 .24 18 208.08002)" font-size="50" font-family="Calibri" style="white-space: pre;"><tspan y="-44" x="1273.647"> </tspan></text>
    </g>
    <clipPath id="cp25">
      <path transform="matrix(1,0,0,-1,0,792)" d="M 391 591 L 473 591 L 473 636 L 391 636 Z "/>
    </clipPath>
    <g clip-path="url(#cp25)">
      <text transform="matrix(.24 0 -0 .24 18 208.08002)" font-size="50" font-family="Calibri" style="white-space: pre;"><tspan y="-167" x="1555 1580.34 1605.6799 1631.0199 1656.3599 1681.6998">996149</tspan></text>
    </g>
    <clipPath id="cp26">
      <path transform="matrix(1,0,0,-1,0,792)" d="M 391 591 L 473 591 L 473 636 L 391 636 Z "/>
    </clipPath>
    <g clip-path="url(#cp26)">
      <text transform="matrix(.24 0 -0 .24 18 208.08002)" font-size="50" font-family="Calibri" style="white-space: pre;"><tspan y="-167" x="1707.051"> </tspan></text>
    </g>
    <clipPath id="cp27">
      <path transform="matrix(1,0,0,-1,0,792)" d="M 472 591 L 541 591 L 541 636 L 472 636 Z "/>
    </clipPath>
    <g clip-path="url(#cp27)">
      <text transform="matrix(.24 0 -0 .24 18 208.08002)" font-size="50" font-family="Calibri" style="white-space: pre;"><tspan y="-167" x="2086.645 2111.985 2124.6253">1.1</tspan></text>
    </g>
    <clipPath id="cp28">
      <path transform="matrix(1,0,0,-1,0,792)" d="M 472 591 L 541 591 L 541 636 L 472 636 Z "/>
    </clipPath>
    <g clip-path="url(#cp28)">
      <text transform="matrix(.24 0 -0 .24 18 208.08002)" font-size="50" font-family="Calibri" style="white-space: pre;"><tspan y="-167" x="2149.95">7</tspan></text>
    </g>
    <clipPath id="cp29">
      <path transform="matrix(1,0,0,-1,0,792)" d="M 472 591 L 541 591 L 541 636 L 472 636 Z "/>
    </clipPath>
    <g clip-path="url(#cp29)">
      <text transform="matrix(.24 0 -0 .24 18 208.08002)" font-size="50" font-family="Calibri" style="white-space: pre;"><tspan y="-167" x="2175.292"> </tspan></text>
    </g>
    <clipPath id="cp30">
      <path transform="matrix(1,0,0,-1,0,792)" d="M 72 561 L 303 561 L 303 592 L 72 592 Z "/>
    </clipPath>
    <g clip-path="url(#cp30)">
      <text transform="matrix(.24 0 -0 .24 18 208.08002)" font-size="50" font-family="Calibri" style="white-space: pre;"><tspan y="17" x="225">9</tspan></text>
      <text transform="matrix(.24 0 -0 .24 18 208.08002)" font-size="50" font-family="Calibri" style="white-space: pre;"><tspan y="17" x="250.3418">-</tspan></text>
      <text transform="matrix(.24 0 -0 .24 18 208.08002)" font-size="50" font-family="Calibri" style="white-space: pre;"><tspan y="17" x="265.6494 298.75444 319.8994 336.6494 360.59944 386.86943 411.74943 432.8944 457.7744 484.0444 510.40943 521.88449 543.0295 554.3345 578.2845 599.4295 610.90457 637.17459 649.64956 660.9545 676.11459">Octadecenoic acid, (2</tspan></text>
      <text transform="matrix(.24 0 -0 .24 18 208.08002)" font-size="50" font-family="Calibri" style="white-space: pre;"><tspan y="17" x="701.4404">-</tspan></text>
      <text transform="matrix(.24 0 -0 .24 18 208.08002)" font-size="50" font-family="Calibri" style="white-space: pre;"><tspan y="17" x="716.748 743.018 769.288 794.158 820.42807 843.04806">phenyl</tspan></text>
      <text transform="matrix(.24 0 -0 .24 18 208.08002)" font-size="50" font-family="Calibri" style="white-space: pre;"><tspan y="17" x="854.541">-</tspan></text>
      <text transform="matrix(.24 0 -0 .24 18 208.08002)" font-size="50" font-family="Calibri" style="white-space: pre;"><tspan y="17" x="869.8486 895.1886 907.6786">1,3</tspan></text>
      <text transform="matrix(.24 0 -0 .24 18 208.08002)" font-size="50" font-family="Calibri" style="white-space: pre;"><tspan y="17" x="933.0078">-</tspan></text>
      <text transform="matrix(.24 0 -0 .24 18 208.08002)" font-size="50" font-family="Calibri" style="white-space: pre;"><tspan y="17" x="948.3154 974.58547 986.0605 1012.4255 1034.0805 1060.4454 1071.9204 1095.8704">dioxolan</tspan></text>
      <text transform="matrix(.24 0 -0 .24 18 208.08002)" font-size="50" font-family="Calibri" style="white-space: pre;"><tspan y="17" x="1122.144">-</tspan></text>
      <text transform="matrix(.24 0 -0 .24 18 208.08002)" font-size="50" font-family="Calibri" style="white-space: pre;"><tspan y="17" x="1137.451">4</tspan></text>
      <text transform="matrix(.24 0 -0 .24 18 208.08002)" font-size="50" font-family="Calibri" style="white-space: pre;"><tspan y="17" x="1162.793">-</tspan></text>
      <text transform="matrix(.24 0 -0 .24 18 208.08002)" font-size="50" font-family="Calibri" style="white-space: pre;"><tspan y="78" x="225 247.62999 259.10499 274.26499 314.205 339.085 355.835 382.10499 404.735 416.21 427.51499 452.395 471.94999 488.69999 513.57998 531.00997 543.4849 554.7899 575.93496 587.41">yl)methyl ester, cis</tspan></text>
      <text transform="matrix(.24 0 -0 .24 18 208.08002)" font-size="50" font-family="Calibri" style="white-space: pre;"><tspan y="78" x="606.958">-</tspan></text>
      <text transform="matrix(.24 0 -0 .24 18 208.08002)" font-size="50" font-family="Calibri" style="white-space: pre;"><tspan y="78" x="622.2656"> </tspan></text>
    </g>
    <clipPath id="cp31">
      <path transform="matrix(1,0,0,-1,0,792)" d="M 302 561 L 392 561 L 392 592 L 302 592 Z "/>
    </clipPath>
    <g clip-path="url(#cp31)">
      <text transform="matrix(.24 0 -0 .24 18 208.08002)" font-size="50" font-family="Calibri" style="white-space: pre;"><tspan y="78" x="1185 1210.34 1222.98 1248.32">1.25</tspan></text>
    </g>
    <clipPath id="cp32">
      <path transform="matrix(1,0,0,-1,0,792)" d="M 302 561 L 392 561 L 392 592 L 302 592 Z "/>
    </clipPath>
    <g clip-path="url(#cp32)">
      <text transform="matrix(.24 0 -0 .24 18 208.08002)" font-size="50" font-family="Calibri" style="white-space: pre;"><tspan y="78" x="1273.647"> </tspan></text>
    </g>
    <clipPath id="cp33">
      <path transform="matrix(1,0,0,-1,0,792)" d="M 391 561 L 473 561 L 473 592 L 391 592 Z "/>
    </clipPath>
    <g clip-path="url(#cp33)">
      <text transform="matrix(.24 0 -0 .24 18 208.08002)" font-size="50" font-family="Calibri" style="white-space: pre;"><tspan y="17" x="1555 1580.34 1605.6799 1631.0199">6276</tspan></text>
    </g>
    <clipPath id="cp34">
      <path transform="matrix(1,0,0,-1,0,792)" d="M 391 561 L 473 561 L 473 592 L 391 592 Z "/>
    </clipPath>
    <g clip-path="url(#cp34)">
      <text transform="matrix(.24 0 -0 .24 18 208.08002)" font-size="50" font-family="Calibri" style="white-space: pre;"><tspan y="17" x="1656.367 1681.7069">23</tspan></text>
      <text transform="matrix(.24 0 -0 .24 18 208.08002)" font-size="50" font-family="Calibri" style="white-space: pre;"><tspan y="17" x="1707.051"> </tspan></text>
    </g>
    <clipPath id="cp35">
      <path transform="matrix(1,0,0,-1,0,792)" d="M 472 561 L 541 561 L 541 592 L 472 592 Z "/>
    </clipPath>
    <g clip-path="url(#cp35)">
      <text transform="matrix(.24 0 -0 .24 18 208.08002)" font-size="50" font-family="Calibri" style="white-space: pre;"><tspan y="17" x="2086.645 2111.985 2124.6253 2149.9654">1.99</tspan></text>
    </g>
    <clipPath id="cp36">
      <path transform="matrix(1,0,0,-1,0,792)" d="M 472 561 L 541 561 L 541 592 L 472 592 Z "/>
    </clipPath>
    <g clip-path="url(#cp36)">
      <text transform="matrix(.24 0 -0 .24 18 208.08002)" font-size="50" font-family="Calibri" style="white-space: pre;"><tspan y="17" x="2175.292"> </tspan></text>
    </g>
    <clipPath id="cp37">
      <path transform="matrix(1,0,0,-1,0,792)" d="M 72 545 L 303 545 L 303 562 L 72 562 Z "/>
    </clipPath>
    <g clip-path="url(#cp37)">
      <text transform="matrix(.24 0 -0 .24 18 208.08002)" font-size="50" font-family="Calibri" style="white-space: pre;"><tspan y="139" x="225 247.975 280.05003">SUM</tspan></text>
      <text transform="matrix(.24 0 -0 .24 18 208.08002)" font-size="50" font-family="Calibri" style="white-space: pre;"><tspan y="139" x="322.8027"> </tspan></text>
    </g>
    <clipPath id="cp38">
      <path transform="matrix(1,0,0,-1,0,792)" d="M 302 545 L 392 545 L 392 562 L 302 562 Z "/>
    </clipPath>
    <g clip-path="url(#cp38)">
      <text transform="matrix(.24 0 -0 .24 18 208.08002)" font-size="50" font-family="Calibri" style="white-space: pre;"><tspan y="139" x="1185 1210.34 1235.6799">100</tspan></text>
    </g>
    <clipPath id="cp39">
      <path transform="matrix(1,0,0,-1,0,792)" d="M 302 545 L 392 545 L 392 562 L 302 562 Z "/>
    </clipPath>
    <g clip-path="url(#cp39)">
      <text transform="matrix(.24 0 -0 .24 18 208.08002)" font-size="50" font-family="Calibri" style="white-space: pre;"><tspan y="139" x="1261.025"> </tspan></text>
    </g>
    <clipPath id="cp40">
      <path transform="matrix(1,0,0,-1,0,792)" d="M 391 545 L 473 545 L 473 562 L 391 562 Z "/>
    </clipPath>
    <g clip-path="url(#cp40)">
      <text transform="matrix(.24 0 -0 .24 18 208.08002)" font-size="50" font-family="Calibri" style="white-space: pre;"><tspan y="139" x="1555"> </tspan></text>
    </g>
    <clipPath id="cp41">
      <path transform="matrix(1,0,0,-1,0,792)" d="M 391 545 L 473 545 L 473 562 L 391 562 Z "/>
    </clipPath>
    <g clip-path="url(#cp41)">
      <text transform="matrix(.24 0 -0 .24 18 208.08002)" font-size="50" font-family="Calibri" style="white-space: pre;"><tspan y="139" x="1566.303"> </tspan></text>
    </g>
    <clipPath id="cp42">
      <path transform="matrix(1,0,0,-1,0,792)" d="M 472 545 L 541 545 L 541 562 L 472 562 Z "/>
    </clipPath>
    <g clip-path="url(#cp42)">
      <text transform="matrix(.24 0 -0 .24 18 208.08002)" font-size="50" font-family="Calibri" style="white-space: pre;"><tspan y="139" x="2163.988"> </tspan></text>
    </g>
    <clipPath id="cp43">
      <path transform="matrix(1,0,0,-1,0,792)" d="M 472 545 L 541 545 L 541 562 L 472 562 Z "/>
    </clipPath>
    <g clip-path="url(#cp43)">
      <text transform="matrix(.24 0 -0 .24 18 208.08002)" font-size="50" font-family="Calibri" style="white-space: pre;"><tspan y="139" x="2175.292"> </tspan></text>
    </g>
    <path transform="matrix(1,0,0,-1,0,792)" d="M 71.28 545.04 L 302.4 545.04 L 302.4 543.6 L 71.28 543.6 Z "/>
    <path transform="matrix(1,0,0,-1,0,792)" d="M 301.68 545.04 L 303.12 545.04 L 303.12 543.6 L 301.68 543.6 Z "/>
    <path transform="matrix(1,0,0,-1,0,792)" d="M 303.12 545.04 L 391.2 545.04 L 391.2 543.6 L 303.12 543.6 Z "/>
    <path transform="matrix(1,0,0,-1,0,792)" d="M 390.48 545.04 L 391.92 545.04 L 391.92 543.6 L 390.48 543.6 Z "/>
    <path transform="matrix(1,0,0,-1,0,792)" d="M 391.92 545.04 L 472.32 545.04 L 472.32 543.6 L 391.92 543.6 Z "/>
    <path transform="matrix(1,0,0,-1,0,792)" d="M 471.6 545.04 L 473.04 545.04 L 473.04 543.6 L 471.6 543.6 Z "/>
    <path transform="matrix(1,0,0,-1,0,792)" d="M 473.04 545.04 L 540 545.04 L 540 543.6 L 473.04 543.6 Z "/>
    <text transform="matrix(.24 0 -0 .24 18 208.08002)" font-size="50" font-family="Calibri" style="white-space: pre;"><tspan y="216" x="225"> </tspan></text>
  </g>
</svg>