<?xml version="1.0" encoding="UTF-8"?>
<svg data-bbox="2.982 0.59 615.173 286.028" xmlns="http://www.w3.org/2000/svg" style="background-color:#ffffff00" viewBox="0 0 621 289" height="289" width="621" data-type="ugc">
    <g>
        <text font-family="Helvetica" font-size="200" transform="matrix(.05 0 0 .05 79.007 24.584)" fill="#ff0000">
O</text>
        <text font-family="Helvetica" font-size="200" transform="matrix(.05 0 0 .05 104.987 69.584)" fill="#ff0000">
OH</text>
        <path d="m57.415 66.287-.5-.289v-.578l25.98-15v1.155l-25.48 14.712z" fill="#000000"/>
        <path d="M30.934 51.575v-1.154l25.981 15v.577l-.5.288-25.481-14.711z" fill="#000000"/>
        <path d="m5.453 66.287-1-.578 26.481-15.288v1.154L5.454 66.287z" fill="#000000"/>
        <path d="m8.803 68.51-.5-.867 22.381-12.921.5.866L8.804 68.51z" fill="#000000"/>
        <path d="m5.453 95.709-1 .578V65.709l1 .578v29.422z" fill="#000000"/>
        <path d="M30.934 110.42v1.155L4.454 96.287l1-.578 25.48 14.712z" fill="#000000"/>
        <path d="m31.184 106.408-.5.866-22.38-12.921.5-.866 22.38 12.921z" fill="#000000"/>
        <path d="m56.415 95.709 1 .578-26.481 15.288v-1.154l25.481-14.712z" fill="#000000"/>
        <path d="m57.415 96.287-1-.578V66.287l.5-.289.5.288v30z" fill="#000000"/>
        <path d="M53.815 93.92h-1V68.076h1V93.92z" fill="#000000"/>
        <path d="M80.596 26.864h1v25.173h-1V26.864z" fill="#000000"/>
        <path d="M84.195 26.864h1v25.173h-1V26.864z" fill="#000000"/>
        <path d="m104.215 62.73-.5.866-20.82-12.021v-1.154l21.32 12.309z" fill="#000000"/>
        <text font-family="Helvetica" font-size="200" transform="matrix(.05 0 0 .05 296.916 24.59)" fill="#ff0000">
O</text>
        <text font-family="Helvetica" font-size="200" transform="matrix(.05 0 0 .05 322.897 69.59)" fill="#ff0000">
OH</text>
        <path d="m275.325 66.291-.5-.288v-.578l25.48-14.711.5.289v.577l-25.48 14.712z" fill="#000000"/>
        <path d="M248.844 51.58v-1.154l25.98 15v.577l-.5.288-25.48-14.711z" fill="#000000"/>
        <path d="m223.363 66.291-1-.577 26.481-15.288v1.154l-25.481 14.712z" fill="#000000"/>
        <path d="m226.713 68.514-.5-.865 22.381-12.922.5.866-22.381 12.921z" fill="#000000"/>
        <path d="m223.363 95.714-1 .578V65.713l1 .578v29.422z" fill="#000000"/>
        <path d="M248.844 110.426v1.154l-26.481-15.288 1-.578 25.481 14.712z" fill="#000000"/>
        <path d="m249.094 106.413-.5.866-22.381-12.921.5-.867 22.381 12.922z" fill="#000000"/>
        <path d="m274.325 95.714 1 .578-26.481 15.288v-1.154l25.48-14.712z" fill="#000000"/>
        <path d="m275.325 96.291-1-.577V66.292l.5-.289.5.288v30z" fill="#000000"/>
        <path d="M271.725 93.924h-1V68.081h1v25.843z" fill="#000000"/>
        <path d="M300.305 26.869h1v23.845l-.5.289-.5-.289V26.869z" fill="#000000"/>
        <path d="M303.906 26.869h1v22.056h-1V26.869z" fill="#000000"/>
        <path d="m322.126 62.735-.5.866-20.82-12.021v-.577l.5-.289 20.82 12.02z" fill="#000000"/>
        <text font-family="Helvetica" font-size="200" transform="matrix(.05 0 0 .05 351.853 54.387)" fill="#ff0000">
HO</text>
        <path d="m368.442 51.268-.007-1 24.525-.146.006 1-24.524.146z" fill="#000000"/>
        <text font-family="Helvetica" font-size="200" transform="matrix(.05 0 0 .05 129.816 36.645)" fill="#000000">
H</text>
        <text font-family="Helvetica" font-size="150" transform="matrix(.05 0 0 .05 137.037 33.058)" fill="#000000">
+</text>
        <path d="M83.935 12.893a.833.833 0 1 0 1.667 0 .833.833 0 1 0-1.667 0z" fill="#000000"/>
        <path d="M80.185 12.893a.833.833 0 1 0 1.667 0 .833.833 0 1 0-1.667 0z" fill="#000000"/>
        <path d="M90.165 22.873a.834.834 0 1 0 1.666 0 .834.834 0 1 0-1.666 0z" fill="#000000"/>
        <path d="M90.165 19.123a.834.834 0 1 0 1.666 0 .834.834 0 1 0-1.666 0z" fill="#000000"/>
        <path d="M106.166 74.103a.834.834 0 1 0 1.667 0 .834.834 0 1 0-1.667 0z" fill="#000000"/>
        <path d="M109.916 74.103a.834.834 0 1 0 1.667 0 .834.834 0 1 0-1.667 0z" fill="#000000"/>
        <path d="M109.916 57.893a.834.834 0 1 0 1.667 0 .834.834 0 1 0-1.667 0z" fill="#000000"/>
        <path d="M106.166 57.893a.834.834 0 1 0 1.667 0 .834.834 0 1 0-1.667 0z" fill="#000000"/>
        <path d="M324.076 74.108a.833.833 0 1 0 1.666 0 .833.833 0 1 0-1.666 0z" fill="#000000"/>
        <path d="M327.826 74.108a.833.833 0 1 0 1.666 0 .833.833 0 1 0-1.666 0z" fill="#000000"/>
        <path d="M327.826 57.898a.833.833 0 1 0 1.666 0 .833.833 0 1 0-1.666 0z" fill="#000000"/>
        <path d="M324.076 57.898a.833.833 0 1 0 1.666 0 .833.833 0 1 0-1.666 0z" fill="#000000"/>
        <path d="M133.83 23.197c-.795-11.382-10.68-19.975-22.063-19.179-8.552.598-16.305 6.99-18.524 15.27" fill="none" stroke="#000000"/>
        <path d="m133.177 29.99-1.243-8s1.048 1.106 1.897 1.207c.849.101 2.084-.733 2.084-.733l-2.738 7.525" fill="#000000"/>
        <path d="m133.177 29.99-1.243-8s1.048 1.106 1.897 1.207c.849.101 2.084-.733 2.084-.733l-2.738 7.525" fill="none" stroke="#000000" stroke-width=".05"/>
        <text font-family="Helvetica" font-size="200" transform="matrix(.05 0 0 .05 323.175 9.59)" fill="#000000">
H</text>
        <path d="m321.105 8.706.5.866-15.609 9.012-.5-.867 15.609-9.011z" fill="#000000"/>
        <path d="M301.518 11.478a3.75 3.75 0 1 0 7.5 0 3.75 3.75 0 1 0-7.5 0z" fill="none" stroke-width=".8" stroke="#000000"/>
        <path d="M303.084 11.061h4.334v.8h-4.334z" fill="#000000"/>
        <path d="M305.651 9.295v4.333h-.8V9.295z" fill="#000000"/>
        <path d="M291.865 19.128a.833.833 0 1 0 1.667 0 .833.833 0 1 0-1.667 0z" fill="#000000"/>
        <path d="M291.865 22.878a.833.833 0 1 0 1.667 0 .833.833 0 1 0-1.667 0z" fill="#000000"/>
        <path d="M364.003 42.696a.834.834 0 1 0 1.667 0 .834.834 0 1 0-1.667 0z" fill="#000000"/>
        <path d="M360.253 42.696a.834.834 0 1 0 1.667 0 .834.834 0 1 0-1.667 0z" fill="#000000"/>
        <path d="M360.253 58.906a.834.834 0 1 0 1.667 0 .834.834 0 1 0-1.667 0z" fill="#000000"/>
        <path d="M364.003 58.906a.834.834 0 1 0 1.667 0 .834.834 0 1 0-1.667 0z" fill="#000000"/>
        <path d="M300.239 61.304c-.89 17.297 12.428 32.06 29.725 32.95 17.298.89 32.06-12.427 32.95-29.725.028-.537.042-1.075.042-1.612" fill="none" stroke="#000000"/>
        <path d="m301.405 54.296.72 8.392s-.974-1.214-1.886-1.384c-.911-.17-2.219.618-2.219.618l3.385-7.626" fill="#000000"/>
        <path d="m301.405 54.296.72 8.392s-.974-1.214-1.886-1.384c-.911-.17-2.219.618-2.219.618l3.385-7.626" fill="none" stroke="#000000" stroke-width=".05"/>
        <path d="M284.85 21.638c-3.389 4.358-2.603 10.647 1.756 14.037 3.129 2.433 7.71 2.748 11.142.766" fill="none" stroke="#000000"/>
        <path d="m290.645 17.999-5.532 5.864s.204-1.496-.262-2.225c-.466-.73-1.918-1.186-1.918-1.186l7.712-2.453" fill="#000000"/>
        <path d="m290.645 17.999-5.532 5.864s.204-1.496-.262-2.225c-.466-.73-1.918-1.186-1.918-1.186l7.712-2.453" fill="none" stroke="#000000" stroke-width=".05"/>
        <path d="M203.009 76.451h-55.097v-1h55.097z" fill="#000000"/>
        <path d="M155.112 78.451h55.097v1h-55.097z" fill="#000000"/>
        <path d="M211.709 76.451h-8.75c0-1.637-1.25-3.1-1.25-3.1l10 3.1" fill="#000000"/>
        <path d="M211.709 76.451h-8.75c0-1.637-1.25-3.1-1.25-3.1l10 3.1" fill="none" stroke="#000000" stroke-width=".05"/>
        <path d="m146.412 78.451 10 3.1s-1.25-2.462-1.25-3.1h-8.75" fill="#000000"/>
        <path d="m146.412 78.451 10 3.1s-1.25-2.462-1.25-3.1h-8.75" fill="none" stroke="#000000" stroke-width=".05"/>
        <path d="M459.125 64.394H402.46v-1h56.665z" fill="#000000"/>
        <path d="M409.66 66.394h56.665v1H409.66z" fill="#000000"/>
        <path d="M467.825 64.394h-8.75c0-1.638-1.25-3.1-1.25-3.1l10 3.1" fill="#000000"/>
        <path d="M467.825 64.394h-8.75c0-1.638-1.25-3.1-1.25-3.1l10 3.1" fill="none" stroke="#000000" stroke-width=".05"/>
        <path d="m400.96 66.394 10 3.1s-1.25-2.463-1.25-3.1h-8.75" fill="#000000"/>
        <path d="m400.96 66.394 10 3.1s-1.25-2.463-1.25-3.1h-8.75" fill="none" stroke="#000000" stroke-width=".05"/>
        <text font-family="Helvetica" font-size="200" transform="matrix(.05 0 0 .05 562.14 30.023)" fill="#ff0000">
O</text>
        <text font-family="Helvetica" font-size="200" transform="matrix(.05 0 0 .05 562.14 89.923)" fill="#ff0000">
OH</text>
        <path d="m540.59 71.65-.5-.288v-.577l25.44-14.687.5.289-.5.866-24.94 14.398z" fill="#000000"/>
        <path d="M514.155 56.964V55.81l25.935 14.975v.577l-.5.289-25.435-14.687z" fill="#000000"/>
        <path d="m488.715 71.65-1-.577 26.44-15.263v1.154l-25.44 14.687z" fill="#000000"/>
        <path d="m492.06 73.87-.5-.866 22.345-12.9.5.866-22.345 12.9z" fill="#000000"/>
        <path d="m488.715 101.023-1 .578V71.073l1 .578v29.372z" fill="#000000"/>
        <path d="M514.155 115.71v1.154l-26.44-15.263 1-.578 25.44 14.687z" fill="#000000"/>
        <path d="m514.405 111.704-.5.866-22.345-12.9.5-.866 22.345 12.9z" fill="#000000"/>
        <path d="m539.59 101.023 1 .578-26.435 15.263v-1.154l25.435-14.687z" fill="#000000"/>
        <path d="m540.59 101.6-1-.577V71.651l.5-.289.5.289v29.95z" fill="#000000"/>
        <path d="M536.995 99.237h-1l.005-25.8h1l-.005 25.8z" fill="#000000"/>
        <path d="M566.53 80.603h-1v-23.35l.5-.866.5.866v23.35z" fill="#000000"/>
        <text font-family="Helvetica" font-size="200" transform="matrix(.05 0 0 .05 588.356 15.048)" fill="#000000">
H</text>
        <path d="m586.285 14.164.5.867-15.565 8.986-.5-.866 15.565-8.987z" fill="#000000"/>
        <path d="M557.09 24.562a.833.833 0 1 0 1.665 0 .833.833 0 1 0-1.665 0z" fill="#000000"/>
        <path d="M557.09 28.312a.833.833 0 1 0 1.665 0 .833.833 0 1 0-1.665 0z" fill="#000000"/>
        <path d="m566.53 56.098-.5.289-.5-.289V32.303h1v23.795z" fill="#000000"/>
        <text font-family="Helvetica" font-size="200" transform="matrix(.05 0 0 .05 588.077 74.948)" fill="#ff0000">
O</text>
        <path d="m587.285 68.081-.5.866-20.255-11.694-.5-.866.5-.289 20.755 11.983z" fill="#000000"/>
        <path d="M567.07 18.332a.833.833 0 1 0 1.665 0 .833.833 0 1 0-1.665 0z" fill="#000000"/>
        <path d="M563.32 18.332a.833.833 0 1 0 1.665 0 .833.833 0 1 0-1.665 0z" fill="#000000"/>
        <text font-family="Helvetica" font-size="200" transform="matrix(.05 0 0 .05 603.356 100.929)" fill="#000000">
H</text>
        <path d="m604.105 91.389-.865.5-8.785-15.215.865-.5 8.785 15.215z" fill="#000000"/>
        <path d="m617.655 55.954.5.866-21 12.122-.5-.865 21-12.123z" fill="#000000"/>
        <path d="M593.005 63.257a.833.833 0 1 0 1.665 0 .833.833 0 1 0-1.665 0z" fill="#000000"/>
        <path d="M589.255 63.257a.833.833 0 1 0 1.665 0 .833.833 0 1 0-1.665 0z" fill="#000000"/>
        <path d="M596.62 73.75a3.75 3.75 0 1 0 7.5 0 3.75 3.75 0 1 0-7.5 0z" fill="none" stroke-width=".8" stroke="#000000"/>
        <path d="M598.19 73.333h4.33v.8h-4.33z" fill="#000000"/>
        <path d="M600.755 71.567V75.9h-.8v-4.334z" fill="#000000"/>
        <path d="M557.09 84.462a.833.833 0 1 0 1.665 0 .833.833 0 1 0-1.665 0z" fill="#000000"/>
        <path d="M557.09 88.212a.833.833 0 1 0 1.665 0 .833.833 0 1 0-1.665 0z" fill="#000000"/>
        <path d="M562.42 162.442v-36.76h1v36.76z" fill="#000000"/>
        <path d="M560.42 134.132v36.76h-1v-36.76z" fill="#000000"/>
        <path d="M562.42 172.393v-10h3.05l-3.05 10" fill="#000000"/>
        <path d="M562.42 172.393v-10h3.05l-3.05 10" fill="none" stroke="#000000" stroke-width=".05"/>
        <path d="m560.42 124.181-3.05 10h3.05v-10" fill="#000000"/>
        <path d="m560.42 124.181-3.05 10h3.05v-10" fill="none" stroke="#000000" stroke-width=".05"/>
        <text font-family="Helvetica" font-size="200" transform="matrix(.05 0 0 .05 542.576 199.475)" fill="#ff0000">
O</text>
        <text font-family="Helvetica" font-size="200" transform="matrix(.05 0 0 .05 571.817 250.822)" fill="#ff0000">
O</text>
        <path d="m540.04 234.122-.495-.292v-.577l25.305-14.408.765.139-.275.73-25.3 14.408z" fill="#000000"/>
        <path d="m513.65 219.254.005-1.155 25.89 15.154v.577l-.505.286-25.39-14.863z" fill="#000000"/>
        <path d="m488.08 233.814-.995-.584 26.57-15.131-.005 1.155-25.57 14.56z" fill="#000000"/>
        <path d="m491.42 236.056-.495-.869 22.455-12.788.495.869-22.455 12.788z" fill="#000000"/>
        <path d="m487.905 263.236-1 .571.18-30.577.995.584-.175 29.422z" fill="#000000"/>
        <path d="m513.3 278.098-.005 1.154-26.39-15.445 1-.572 25.395 14.863z" fill="#000000"/>
        <path d="m513.575 274.087-.505.863-22.305-13.054.505-.864 22.305 13.055z" fill="#000000"/>
        <path d="m538.865 263.538 1 .583-26.57 15.132.005-1.155 25.565-14.56z" fill="#000000"/>
        <path d="m539.865 264.121-1-.583.175-29.422.505-.286.495.292-.175 29.999z" fill="#000000"/>
        <path d="m536.28 261.733-1-.007.15-25.842 1 .006-.15 25.843z" fill="#000000"/>
        <path d="m574.215 241.578-.94.337-7.935-22.201.275-.73.67.393 7.93 22.201z" fill="#000000"/>
        <text font-family="Helvetica" font-size="200" transform="matrix(.05 0 0 .05 568.836 184.475)" fill="#000000">
H</text>
        <path d="m566.765 183.591.5.867-15.61 9.012-.5-.867 15.61-9.012z" fill="#000000"/>
        <path d="M537.325 195.401a.833.833 0 1 0 1.665 0 .833.833 0 1 0-1.665 0z" fill="#000000"/>
        <path d="M537.955 199.097a.833.833 0 1 0 1.665 0 .833.833 0 1 0-1.665 0z" fill="#000000"/>
        <path d="m565.815 218.443-.2.541-.765-.14-15.06-18.163.77-.638 15.255 18.4z" fill="#000000"/>
        <text font-family="Helvetica" font-size="200" transform="matrix(.05 0 0 .05 591.298 217.536)" fill="#ff0000">
O</text>
        <path d="m589.685 214.38.165.986-23.565 4.011-.67-.393.2-.541 23.87-4.064z" fill="#000000"/>
        <path d="m614.72 236.726-.77.638-15.44-18.622.77-.638 15.44 18.622z" fill="#000000"/>
        <path d="M602.655 214.439a.835.835 0 1 0 1.67 0 .835.835 0 1 0-1.67 0z" fill="#000000"/>
        <path d="M602.025 210.742a.835.835 0 1 0 1.67 0 .835.835 0 1 0-1.67 0z" fill="#000000"/>
        <path d="M574.38 255.54a.835.835 0 1 0 1.67 0 .835.835 0 1 0-1.67 0z" fill="#000000"/>
        <path d="M578.08 254.91a.833.833 0 1 0 1.665 0 .833.833 0 1 0-1.665 0z" fill="#000000"/>
        <path d="M594.84 205.645a.833.833 0 1 0 1.665 0 .833.833 0 1 0-1.665 0z" fill="#000000"/>
        <path d="M591.145 206.275a.833.833 0 1 0 1.665 0 .833.833 0 1 0-1.665 0z" fill="#000000"/>
        <text font-family="Helvetica" font-size="200" transform="matrix(.05 0 0 .05 552.676 273.688)" fill="#000000">
H</text>
        <path d="m560.94 265.394-.76-.647 11.32-13.333.765.647-11.325 13.333z" fill="#000000"/>
        <text font-family="Helvetica" font-size="200" transform="matrix(.05 0 0 .05 601.608 256.206)" fill="#000000">
H</text>
        <path d="m600.025 251.164-.18.983-18.8-3.43.18-.983 18.8 3.43z" fill="#000000"/>
        <path d="M562.775 246.639a3.75 3.75 0 1 0 7.5 0 3.75 3.75 0 1 0-7.5 0z" fill="none" stroke-width=".8" stroke="#000000"/>
        <path d="M564.345 246.222h4.33v.8h-4.33z" fill="#000000"/>
        <path d="M566.91 244.455v4.334h-.8v-4.334z" fill="#000000"/>
        <path d="M535.88 198.228c-6.155 3.425-8.375 11.204-4.95 17.363 3.425 6.158 11.205 8.377 17.365 4.951 1.31-.728 2.49-1.69 3.465-2.826" fill="none" stroke="#000000"/>
        <path d="m554.7 211.362-1.495 8.15s-.625-1.407-1.445-1.796c-.815-.39-2.285.018-2.285.018l5.225-6.372" fill="#000000"/>
        <path d="m554.7 211.362-1.495 8.15s-.625-1.407-1.445-1.796c-.815-.39-2.285.018-2.285.018l5.225-6.372" fill="none" stroke="#000000" stroke-width=".05"/>
        <path d="M587.325 239.866c2.33-3.832 1.11-8.834-2.72-11.165a8.128 8.128 0 0 0-11.405 3.145" fill="none" stroke="#000000"/>
        <path d="m581.61 243.674 5.39-6.035s-.165 1.504.325 2.227c.485.722 1.955 1.138 1.955 1.138l-7.67 2.67" fill="#000000"/>
        <path d="m581.61 243.674 5.39-6.035s-.165 1.504.325 2.227c.485.722 1.955 1.138 1.955 1.138l-7.67 2.67" fill="none" stroke="#000000" stroke-width=".05"/>
        <text font-family="Helvetica" font-size="200" transform="matrix(.05 0 0 .05 307.299 197.415)" fill="#ff0000">
O</text>
        <path d="m285.707 239.117-.5-.289v-.577l25.482-14.712.5.289v.577l-25.482 14.712z" fill="#000000"/>
        <path d="M259.227 224.405v-1.154l25.98 15v.577l-.5.289-25.48-14.712z" fill="#000000"/>
        <path d="m233.746 239.117-1-.577 26.481-15.289v1.154l-25.481 14.712z" fill="#000000"/>
        <path d="m237.096 241.34-.5-.867 22.381-12.921.5.866-22.381 12.921z" fill="#000000"/>
        <path d="m233.746 268.54-1 .577v-30.578l1 .578v29.423z" fill="#000000"/>
        <path d="M259.227 283.251v1.155l-26.481-15.289 1-.577 25.481 14.711z" fill="#000000"/>
        <path d="m259.477 279.239-.5.866-22.381-12.922.5-.866 22.381 12.922z" fill="#000000"/>
        <path d="m284.707 268.54 1 .577-26.48 15.288v-1.154l25.48-14.711z" fill="#000000"/>
        <path d="m285.707 269.117-1-.577v-29.423l.5-.289.5.289v30z" fill="#000000"/>
        <path d="M282.108 266.75h-1v-25.844h1v25.844z" fill="#000000"/>
        <text font-family="Helvetica" font-size="200" transform="matrix(.05 0 0 .05 333.558 182.415)" fill="#000000">
H</text>
        <path d="m331.488 181.531.5.866-15.609 9.012-.5-.866 15.609-9.012z" fill="#000000"/>
        <path d="M302.248 191.953a.833.833 0 1 0 1.667 0 .833.833 0 1 0-1.667 0z" fill="#000000"/>
        <path d="M302.248 195.703a.833.833 0 1 0 1.667 0 .833.833 0 1 0-1.667 0z" fill="#000000"/>
        <path d="m311.689 223.54-.5.288-.5-.288v-23.846h1v23.846z" fill="#000000"/>
        <path d="M315.289 221.75h-1v-22.056h1v22.056z" fill="#000000"/>
        <text font-family="Helvetica" font-size="200" transform="matrix(.05 0 0 .05 333.28 242.415)" fill="#ff0000">
O</text>
        <path d="m332.486 235.548-.5.866-20.797-12.008v-.578l.5-.288 20.797 12.008z" fill="#000000"/>
        <path d="M337.669 268.828h-1v-24.134h1v24.134z" fill="#000000"/>
        <path d="M344.438 240.703a.833.833 0 1 0 1.667 0 .833.833 0 1 0-1.667 0z" fill="#000000"/>
        <path d="M344.438 236.953a.833.833 0 1 0 1.667 0 .833.833 0 1 0-1.667 0z" fill="#000000"/>
        <path d="M321.407 182.62a6.296 6.296 0 0 0-10.9 0" fill="none" stroke="#000000"/>
        <path d="m310.507 188.913-1.897-7.192s1.151.899 1.897.899c.728 0 1.849-.899 1.849-.899l-1.849 7.192" fill="#000000"/>
        <path d="m310.507 188.913-1.897-7.192s1.151.899 1.897.899c.728 0 1.849-.899 1.849-.899l-1.849 7.192" fill="none" stroke="#000000" stroke-width=".05"/>
        <path d="M317.5 196.68a3.75 3.75 0 1 0 7.5 0 3.75 3.75 0 1 0-7.5 0z" fill="none" stroke-width=".8" stroke="#000000"/>
        <path d="M319.067 196.263h4.334v.8h-4.334z" fill="#000000"/>
        <path d="M321.634 194.497v4.333h-.8v-4.333z" fill="#000000"/>
        <path d="M451.755 249.276h-56.663v-1h56.663z" fill="#000000"/>
        <path d="M402.292 251.276h56.663v1h-56.663z" fill="#000000"/>
        <path d="M460.455 249.276h-8.75c0-1.637-1.25-3.1-1.25-3.1l10 3.1" fill="#000000"/>
        <path d="M460.455 249.276h-8.75c0-1.637-1.25-3.1-1.25-3.1l10 3.1" fill="none" stroke="#000000" stroke-width=".05"/>
        <path d="m393.592 251.276 10 3.1s-1.25-2.462-1.25-3.1h-8.75" fill="#000000"/>
        <path d="m393.592 251.276 10 3.1s-1.25-2.462-1.25-3.1h-8.75" fill="none" stroke="#000000" stroke-width=".05"/>
        <path d="M204.574 249.947h-56.662v-1h56.662z" fill="#000000"/>
        <path d="M155.112 251.947h56.662v1h-56.662z" fill="#000000"/>
        <path d="M213.274 249.947h-8.75c0-1.638-1.25-3.1-1.25-3.1l10 3.1" fill="#000000"/>
        <path d="M213.274 249.947h-8.75c0-1.638-1.25-3.1-1.25-3.1l10 3.1" fill="none" stroke="#000000" stroke-width=".05"/>
        <path d="m146.412 251.947 10 3.1s-1.25-2.463-1.25-3.1h-8.75" fill="#000000"/>
        <path d="m146.412 251.947 10 3.1s-1.25-2.463-1.25-3.1h-8.75" fill="none" stroke="#000000" stroke-width=".05"/>
        <text font-family="Helvetica" font-size="200" transform="matrix(.05 0 0 .05 77.535 199.628)" fill="#ff0000">
O</text>
        <path d="m55.944 241.33-.5-.289v-.577l25.98-15v1.155l-25.48 14.711z" fill="#000000"/>
        <path d="M29.463 226.619v-1.155l25.98 15v.577l-.5.289-25.48-14.712z" fill="#000000"/>
        <path d="m3.982 241.33-1-.578 26.481-15.288v1.155L3.983 241.33z" fill="#000000"/>
        <path d="m7.332 243.553-.5-.867 22.381-12.921.5.866-22.381 12.922z" fill="#000000"/>
        <path d="m3.982 270.752-1 .578v-30.577l1 .577v29.422z" fill="#000000"/>
        <path d="M29.463 285.464v1.154L2.983 271.33l1-.577 25.48 14.711z" fill="#000000"/>
        <path d="m29.713 281.452-.5.866-22.38-12.922.499-.866 22.381 12.922z" fill="#000000"/>
        <path d="m54.944 270.752 1 .578-26.481 15.288v-1.154l25.48-14.712z" fill="#000000"/>
        <path d="m55.944 271.33-1-.577V241.33l.5-.289.5.289v30z" fill="#000000"/>
        <path d="M52.344 268.963h-1v-25.844h1v25.844z" fill="#000000"/>
        <path d="M72.484 194.167a.833.833 0 1 0 1.667 0 .833.833 0 1 0-1.667 0z" fill="#000000"/>
        <path d="M72.484 197.917a.833.833 0 1 0 1.667 0 .833.833 0 1 0-1.667 0z" fill="#000000"/>
        <path d="M83.724 227.08h-1v-25.173h1v25.173z" fill="#000000"/>
        <path d="M80.124 227.08h-1v-25.173h1v25.173z" fill="#000000"/>
        <text font-family="Helvetica" font-size="200" transform="matrix(.05 0 0 .05 103.516 244.628)" fill="#ff0000">
O</text>
        <path d="m102.722 237.76-.5.867-20.797-12.008v-1.155l21.297 12.297z" fill="#000000"/>
        <path d="M107.905 271.041h-1v-24.134h1v24.134z" fill="#000000"/>
        <path d="M114.674 242.916a.834.834 0 1 0 1.667 0 .834.834 0 1 0-1.667 0z" fill="#000000"/>
        <path d="M114.674 239.166a.834.834 0 1 0 1.667 0 .834.834 0 1 0-1.667 0z" fill="#000000"/>
        <path d="M88.694 197.917a.833.833 0 1 0 1.666 0 .833.833 0 1 0-1.666 0z" fill="#000000"/>
        <path d="M88.694 194.167a.833.833 0 1 0 1.666 0 .833.833 0 1 0-1.666 0z" fill="#000000"/>
        <text font-family="Helvetica" font-size="240" transform="matrix(.05 0 0 .05 129.155 213.434)" fill="#ff0000">
H</text>
        <text font-family="Helvetica" font-size="180" transform="matrix(.05 0 0 .05 137.822 216.194)" fill="#ff0000">
2</text>
        <text font-family="Helvetica" font-size="240" transform="matrix(.05 0 0 .05 142.827 213.434)" fill="#ff0000">
O</text>
        <text font-family="Helvetica" font-size="240" transform="matrix(.05 0 0 .05 106.38 204.056)" fill="#000000">
H</text>
        <text font-family="Helvetica" font-size="180" transform="matrix(.05 0 0 .05 115.046 199.752)" fill="#000000">
+</text>
        <path d="M108.445 232.936a.833.833 0 1 0 1.666 0 .833.833 0 1 0-1.666 0z" fill="#000000"/>
        <path d="M104.695 232.936a.833.833 0 1 0 1.666 0 .833.833 0 1 0-1.666 0z" fill="#000000"/>
        <path d="M338.209 230.724a.833.833 0 1 0 1.666 0 .833.833 0 1 0-1.666 0z" fill="#000000"/>
        <path d="M334.459 230.724a.833.833 0 1 0 1.666 0 .833.833 0 1 0-1.666 0z" fill="#000000"/>
        <path d="M547.505 187.784a.833.833 0 1 0 1.665 0 .833.833 0 1 0-1.665 0z" fill="#000000"/>
        <path d="M543.755 187.784a.833.833 0 1 0 1.665 0 .833.833 0 1 0-1.665 0z" fill="#000000"/>
        <path d="M563.32 94.442a.833.833 0 1 0 1.665 0 .833.833 0 1 0-1.665 0z" fill="#000000"/>
        <path d="M567.07 94.442a.833.833 0 1 0 1.665 0 .833.833 0 1 0-1.665 0z" fill="#000000"/>
        <path d="M566.95 98.536c3.125 11.661 15.13 18.59 26.79 15.466a21.974 21.974 0 0 0 7.815-3.897" fill="none" stroke="#000000"/>
        <path d="m606.305 104.966-3.915 7.28s-.175-1.525-.835-2.141c-.665-.617-2.2-.674-2.2-.674l6.95-4.465" fill="#000000"/>
        <path d="m606.305 104.966-3.915 7.28s-.175-1.525-.835-2.141c-.665-.617-2.2-.674-2.2-.674l6.95-4.465" fill="none" stroke="#000000" stroke-width=".05"/>
        <path d="M585.165 82.124a7.535 7.535 0 0 0 8.62 6.262 7.602 7.602 0 0 0 4.15-2.114" fill="none" stroke="#000000"/>
        <path d="m587.28 75.618-.51 8.089s-.79-1.304-1.605-1.583c-.815-.28-2.21.275-2.21.275l4.325-6.781" fill="#000000"/>
        <path d="m587.28 75.618-.51 8.089s-.79-1.304-1.605-1.583c-.815-.28-2.21.275-2.21.275l4.325-6.781" fill="none" stroke="#000000" stroke-width=".05"/>
    </g>
</svg>
