<svg height="578" viewBox="0 0 1242 578" width="1242" xmlns="http://www.w3.org/2000/svg" xmlns:xlink="http://www.w3.org/1999/xlink"><symbol id="a" overflow="visible"><path d="m7.78125-14.8125c-4.1875 0-7.015625 3.078125-7.015625 7.625 0 4.59375 2.8125 7.640625 7.03125 7.640625 1.78125 0 3.34375-.53125 4.515625-1.53125 1.59375-1.34375 2.53125-3.609375 2.53125-5.984375 0-4.703125-2.78125-7.75-7.0625-7.75zm0 1.625c3.15625 0 5.203125 2.390625 5.203125 6.09375 0 3.515625-2.109375 5.90625-5.1875 5.90625-3.109375 0-5.171875-2.390625-5.171875-6 0-3.59375 2.0625-6 5.15625-6zm0 0"/></symbol><symbol id="b" overflow="visible"><path d="m11.015625-6.640625v6.640625h1.859375v-14.578125h-1.859375v6.296875h-7.5v-6.296875h-1.859375v14.578125h1.859375v-6.640625zm0 0"/></symbol><symbol id="c" overflow="visible"><path d="m8.015625-4h-3.109375v-3.109375h-1.046875v3.109375h-3.109375v1.046875h3.109375v3.109375h1.046875v-3.109375h3.109375zm0 0"/></symbol><symbol id="d" overflow="visible"><path d="m13.21875-7.96875v7.96875h2.234375v-17.5h-2.234375v7.5625h-9v-7.5625h-2.234375v17.5h2.234375v-7.96875zm0 0"/></symbol><symbol id="e" overflow="visible"><path d="m9.34375-17.78125c-5.03125 0-8.4375 3.6875-8.4375 9.171875s3.390625 9.15625 8.453125 9.15625c2.140625 0 4.015625-.640625 5.421875-1.84375 1.90625-1.609375 3.03125-4.3125 3.03125-7.171875 0-5.640625-3.34375-9.3125-8.46875-9.3125zm0 1.96875c3.78125 0 6.234375 2.859375 6.234375 7.296875 0 4.21875-2.515625 7.09375-6.21875 7.09375-3.75 0-6.21875-2.875-6.21875-7.1875 0-4.328125 2.46875-7.203125 6.203125-7.203125zm0 0"/></symbol><symbol id="f" overflow="visible"><path d="m9.109375-1.5625h-6.71875c.171875-1.078125.734375-1.765625 2.3125-2.71875l1.796875-1.015625c1.78125-.984375 2.703125-2.3125 2.703125-3.921875 0-1.078125-.4375-2.078125-1.1875-2.78125-.765625-.6875-1.703125-1.015625-2.90625-1.015625-1.625 0-2.828125.578125-3.53125 1.6875-.4375.6875-.640625 1.5-.671875 2.8125h1.578125c.046875-.875.15625-1.40625.375-1.828125.421875-.796875 1.25-1.28125 2.203125-1.28125 1.4375 0 2.515625 1.046875 2.515625 2.4375 0 1.046875-.59375 1.953125-1.734375 2.59375l-1.65625.984375c-2.65625 1.515625-3.4375 2.75-3.578125 5.59375h8.5zm0 0"/></symbol><symbol id="g" overflow="visible"><path d="m9.609375-4.8125h-3.71875v-3.71875h-1.265625v3.71875h-3.71875v1.265625h3.71875v3.734375h1.265625v-3.734375h3.71875zm0 0"/></symbol><use fill="#f00" x="158.015625" xlink:href="#a" y="49.169824"/><g fill="#f00"><use x="209.972656" xlink:href="#a" y="139.169824"/><use x="225.532617" xlink:href="#b" y="139.169824"/></g><path d="m114.828125 132.574219-1-.578125v-1.15625l51.960937-30v2.308594zm0 0"/><path d="m61.867188 103.148438v-2.304688l51.960937 30v1.152344l-1 .574218zm0 0"/><path d="m10.90625 132.574219-2-1.15625 52.960938-30.574219v2.304688zm0 0"/><path d="m17.605469 137.019531-1-1.734375 44.761719-25.839844 1 1.730469-44.757813 25.84375zm0 0"/><path d="m10.90625 191.417969-2 1.15625v-61.15625l2 1.15625zm0 0"/><path d="m61.867188 220.839844v2.308594l-52.960938-30.574219 2-1.15625 50.960938 29.425781zm0 0"/><path d="m62.367188 212.816406-1 1.730469-44.757813-25.839844 1-1.734375zm0 0"/><path d="m112.828125 191.417969 2 1.15625-52.960937 30.574219v-2.304688zm0 0"/><path d="m114.828125 192.574219-2-1.15625v-58.84375l1-.578125 1 .574218zm0 0"/><path d="m107.628906 187.839844h-2v-51.6875h2zm0 0"/><path d="m161.191406 53.726562h2v50.347657h-2zm0 0"/><path d="m168.390625 53.726562h2v50.347657h-2zm0 0"/><path d="m208.429688 125.460938-1 1.730468-41.640626-24.042968v-2.304688zm0 0"/><use fill="#f00" x="593.832031" xlink:href="#a" y="49.181543"/><g fill="#f00"><use x="645.792969" xlink:href="#a" y="139.181543"/><use x="661.35293" xlink:href="#b" y="139.181543"/></g><path d="m550.648438 132.582031-1-.574219v-1.15625l50.960937-29.421874 1 .578124v1.152344l-50.960937 29.425782zm0 0"/><path d="m497.6875 103.160156v-2.308594l51.960938 30v1.15625l-1 .574219zm0 0"/><path d="m446.726562 132.582031-2-1.152343 52.960938-30.578126v2.308594l-50.960938 29.425782zm0 0"/><path d="m453.425781 137.027344-1-1.730469 44.761719-25.84375 1 1.734375zm0 0"/><path d="m446.726562 191.429688-2 1.15625v-61.160157l2 1.15625zm0 0"/><path d="m497.6875 220.851562v2.308594l-52.960938-30.574218 2-1.15625zm0 0"/><path d="m498.1875 212.824219-1 1.734375-44.761719-25.84375 1-1.734375zm0 0"/><path d="m548.648438 191.429688 2 1.15625-52.960938 30.574218v-2.308594zm0 0"/><path d="m550.648438 192.582031-2-1.152343v-58.84375l1-.578126 1 .574219zm0 0"/><path d="m543.449219 187.847656h-2v-51.6875h2zm0 0"/><path d="m600.609375 53.738281h2v47.691407l-1 .578124-1-.578124zm0 0"/><path d="m607.8125 53.738281h2v44.113281h-2zm0 0"/><path d="m644.253906 125.46875-1 1.734375-41.640625-24.042969v-1.152344l1-.578124zm0 0"/><g fill="#f00"><use x="703.707031" xlink:href="#b" y="108.775293"/><use x="718.14707" xlink:href="#a" y="108.775293"/></g><path d="m736.882812 102.535156-.011718-2 49.050781-.292968.011719 2zm0 0"/><use x="259.632812" xlink:href="#b" y="73.290918"/><use x="274.074219" xlink:href="#c" y="66.114648"/><path d="m167.871094 25.785156c0 .921875.746094 1.667969 1.664062 1.667969.921875 0 1.667969-.746094 1.667969-1.667969 0-.917968-.746094-1.667968-1.667969-1.667968-.917968 0-1.664062.75-1.664062 1.667968zm0 0"/><path d="m160.371094 25.785156c0 .921875.746094 1.667969 1.664062 1.667969.921875 0 1.667969-.746094 1.667969-1.667969 0-.917968-.746094-1.667968-1.667969-1.667968-.917968 0-1.664062.75-1.664062 1.667968zm0 0"/><path d="m180.328125 45.746094c-.027344.613281.28125 1.195312.808594 1.511718.53125.316407 1.1875.316407 1.714843 0 .53125-.316406.839844-.898437.808594-1.511718.03125-.613282-.277344-1.195313-.808594-1.511719-.527343-.316406-1.183593-.316406-1.714843 0-.527344.316406-.835938.898437-.808594 1.511719zm0 0"/><path d="m180.328125 38.246094c-.027344.613281.28125 1.195312.808594 1.511718.53125.316407 1.1875.316407 1.714843 0 .53125-.316406.839844-.898437.808594-1.511718.03125-.613282-.277344-1.195313-.808594-1.511719-.527343-.316406-1.183593-.316406-1.714843 0-.527344.316406-.835938.898437-.808594 1.511719zm0 0"/><path d="m212.332031 148.207031c-.019531.609375.292969 1.179688.816407 1.492188.523437.308593 1.175781.308593 1.703124 0 .523438-.3125.835938-.882813.8125-1.492188.023438-.609375-.289062-1.183593-.8125-1.492187-.527343-.3125-1.179687-.3125-1.703124 0-.523438.308594-.835938.882812-.816407 1.492187zm0 0"/><path d="m219.832031 148.207031c-.019531.609375.292969 1.179688.816407 1.492188.523437.308593 1.175781.308593 1.703124 0 .523438-.3125.835938-.882813.8125-1.492188.023438-.609375-.289062-1.183593-.8125-1.492187-.527343-.3125-1.179687-.3125-1.703124 0-.523438.308594-.835938.882812-.816407 1.492187zm0 0"/><path d="m219.832031 115.785156c-.019531.609375.292969 1.183594.816407 1.492188.523437.3125 1.175781.3125 1.703124 0 .523438-.308594.835938-.882813.8125-1.492188.023438-.609375-.289062-1.179687-.8125-1.492187-.527343-.308594-1.179687-.308594-1.703124 0-.523438.3125-.835938.882812-.816407 1.492187zm0 0"/><path d="m212.332031 115.785156c-.019531.609375.292969 1.183594.816407 1.492188.523437.3125 1.175781.3125 1.703124 0 .523438-.308594.835938-.882813.8125-1.492188.023438-.609375-.289062-1.179687-.8125-1.492187-.527343-.308594-1.179687-.308594-1.703124 0-.523438.3125-.835938.882812-.816407 1.492187zm0 0"/><path d="m648.152344 148.214844c0 .921875.746094 1.667968 1.664062 1.667968.921875 0 1.667969-.746093 1.667969-1.667968 0-.917969-.746094-1.664063-1.667969-1.664063-.917968 0-1.664062.746094-1.664062 1.664063zm0 0"/><path d="m655.652344 148.214844c0 .921875.746094 1.667968 1.664062 1.667968.921875 0 1.667969-.746093 1.667969-1.667968 0-.917969-.746094-1.664063-1.667969-1.664063-.917968 0-1.664062.746094-1.664062 1.664063zm0 0"/><path d="m655.652344 115.796875c0 .917969.746094 1.664063 1.664062 1.664063.921875 0 1.667969-.746094 1.667969-1.664063 0-.921875-.746094-1.667969-1.667969-1.667969-.917968 0-1.664062.746094-1.664062 1.667969zm0 0"/><path d="m648.152344 115.796875c0 .917969.746094 1.664063 1.664062 1.664063.921875 0 1.667969-.746094 1.667969-1.664063 0-.921875-.746094-1.667969-1.667969-1.667969-.917968 0-1.664062.746094-1.664062 1.667969zm0 0"/><path d="m133.830078 23.197266c-.794922-11.382813-10.679687-19.97461-22.0625-19.179688-8.552734.597656-16.304687 6.990234-18.52539 15.269531" fill="none" stroke="#000" transform="scale(2)"/><path d="m133.177734 29.990234-1.24414-8s1.048828 1.105469 1.896484 1.207032c.84961.101562 2.083984-.732422 2.083984-.732422l-2.736328 7.523437" stroke="#000" stroke-width=".05" transform="scale(2)"/><use x="646.351562" xlink:href="#b" y="19.181543"/><path d="m642.210938 17.410156 1 1.734375-31.21875 18.023438-1-1.734375zm0 0"/><path d="m301.517578 11.478516c0 2.070312 1.679688 3.75 3.75 3.75 2.072266 0 3.75-1.679688 3.75-3.75 0-2.072266-1.677734-3.75-3.75-3.75-2.070312 0-3.75 1.677734-3.75 3.75zm0 0" fill="none" stroke="#000" stroke-width=".8" transform="scale(2)"/><path d="m606.167969 22.121094h8.667969v1.601562h-8.667969zm0 0"/><path d="m611.300781 18.589844v8.667968h-1.597656v-8.667968zm0 0"/><path d="m583.730469 38.257812c0 .917969.746093 1.664063 1.667969 1.664063.917968 0 1.664062-.746094 1.664062-1.664063 0-.921874-.746094-1.667968-1.664062-1.667968-.921876 0-1.667969.746094-1.667969 1.667968zm0 0"/><path d="m583.730469 45.757812c0 .917969.746093 1.664063 1.667969 1.664063.917968 0 1.664062-.746094 1.664062-1.664063 0-.921874-.746094-1.667968-1.664062-1.667968-.921876 0-1.667969.746094-1.667969 1.667968zm0 0"/><path d="m728.007812 85.390625c-.023437.609375.289063 1.183594.816407 1.492187.523437.3125 1.175781.3125 1.699219 0 .523437-.308593.835937-.882812.816406-1.492187.019531-.609375-.292969-1.179687-.816406-1.492187-.523438-.308594-1.175782-.308594-1.699219 0-.527344.3125-.839844.882812-.816407 1.492187zm0 0"/><path d="m720.507812 85.390625c-.023437.609375.289063 1.183594.816407 1.492187.523437.3125 1.175781.3125 1.699219 0 .523437-.308593.835937-.882812.816406-1.492187.019531-.609375-.292969-1.179687-.816406-1.492187-.523438-.308594-1.175782-.308594-1.699219 0-.527344.3125-.839844.882812-.816407 1.492187zm0 0"/><path d="m720.507812 117.8125c-.023437.609375.289063 1.179688.816407 1.492188.523437.3125 1.175781.3125 1.699219 0 .523437-.3125.835937-.882813.816406-1.492188.019531-.609375-.292969-1.183594-.816406-1.492188-.523438-.3125-1.175782-.3125-1.699219 0-.527344.308594-.839844.882813-.816407 1.492188zm0 0"/><path d="m728.007812 117.8125c-.023437.609375.289063 1.179688.816407 1.492188.523437.3125 1.175781.3125 1.699219 0 .523437-.3125.835937-.882813.816406-1.492188.019531-.609375-.292969-1.183594-.816406-1.492188-.523438-.3125-1.175782-.3125-1.699219 0-.527344.308594-.839844.882813-.816407 1.492188zm0 0"/><g stroke="#000" transform="scale(2)"><path d="m300.238281 61.304688c-.888672 17.296874 12.429688 32.058593 29.726563 32.949218s32.058594-12.427734 32.949218-29.724609c.027344-.537109.041016-1.076172.041016-1.611328" fill="none"/><path d="m301.404297 54.296875.720703 8.390625s-.974609-1.212891-1.886719-1.382812c-.910156-.169922-2.21875.617187-2.21875.617187z" stroke-width=".05"/><path d="m284.849609 21.638672c-3.388671 4.357422-2.603515 10.646484 1.75586 14.037109 3.128906 2.431641 7.710937 2.748047 11.142578.765625" fill="none"/><path d="m290.644531 17.998047-5.53125 5.865234s.203125-1.496093-.261719-2.224609c-.466796-.730469-1.917968-1.1875-1.917968-1.1875z" stroke-width=".05"/></g><path d="m406.019531 152.902344h-110.195312v-2h110.195312zm0 0"/><path d="m310.222656 156.902344h110.195313v2h-110.195313zm0 0"/><path d="m211.708984 76.451172h-8.75c0-1.636719-1.25-3.09961-1.25-3.09961z" stroke="#000" stroke-width=".05" transform="scale(2)"/><path d="m146.412109 78.451172 10 3.099609s-1.25-2.460937-1.25-3.099609z" stroke="#000" stroke-width=".05" transform="scale(2)"/><path d="m918.25 128.789062h-113.328125v-2h113.328125zm0 0"/><path d="m819.320312 132.789062h113.328126v2h-113.328126zm0 0"/><path d="m467.824219 64.394531h-8.75c0-1.638672-1.25-3.099609-1.25-3.099609z" stroke="#000" stroke-width=".05" transform="scale(2)"/><path d="m400.960938 66.394531 10 3.09961s-1.25-2.462891-1.25-3.09961z" stroke="#000" stroke-width=".05" transform="scale(2)"/><use fill="#f00" x="1124.28125" xlink:href="#a" y="60.044824"/><g fill="#f00"><use x="1124.28125" xlink:href="#a" y="179.845605"/><use x="1139.841211" xlink:href="#b" y="179.845605"/></g><path d="m1081.179688 143.300781-1-.578125v-1.152344l50.878906-29.375 1 .578126-1 1.734374zm0 0"/><path d="m1028.308594 113.929688v-2.308594l51.871094 29.949218v1.152344l-1 .578125zm0 0"/><path d="m977.429688 143.300781-2-1.15625 52.878906-30.523437v2.308594zm0 0"/><path d="m984.121094 147.738281-1-1.730469 44.6875-25.800781 1 1.734375zm0 0"/><path d="m977.429688 202.046875-2 1.15625v-61.058594l2 1.15625zm0 0"/><path d="m1028.308594 231.421875v2.304687l-52.878906-30.523437 2-1.15625zm0 0"/><path d="m1028.808594 223.40625-1 1.734375-44.6875-25.800781 1-1.730469zm0 0"/><path d="m1079.179688 202.046875 2 1.15625-52.871094 30.523437v-2.304687zm0 0"/><path d="m1081.179688 203.199219-2-1.152344v-58.746094l1-.578125 1 .578125v59.902344zm0 0"/><path d="m1073.988281 198.472656h-2l.011719-51.597656h2zm0 0"/><path d="m1133.058594 161.207031h-2v-46.699219l1-1.734374 1 1.734374zm0 0"/><use x="1176.710938" xlink:href="#b" y="30.095605"/><path d="m1172.570312 28.328125 1 1.734375-31.128906 17.972656-1-1.734375zm0 0"/><path d="m1114.179688 49.125c-.019532.609375.292968 1.179688.816406 1.488281.523437.3125 1.175781.3125 1.699218 0 .523438-.308593.835938-.878906.816407-1.488281.019531-.609375-.292969-1.179688-.816407-1.492188-.523437-.308593-1.175781-.308593-1.699218 0-.523438.3125-.835938.882813-.816406 1.492188zm0 0"/><path d="m1114.179688 56.625c-.019532.609375.292968 1.179688.816406 1.488281.523437.3125 1.175781.3125 1.699218 0 .523438-.308593.835938-.878906.816407-1.488281.019531-.609375-.292969-1.179688-.816407-1.492188-.523437-.308593-1.175781-.308593-1.699218 0-.523438.3125-.835938.882813-.816406 1.492188zm0 0"/><path d="m1133.058594 112.195312-1 .578126-1-.578126v-47.589843h2zm0 0"/><use fill="#f00" x="1176.152344" xlink:href="#a" y="149.896387"/><path d="m1174.570312 136.160156-1 1.734375-40.511718-23.386719-1-1.734374 1-.578126zm0 0"/><path d="m1134.140625 36.664062c-.023437.609376.289063 1.179688.816406 1.492188.523438.308594 1.171875.308594 1.699219 0 .523438-.3125.835938-.882812.8125-1.492188.023438-.609374-.289062-1.179687-.8125-1.492187-.527344-.308594-1.175781-.308594-1.699219 0-.527343.3125-.839843.882813-.816406 1.492187zm0 0"/><path d="m1126.640625 36.664062c-.023437.609376.289063 1.179688.816406 1.492188.523438.308594 1.171875.308594 1.699219 0 .523438-.3125.835938-.882812.8125-1.492188.023438-.609374-.289062-1.179687-.8125-1.492187-.527344-.308594-1.175781-.308594-1.699219 0-.527343.3125-.839843.882813-.816406 1.492187zm0 0"/><use x="1206.710938" xlink:href="#b" y="201.857324"/><path d="m1208.210938 182.777344-1.730469 1-17.570313-30.429688 1.730469-1zm0 0"/><path d="m1235.308594 111.90625 1 1.734375-42 24.242187-1-1.730468zm0 0"/><path d="m1186.011719 126.515625c-.023438.605469.289062 1.179687.8125 1.488281.523437.3125 1.175781.3125 1.699219 0 .523437-.308594.835937-.882812.816406-1.488281.019531-.609375-.292969-1.183594-.816406-1.492187-.523438-.3125-1.175782-.3125-1.699219 0-.523438.308593-.835938.882812-.8125 1.492187zm0 0"/><path d="m1178.511719 126.515625c-.023438.605469.289062 1.179687.8125 1.488281.523437.3125 1.175781.3125 1.699219 0 .523437-.308594.835937-.882812.816406-1.488281.019531-.609375-.292969-1.183594-.816406-1.492187-.523438-.3125-1.175782-.3125-1.699219 0-.523438.308593-.835938.882812-.8125 1.492187zm0 0"/><path d="m596.619141 73.75c0 2.070312 1.679687 3.75 3.75 3.75 2.072265 0 3.75-1.679688 3.75-3.75s-1.677735-3.75-3.75-3.75c-2.070313 0-3.75 1.679688-3.75 3.75zm0 0" fill="none" stroke="#000" stroke-width=".8" transform="scale(2)"/><path d="m1196.378906 146.664062h8.660156v1.601563h-8.660156zm0 0"/><path d="m1201.511719 143.132812v8.667969h-1.601563v-8.667969zm0 0"/><path d="m1114.179688 168.925781c-.019532.605469.292968 1.179688.816406 1.488281.523437.3125 1.175781.3125 1.699218 0 .523438-.308593.835938-.882812.816407-1.488281.019531-.609375-.292969-1.183593-.816407-1.492187-.523437-.3125-1.175781-.3125-1.699218 0-.523438.308594-.835938.882812-.816406 1.492187zm0 0"/><path d="m1114.179688 176.425781c-.019532.605469.292968 1.179688.816406 1.488281.523437.3125 1.175781.3125 1.699218 0 .523438-.308593.835938-.882812.816407-1.488281.019531-.609375-.292969-1.183593-.816407-1.492187-.523437-.3125-1.175781-.3125-1.699218 0-.523438.308594-.835938.882812-.816406 1.492187zm0 0"/><path d="m1124.839844 324.882812v-73.519531h2v73.519531zm0 0"/><path d="m1120.839844 268.265625v73.519531h-2v-73.519531zm0 0"/><path d="m562.419922 172.392578v-10h3.050781z" stroke="#000" stroke-width=".05" transform="scale(2)"/><path d="m560.419922 124.181641-3.050781 10h3.050781z" stroke="#000" stroke-width=".05" transform="scale(2)"/><use fill="#f00" x="1085.152344" xlink:href="#a" y="398.951074"/><use fill="#f00" x="1143.632812" xlink:href="#a" y="501.64248"/><path d="m1080.078125 468.242188-.988281-.582032v-1.152344l50.609375-28.816406 1.53125.277344-.550781 1.460938zm0 0"/><path d="m1027.300781 438.507812.007813-2.308593 51.78125 30.308593v1.152344l-1.011719.570313zm0 0"/><path d="m976.160156 467.628906-1.988281-1.167968 53.136719-30.261719-.007813 2.308593zm0 0"/><path d="m982.839844 472.113281-.988282-1.738281 44.910157-25.578125.988281 1.738281zm0 0"/><path d="m975.808594 526.472656-2 1.140625.363281-61.152343 1.988281 1.167968zm0 0"/><path d="m1026.601562 556.195312-.011718 2.308594-52.78125-30.890625 2-1.144531zm0 0"/><path d="m1027.148438 548.175781-1.007813 1.722657-44.609375-26.105469 1.007812-1.730469zm0 0"/><path d="m1077.730469 527.074219 2 1.167969-53.140625 30.265624.011718-2.3125zm0 0"/><path d="m1079.730469 528.242188-2-1.167969.347656-58.84375 1.011719-.570313.988281.582032zm0 0"/><path d="m1072.558594 523.464844-2-.011719.300781-51.683594 2 .011719zm0 0"/><path d="m1148.429688 483.15625-1.878907.671875-15.871093-44.398437.550781-1.460938 1.339843.785156zm0 0"/><use x="1137.671875" xlink:href="#b" y="368.951074"/><path d="m1133.53125 367.183594 1 1.730468-31.222656 18.027344-1-1.734375zm0 0"/><path d="m1074.648438 390.800781c-.019532.609375.292968 1.179688.816406 1.492188.523437.308593 1.175781.308593 1.699218 0 .523438-.3125.835938-.882813.816407-1.492188.019531-.605469-.292969-1.179687-.816407-1.488281-.523437-.3125-1.175781-.3125-1.699218 0-.523438.308594-.835938.882812-.816406 1.488281zm0 0"/><path d="m1075.910156 398.195312c-.019531.605469.292969 1.179688.816406 1.488282.523438.3125 1.175782.3125 1.699219 0 .523438-.308594.835938-.882813.8125-1.488282.023438-.609374-.289062-1.179687-.8125-1.492187-.523437-.308594-1.175781-.308594-1.699219 0-.523437.3125-.835937.882813-.816406 1.492187zm0 0"/><path d="m1131.628906 436.886719-.398437 1.082031-1.53125-.28125-30.121094-36.324219 1.542969-1.277343zm0 0"/><use fill="#f00" x="1182.597656" xlink:href="#a" y="435.072168"/><path d="m1179.371094 428.761719.328125 1.96875-47.128907 8.023437-1.339843-.785156.398437-1.082031 47.742188-8.128907zm0 0"/><path d="m1229.441406 473.453125-1.542968 1.273437-30.878907-37.242187 1.539063-1.277344zm0 0"/><path d="m1205.308594 428.878906c0 .921875.75 1.667969 1.671875 1.667969s1.667969-.746094 1.667969-1.667969-.746094-1.671875-1.667969-1.671875-1.671875.75-1.671875 1.671875zm0 0"/><path d="m1204.050781 421.484375c0 .921875.746094 1.667969 1.667969 1.667969s1.671875-.746094 1.671875-1.667969-.75-1.671875-1.671875-1.671875-1.667969.75-1.667969 1.671875zm0 0"/><path d="m1148.761719 511.078125c0 .925781.746093 1.671875 1.667969 1.671875.921874 0 1.671874-.746094 1.671874-1.671875 0-.921875-.75-1.667969-1.671874-1.667969-.921876 0-1.667969.746094-1.667969 1.667969zm0 0"/><path d="m1156.160156 509.820312c-.019531.609376.292969 1.179688.816406 1.492188.523438.308594 1.175782.308594 1.699219 0 .523438-.3125.835938-.882812.8125-1.492188.023438-.609374-.289062-1.179687-.8125-1.492187-.523437-.308594-1.175781-.308594-1.699219 0-.523437.3125-.835937.882813-.816406 1.492187zm0 0"/><path d="m1189.679688 411.289062c-.019532.609376.292968 1.179688.816406 1.492188.523437.308594 1.175781.308594 1.699218 0 .523438-.3125.835938-.882812.816407-1.492188.019531-.609374-.292969-1.179687-.816407-1.488281-.523437-.3125-1.175781-.3125-1.699218 0-.523438.308594-.835938.878907-.816406 1.488281zm0 0"/><path d="m1182.289062 412.550781c-.019531.609375.292969 1.179688.816407 1.488281.523437.3125 1.175781.3125 1.699219 0 .523437-.308593.835937-.878906.816406-1.488281.019531-.609375-.292969-1.179687-.816406-1.492187-.523438-.308594-1.175782-.308594-1.699219 0-.523438.3125-.835938.882812-.816407 1.492187zm0 0"/><use x="1105.351562" xlink:href="#b" y="547.376855"/><path d="m1121.878906 530.789062-1.519531-1.296874 22.640625-26.664063 1.53125 1.292969zm0 0"/><use x="1203.214844" xlink:href="#b" y="512.412012"/><path d="m1200.050781 502.328125-.359375 1.964844-37.601562-6.859375.359375-1.964844zm0 0"/><path d="m562.775391 246.638672c0 2.072266 1.677734 3.75 3.75 3.75 2.070312 0 3.75-1.677734 3.75-3.75 0-2.070313-1.679688-3.75-3.75-3.75-2.072266 0-3.75 1.679687-3.75 3.75zm0 0" fill="none" stroke="#000" stroke-width=".8" transform="scale(2)"/><path d="m1128.691406 492.445312h8.660156v1.597657h-8.660156zm0 0"/><path d="m1133.820312 488.910156v8.667969h-1.601562v-8.667969zm0 0"/><path d="m535.880859 198.228516c-6.15625 3.423828-8.375 11.203125-4.951171 17.363281 3.425781 6.15625 11.205078 8.376953 17.365234 4.951172 1.310547-.728516 2.490234-1.691407 3.464844-2.826172" fill="none" stroke="#000" transform="scale(2)"/><path d="m554.699219 211.361328-1.494141 8.150391s-.625-1.40625-1.445312-1.794922c-.814454-.390625-2.285157.017578-2.285157.017578z" stroke="#000" stroke-width=".05" transform="scale(2)"/><path d="m587.324219 239.865234c2.330078-3.832031 1.111328-8.833984-2.71875-11.164062-1.914063-1.16211-4.222657-1.484375-6.38086-.888672-2.160156.59375-3.976562 2.054688-5.02539 4.033203" fill="none" stroke="#000" transform="scale(2)"/><path d="m581.609375 243.673828 5.390625-6.035156s-.164062 1.503906.324219 2.226562c.486328.722657 1.955078 1.138672 1.955078 1.138672z" stroke="#000" stroke-width=".05" transform="scale(2)"/><use fill="#f00" x="614.597656" xlink:href="#a" y="394.82998"/><path d="m571.414062 478.234375-1-.578125v-1.152344l50.964844-29.425781 1 .578125v1.152344zm0 0"/><path d="m518.453125 448.808594v-2.304688l51.960937 30v1.152344l-1 .578125zm0 0"/><path d="m467.492188 478.234375-2-1.15625 52.960937-30.574219v2.304688zm0 0"/><path d="m474.191406 482.679688-1-1.734376 44.761719-25.839843 1 1.730469zm0 0"/><path d="m467.492188 537.078125-2 1.15625v-61.15625l2 1.15625zm0 0"/><path d="m518.453125 566.503906v2.308594l-52.960937-30.578125 2-1.15625zm0 0"/><path d="m518.953125 558.476562-1 1.734376-44.761719-25.84375 1-1.734376zm0 0"/><path d="m569.414062 537.078125 2 1.15625-52.960937 30.574219v-2.304688zm0 0"/><path d="m571.414062 538.234375-2-1.15625v-58.84375l1-.578125 1 .578125zm0 0"/><path d="m564.214844 533.5h-2v-51.6875h2zm0 0"/><use x="667.117188" xlink:href="#b" y="364.82998"/><path d="m662.976562 363.0625 1 1.730469-31.21875 18.023437-1-1.730468zm0 0"/><path d="m604.496094 383.90625c0 .921875.746094 1.667969 1.667968 1.667969.917969 0 1.664063-.746094 1.664063-1.667969s-.746094-1.667969-1.664063-1.667969c-.921874 0-1.667968.746094-1.667968 1.667969zm0 0"/><path d="m604.496094 391.40625c0 .921875.746094 1.667969 1.667968 1.667969.917969 0 1.664063-.746094 1.664063-1.667969s-.746094-1.667969-1.664063-1.667969c-.921874 0-1.667968.746094-1.667968 1.667969zm0 0"/><path d="m623.378906 447.078125-1 .578125-1-.578125v-47.691406h2zm0 0"/><path d="m630.578125 443.5h-2v-44.113281h2zm0 0"/><use fill="#f00" x="666.558594" xlink:href="#a" y="484.82998"/><path d="m664.972656 471.097656-1 1.730469-41.59375-24.015625v-1.15625l1-.578125zm0 0"/><path d="m675.339844 537.65625h-2v-48.269531h2zm0 0"/><path d="m688.875 481.40625c0 .921875.746094 1.667969 1.667969 1.667969s1.667969-.746094 1.667969-1.667969-.746094-1.667969-1.667969-1.667969-1.667969.746094-1.667969 1.667969zm0 0"/><path d="m688.875 473.90625c0 .921875.746094 1.667969 1.667969 1.667969s1.667969-.746094 1.667969-1.667969-.746094-1.667969-1.667969-1.667969-1.667969.746094-1.667969 1.667969zm0 0"/><path d="m321.40625 182.619141c-1.125-1.945313-3.201172-3.142579-5.449219-3.142579s-4.324219 1.197266-5.449219 3.142579" fill="none" stroke="#000" transform="scale(2)"/><path d="m310.507812 188.912109-1.898437-7.191406s1.152344.898438 1.898437.898438c.726563 0 1.847657-.898438 1.847657-.898438z" stroke="#000" stroke-width=".05" transform="scale(2)"/><path d="m317.5 196.679688c0 2.072265 1.679688 3.75 3.75 3.75s3.75-1.677735 3.75-3.75c0-2.070313-1.679688-3.75-3.75-3.75s-3.75 1.679687-3.75 3.75zm0 0" fill="none" stroke="#000" stroke-width=".8" transform="scale(2)"/><path d="m638.132812 392.527344h8.667969v1.597656h-8.667969zm0 0"/><path d="m643.269531 388.992188v8.667968h-1.601562v-8.667968zm0 0"/><path d="m903.511719 498.550781h-113.328125v-2h113.328125zm0 0"/><path d="m804.585938 502.550781h113.324218v2h-113.324218zm0 0"/><path d="m460.455078 249.275391h-8.75c0-1.636719-1.25-3.09961-1.25-3.09961z" stroke="#000" stroke-width=".05" transform="scale(2)"/><path d="m393.591797 251.275391 10 3.101562s-1.25-2.462891-1.25-3.101562z" stroke="#000" stroke-width=".05" transform="scale(2)"/><path d="m409.148438 499.894531h-113.324219v-2h113.324219zm0 0"/><path d="m310.222656 503.894531h113.324219v2h-113.324219zm0 0"/><path d="m213.273438 249.947266h-8.75c0-1.638672-1.25-3.09961-1.25-3.09961z" stroke="#000" stroke-width=".05" transform="scale(2)"/><path d="m146.412109 251.947266 10 3.099609s-1.25-2.462891-1.25-3.099609z" stroke="#000" stroke-width=".05" transform="scale(2)"/><use fill="#f00" x="155.070312" xlink:href="#a" y="399.255762"/><path d="m111.886719 482.660156-1-.578125v-1.152343l51.960937-30v2.308593zm0 0"/><path d="m58.925781 453.238281v-2.308593l51.960938 30v1.152343l-1 .578125-50.960938-29.425781zm0 0"/><path d="m7.964844 482.660156-2-1.15625 52.960937-30.574218v2.308593zm0 0"/><path d="m14.664062 487.105469-1-1.734375 44.761719-25.839844 1 1.730469zm0 0"/><path d="m7.964844 541.503906-2 1.15625v-61.152344l2 1.152344zm0 0"/><path d="m58.925781 570.929688v2.304687l-52.960937-30.574219 2-1.152344zm0 0"/><path d="m59.425781 562.902344-1 1.734375-44.761719-25.84375 1-1.734375zm0 0"/><path d="m109.886719 541.503906 2 1.15625-52.960938 30.574219v-2.304687zm0 0"/><path d="m111.886719 542.660156-2-1.152344v-58.847656l1-.578125 1 .578125zm0 0"/><path d="m104.6875 537.925781h-2v-51.6875h2zm0 0"/><path d="m144.96875 388.335938c0 .917968.746094 1.664062 1.667969 1.664062.917969 0 1.664062-.746094 1.664062-1.664062 0-.921876-.746093-1.667969-1.664062-1.667969-.921875 0-1.667969.746093-1.667969 1.667969zm0 0"/><path d="m144.96875 395.835938c0 .917968.746094 1.664062 1.667969 1.664062.917969 0 1.664062-.746094 1.664062-1.664062 0-.921876-.746093-1.667969-1.664062-1.667969-.921875 0-1.667969.746093-1.667969 1.667969zm0 0"/><path d="m167.449219 454.160156h-2v-50.347656h2zm0 0"/><path d="m160.246094 454.160156h-2v-50.347656h2zm0 0"/><use fill="#f00" x="207.03125" xlink:href="#a" y="489.255762"/><path d="m205.445312 475.519531-1 1.734375-41.59375-24.015625v-2.308593l42.59375 24.59375zm0 0"/><path d="m215.808594 542.082031h-2v-48.269531h2zm0 0"/><path d="m229.347656 485.832031c-.019531.609375.292969 1.179688.816406 1.492188.523438.3125 1.175782.3125 1.703126 0 .523437-.3125.835937-.882813.816406-1.492188.019531-.609375-.292969-1.183593-.816406-1.492187-.527344-.3125-1.179688-.3125-1.703126 0-.523437.308594-.835937.882812-.816406 1.492187zm0 0"/><path d="m229.347656 478.332031c-.019531.609375.292969 1.179688.816406 1.492188.523438.3125 1.175782.3125 1.703126 0 .523437-.3125.835937-.882813.816406-1.492188.019531-.609375-.292969-1.183593-.816406-1.492187-.527344-.3125-1.179688-.3125-1.703126 0-.523437.308594-.835937.882812-.816406 1.492187zm0 0"/><path d="m177.386719 395.835938c0 .917968.746093 1.664062 1.667969 1.664062.917968 0 1.664062-.746094 1.664062-1.664062 0-.921876-.746094-1.667969-1.664062-1.667969-.921876 0-1.667969.746093-1.667969 1.667969zm0 0"/><path d="m177.386719 388.335938c0 .917968.746093 1.664062 1.667969 1.664062.917968 0 1.664062-.746094 1.664062-1.664062 0-.921876-.746094-1.667969-1.664062-1.667969-.921876 0-1.667969.746093-1.667969 1.667969zm0 0"/><use fill="#f00" x="258.308594" xlink:href="#d" y="426.86709"/><use fill="#f00" x="275.644531" xlink:href="#f" y="432.387598"/><use fill="#f00" x="285.652344" xlink:href="#e" y="426.86709"/><use x="212.761719" xlink:href="#d" y="408.113184"/><use x="230.09375" xlink:href="#g" y="399.504785"/><path d="m216.890625 465.871094c0 .921875.746094 1.667968 1.664063 1.667968.921874 0 1.667968-.746093 1.667968-1.667968 0-.917969-.746094-1.664063-1.667968-1.664063-.917969 0-1.664063.746094-1.664063 1.664063zm0 0"/><path d="m209.390625 465.871094c0 .921875.746094 1.667968 1.664063 1.667968.921874 0 1.667968-.746093 1.667968-1.667968 0-.917969-.746094-1.664063-1.667968-1.664063-.917969 0-1.664063.746094-1.664063 1.664063zm0 0"/><path d="m676.417969 461.449219c0 .917969.746093 1.664062 1.667969 1.664062.917968 0 1.664062-.746093 1.664062-1.664062 0-.921875-.746094-1.667969-1.664062-1.667969-.921876 0-1.667969.746094-1.667969 1.667969zm0 0"/><path d="m668.917969 461.449219c0 .917969.746093 1.664062 1.667969 1.664062.917968 0 1.664062-.746093 1.664062-1.664062 0-.921875-.746094-1.667969-1.664062-1.667969-.921876 0-1.667969.746094-1.667969 1.667969zm0 0"/><path d="m1095.011719 375.566406c-.023438.609375.289062 1.183594.8125 1.492188.523437.3125 1.175781.3125 1.699219 0 .523437-.308594.835937-.882813.816406-1.492188.019531-.605468-.292969-1.179687-.816406-1.488281-.523438-.3125-1.175782-.3125-1.699219 0-.523438.308594-.835938.882813-.8125 1.488281zm0 0"/><path d="m1087.511719 375.566406c-.023438.609375.289062 1.183594.8125 1.492188.523437.3125 1.175781.3125 1.699219 0 .523437-.308594.835937-.882813.816406-1.492188.019531-.605468-.292969-1.179687-.816406-1.488281-.523438-.3125-1.175782-.3125-1.699219 0-.523438.308594-.835938.882813-.8125 1.488281zm0 0"/><path d="m1126.640625 188.882812c-.023437.609376.289063 1.179688.816406 1.492188.523438.308594 1.171875.308594 1.699219 0 .523438-.3125.835938-.882812.8125-1.492188.023438-.609374-.289062-1.179687-.8125-1.488281-.527344-.3125-1.175781-.3125-1.699219 0-.527343.308594-.839843.878907-.816406 1.488281zm0 0"/><path d="m1134.140625 188.882812c-.023437.609376.289063 1.179688.816406 1.492188.523438.308594 1.171875.308594 1.699219 0 .523438-.3125.835938-.882812.8125-1.492188.023438-.609374-.289062-1.179687-.8125-1.488281-.527344-.3125-1.175781-.3125-1.699219 0-.527343.308594-.839843.878907-.816406 1.488281zm0 0"/><path d="m566.949219 98.535156c3.125 11.66211 15.130859 18.591797 26.791015 15.466797 2.839844-.763672 5.496094-2.087891 7.814454-3.896484" fill="none" stroke="#000" transform="scale(2)"/><path d="m606.304688 104.966797-3.914063 7.279297s-.175781-1.525391-.835937-2.140625c-.664063-.617188-2.199219-.673828-2.199219-.673828z" stroke="#000" stroke-width=".05" transform="scale(2)"/><path d="m585.164062 82.123047c.652344 4.109375 4.511719 6.914062 8.621094 6.263672 1.570313-.253907 3.021485-.994141 4.150391-2.115235" fill="none" stroke="#000" transform="scale(2)"/><path d="m587.279297 75.617188-.509766 8.089843s-.789062-1.304687-1.605469-1.583984c-.814453-.279297-2.208984.275391-2.208984.275391z" stroke="#000" stroke-width=".05" transform="scale(2)"/></svg>